<svg width="137" height="138" viewBox="0 0 137 138" fill="none" xmlns="http://www.w3.org/2000/svg">
<path d="M77.728 128.068C110.319 123.013 132.647 92.4631 127.597 59.8332C122.548 27.2033 92.0342 4.84966 59.4427 9.90494C26.8513 14.9602 4.52396 45.5101 9.5733 78.14C14.6226 110.77 45.1365 133.124 77.728 128.068Z" fill="#F2BD50"/>
<path d="M68.5845 21.6838C42.4863 21.6838 21.3291 42.866 21.3291 68.995C21.3291 95.1241 42.4863 116.306 68.5845 116.306C94.6828 116.306 115.84 95.1241 115.84 68.995C115.84 42.866 94.6828 21.6838 68.5845 21.6838ZM68.5845 108.632C46.7191 108.632 28.9943 90.8862 28.9943 68.995C28.9943 47.1038 46.72 29.358 68.5845 29.358C90.4491 29.358 108.175 47.1038 108.175 68.995C108.175 90.8862 90.45 108.632 68.5845 108.632Z" fill="#FEE4A6"/>
<path d="M72.2438 108.48C94.0171 106.466 110.037 87.1614 108.026 65.3624C106.014 43.5635 86.7325 27.5246 64.9592 29.5385C43.1859 31.5525 27.1659 50.8567 29.1775 72.6556C31.1891 94.4546 50.4705 110.493 72.2438 108.48Z" fill="#F2BD50"/>
<g opacity="0.45">
<path d="M21.3382 69C21.3382 70.2132 21.3848 71.4141 21.4736 72.6026H8.98594C8.913 71.4097 8.87695 70.2105 8.87695 69C8.87695 67.7894 8.91212 66.5903 8.98594 65.3973H21.4736C21.3848 66.5859 21.3382 67.7877 21.3382 69Z" fill="white"/>
<path d="M24.0004 53.2935V53.2962C23.2104 55.544 22.5874 57.8674 22.141 60.2577L10.0742 57.0211C10.5558 54.6466 11.177 52.3214 11.9336 50.0577L24.0004 53.2935Z" fill="white"/>
<path d="M24.0004 84.6724V84.675L11.9336 87.9108C11.177 85.6472 10.5558 83.3219 10.0742 80.9475L22.141 77.7117C22.5874 80.1011 23.2113 82.4246 24.0004 84.6724Z" fill="white"/>
<path d="M29.58 95.6897L18.762 101.942C17.4421 99.9433 16.2347 97.8618 15.1592 95.7055L25.9746 89.453C27.022 91.6295 28.2285 93.7128 29.58 95.6897Z" fill="white"/>
<path d="M29.58 42.2768C28.2285 44.2537 27.022 46.337 25.9746 48.5135L15.1592 42.261C16.2356 40.1047 17.4421 38.0232 18.762 36.0244L29.58 42.2768Z" fill="white"/>
<path d="M37.8133 104.89L28.9812 113.733C27.1842 112.138 25.4847 110.436 23.8916 108.637L32.7237 99.7946L37.8133 104.89Z" fill="white"/>
<path d="M37.8133 33.0856C35.9917 34.6515 34.2879 36.3574 32.7237 38.1812L23.8916 29.3386C25.4847 27.5395 27.1842 25.8381 28.9812 24.243L37.8133 33.0856Z" fill="white"/>
<path d="M48.1463 111.654L41.9012 122.482C39.7465 121.405 37.6683 120.196 35.6719 118.875L41.917 108.044C43.8906 109.397 45.9723 110.605 48.1463 111.654Z" fill="white"/>
<path d="M48.1354 26.3285C45.9614 27.3772 43.8806 28.5851 41.9061 29.94L35.6592 19.11C37.6557 17.786 39.7365 16.5798 41.8911 15.5004L48.1354 26.3285Z" fill="white"/>
<path d="M59.8697 115.503L56.6377 127.584C54.2661 127.102 51.9436 126.48 49.6826 125.722L52.9172 113.641L59.8697 115.503Z" fill="white"/>
<path d="M59.8697 22.4771C57.4822 22.924 55.1624 23.5478 52.9172 24.3387H52.9146L49.6826 12.2578C51.9436 11.5003 54.2661 10.8783 56.6377 10.3962L59.8697 22.4771Z" fill="white"/>
<path d="M72.188 9.31898V21.8222C71.0008 21.7334 69.8005 21.6867 68.5896 21.6867C67.3787 21.6867 66.1784 21.7334 64.9912 21.8222V9.31898C66.1828 9.24596 67.3805 9.2099 68.5896 9.2099C69.7987 9.21078 70.9965 9.24596 72.188 9.31898Z" fill="white"/>
<path d="M68.5896 116.296C69.8014 116.296 71.0008 116.249 72.188 116.16V128.663C70.9965 128.736 69.7987 128.772 68.5896 128.772C67.3805 128.772 66.1828 128.737 64.9912 128.663V116.16C66.1784 116.249 67.3787 116.296 68.5896 116.296Z" fill="white"/>
<path d="M87.4977 125.722C85.2367 126.48 82.9142 127.102 80.5425 127.584L77.3105 115.503C79.6954 115.056 82.0179 114.432 84.263 113.641L87.4977 125.722Z" fill="white"/>
<path d="M87.4977 12.2578L84.2657 24.3387H84.263C82.0179 23.5478 79.6972 22.924 77.3105 22.4771L80.5425 10.3962C82.9142 10.8783 85.2367 11.5003 87.4977 12.2578Z" fill="white"/>
<path d="M101.513 118.875C99.516 120.196 97.437 121.405 95.2832 122.482L89.0381 111.654C91.2121 110.605 93.2929 109.397 95.2674 108.044L101.513 118.875Z" fill="white"/>
<path d="M101.515 19.11L95.2674 29.94C93.2929 28.5851 91.2121 27.3772 89.0381 26.3285L95.2832 15.5004C97.4379 16.5798 99.5187 17.786 101.515 19.11Z" fill="white"/>
<path d="M113.29 108.637C111.697 110.436 109.997 112.138 108.2 113.733L99.3682 104.89C101.19 103.324 102.894 101.618 104.458 99.7946L113.29 108.637Z" fill="white"/>
<path d="M113.29 29.3386L104.458 38.1812C102.894 36.3574 101.19 34.6515 99.3682 33.0856L108.2 24.243C109.997 25.8381 111.697 27.5395 113.29 29.3386Z" fill="white"/>
<path d="M122.017 95.7055C120.939 97.8627 119.734 99.946 118.412 101.945L107.595 95.6897C108.948 93.7128 110.154 91.6295 111.202 89.453L122.017 95.7055Z" fill="white"/>
<path d="M122.017 42.2628L111.202 48.5153C110.154 46.3387 108.948 44.2555 107.595 42.2786L118.412 36.0244C119.734 38.0223 120.939 40.1056 122.017 42.2628Z" fill="white"/>
<path d="M127.111 80.9475C126.629 83.3219 126.008 85.6472 125.251 87.9108L113.185 84.675V84.6724C113.975 82.4246 114.598 80.1011 115.044 77.7117L127.111 80.9475Z" fill="white"/>
<path d="M127.111 57.0211L115.044 60.2577L113.185 53.2962V53.2935L125.251 50.0577C126.008 52.3214 126.629 54.6466 127.111 57.0211Z" fill="white"/>
<path d="M128.305 69C128.305 70.2105 128.27 71.4097 128.197 72.6026H115.708C115.797 71.4141 115.843 70.2132 115.843 69C115.843 67.7868 115.797 66.5859 115.708 65.3973H128.197C128.27 66.5903 128.305 67.7894 128.305 69Z" fill="white"/>
<g opacity="0.28">
<path d="M22.1336 77.7137L10.0669 80.9494C10.5484 83.3239 11.1697 85.6492 11.9262 87.9128L23.993 84.677V84.6744C23.203 82.4266 22.5791 80.1031 22.1336 77.7137ZM11.9262 50.0512C11.1697 52.3148 10.5484 54.64 10.0669 57.0145L22.1336 60.2512C22.5791 57.8609 23.203 55.5374 23.993 53.2896V53.287L11.9262 50.0512ZM28.9798 24.2345C27.1828 25.8295 25.4833 27.5309 23.8902 29.33L32.7223 38.1726C34.2864 36.3488 35.9903 34.643 37.8119 33.077L28.9798 24.2345ZM56.6316 10.3949C54.2599 10.877 51.9375 11.499 49.6765 12.2564L52.9085 24.3374H52.9111C55.1563 23.5465 57.477 22.9227 59.8636 22.4758L56.6316 10.3949ZM80.5384 10.3949L77.3064 22.4758C79.693 22.9227 82.0138 23.5465 84.2589 24.3374H84.2616L87.4935 12.2564C85.2326 11.499 82.9101 10.877 80.5384 10.3949ZM108.19 24.2345L99.3581 33.077C101.18 34.643 102.884 36.3488 104.448 38.1726L113.28 29.33C111.687 27.5309 109.987 25.8295 108.19 24.2345ZM125.244 50.0512L113.177 53.287V53.2896C113.967 55.5374 114.59 57.8609 115.036 60.2512L127.103 57.0145C126.622 54.64 126 52.3148 125.244 50.0512ZM128.193 65.3793H115.704C115.793 66.5679 115.84 67.7697 115.84 68.982C115.84 70.1943 115.793 71.3961 115.704 72.5846H128.193C128.266 71.3917 128.302 70.1925 128.302 68.982C128.301 67.7714 128.266 66.5723 128.193 65.3793ZM111.201 89.4541C110.153 91.6307 108.947 93.714 107.594 95.6908L118.411 101.946C119.733 99.9471 120.938 97.8638 122.016 95.7066L111.201 89.4541ZM95.2633 108.038C93.2888 109.391 91.2079 110.599 89.034 111.648L95.2791 122.476C97.4337 121.399 99.5119 120.19 101.508 118.869L95.2633 108.038ZM41.9068 108.038L35.6616 118.869C37.6581 120.19 39.7372 121.399 41.8909 122.476L48.1361 111.648C45.963 110.599 43.8813 109.391 41.9068 108.038ZM32.7223 99.7914L23.8902 108.634C25.4833 110.433 27.1828 112.135 28.9798 113.73L37.8119 104.887C35.9903 103.321 34.2864 101.615 32.7223 99.7914ZM52.9111 113.627L49.6765 125.708C51.9375 126.466 54.2599 127.088 56.6316 127.57L59.8636 115.489C57.4787 115.042 55.1563 114.417 52.9111 113.627ZM84.2589 113.627C82.0138 114.418 79.6913 115.042 77.3064 115.489L80.5384 127.57C82.9101 127.088 85.2326 126.466 87.4935 125.708L84.2589 113.627ZM104.448 99.7914C102.884 101.615 101.18 103.321 99.3581 104.887L108.19 113.73C109.987 112.135 111.687 110.433 113.28 108.634L104.448 99.7914ZM115.036 77.7137C114.59 80.104 113.967 82.4266 113.177 84.6744V84.677L125.244 87.9128C126 85.6492 126.622 83.3239 127.103 80.9494L115.036 77.7137ZM118.411 36.018L107.594 42.2723C108.947 44.2491 110.153 46.3324 111.201 48.509L122.016 42.2564C120.938 40.1001 119.733 38.0169 118.411 36.018ZM95.2782 15.4878L89.0331 26.316C91.207 27.3647 93.2879 28.5726 95.2624 29.9274L101.51 19.0975C99.5137 17.7735 97.4328 16.5673 95.2782 15.4878ZM68.585 9.19574C67.3759 9.19574 66.1782 9.23092 64.9866 9.30482V21.8081C66.1738 21.7192 67.3741 21.6726 68.585 21.6726C69.7968 21.6726 70.9962 21.7192 72.1834 21.8081V9.30482C70.9918 9.23092 69.7941 9.19574 68.585 9.19574ZM41.8918 15.4878C39.7372 16.5673 37.6563 17.7735 35.6599 19.0975L41.9068 29.9274C43.8813 28.5726 45.9621 27.3647 48.1361 26.316L41.8918 15.4878ZM18.7566 36.0207C17.4368 38.0195 16.2294 40.101 15.1538 42.2573L25.9692 48.5098C27.0167 46.3333 28.2232 44.25 29.5747 42.2732L18.7566 36.0207ZM21.4658 65.3793H8.97812C8.90519 66.5723 8.86914 67.7714 8.86914 68.982C8.86914 70.1925 8.90431 71.3917 8.97812 72.5846H21.4658C21.377 71.3961 21.3304 70.1952 21.3304 68.982C21.3304 67.7688 21.377 66.5679 21.4658 65.3793ZM25.9692 89.4541L15.1538 95.7066C16.2303 97.8638 17.4368 99.9445 18.7566 101.943L29.5747 95.6908C28.2232 93.7149 27.0167 91.6315 25.9692 89.4541ZM68.585 116.292C67.3741 116.292 66.1738 116.246 64.9866 116.157V128.659H72.1834V116.157C70.9962 116.246 69.7959 116.292 68.585 116.292Z" fill="white"/>
<path d="M72.188 9.30476V21.808C71.0008 21.7191 69.8005 21.6725 68.5896 21.6725C67.3787 21.6725 66.1784 21.7191 64.9912 21.808V9.30476C66.1828 9.23174 67.3805 9.19568 68.5896 9.19568C69.7987 9.19656 70.9965 9.23174 72.188 9.30476Z" fill="white"/>
<path d="M72.188 128.663V116.16C71.0008 116.248 69.8005 116.295 68.5896 116.295C67.3787 116.295 66.1784 116.248 64.9912 116.16V128.663H72.188Z" fill="white"/>
<path d="M59.8697 22.476C57.4822 22.9229 55.1624 23.5467 52.9172 24.3376H52.9146L49.6826 12.2567C51.9436 11.4992 54.2661 10.8772 56.6377 10.3951L59.8697 22.476Z" fill="white"/>
<path d="M87.4977 125.708C85.2367 126.466 82.9142 127.088 80.5425 127.57L77.3105 115.489C79.6954 115.042 82.0179 114.418 84.263 113.627L87.4977 125.708Z" fill="white"/>
<path d="M48.1422 26.3407C45.9682 27.3894 43.8874 28.5973 41.9129 29.9522L35.666 19.1222C37.6625 17.7982 39.7433 16.592 41.898 15.5126L48.1422 26.3407Z" fill="white"/>
<path d="M101.513 118.901C99.516 120.222 97.437 121.431 95.2832 122.508L89.0381 111.68C91.2121 110.631 93.2929 109.423 95.2674 108.07L101.513 118.901Z" fill="white"/>
<path d="M37.8201 33.0714C35.9985 34.6374 34.2947 36.3432 32.7305 38.167L23.8984 29.3245C25.4916 27.5254 27.191 25.8239 28.988 24.2289L37.8201 33.0714Z" fill="white"/>
<path d="M113.289 108.623C111.696 110.422 109.996 112.124 108.199 113.719L99.3672 104.876C101.189 103.31 102.893 101.604 104.457 99.7805L113.289 108.623Z" fill="white"/>
<path d="M29.5732 42.2888C28.2217 44.2656 27.0152 46.3489 25.9678 48.5255L15.1523 42.273C16.2288 40.1167 17.4353 38.0351 18.7551 36.0363L29.5732 42.2888Z" fill="white"/>
<path d="M122.017 95.7179C120.939 97.8751 119.734 99.9584 118.412 101.957L107.595 95.7021C108.948 93.7253 110.154 91.642 111.202 89.4654L122.017 95.7179Z" fill="white"/>
<path d="M23.9935 53.2924V53.2951C23.2035 55.5429 22.5805 57.8663 22.1341 60.2566L10.0674 57.02C10.5489 54.6455 11.1702 52.3203 11.9268 50.0566L23.9935 53.2924Z" fill="white"/>
<path d="M127.103 80.9596C126.621 83.3341 126 85.6593 125.244 87.923L113.177 84.6872V84.6845C113.967 82.4367 114.59 80.1133 115.036 77.7238L127.103 80.9596Z" fill="white"/>
<path d="M21.3304 68.9856C21.3304 70.1988 21.377 71.3997 21.4658 72.5882H8.97812C8.90519 71.3953 8.86914 70.1961 8.86914 68.9856C8.86914 67.775 8.90431 66.5759 8.97812 65.3829H21.4658C21.377 66.5715 21.3304 67.7733 21.3304 68.9856Z" fill="white"/>
<path d="M128.298 68.9857C128.298 70.1963 128.263 71.3954 128.189 72.5883H115.7C115.789 71.3998 115.836 70.1989 115.836 68.9857C115.836 67.7725 115.789 66.5716 115.7 65.3831H128.189C128.263 66.576 128.298 67.7751 128.298 68.9857Z" fill="white"/>
<path d="M23.9935 84.6846V84.6872L11.9268 87.923C11.1702 85.6594 10.5489 83.3342 10.0674 80.9597L22.1341 77.7239C22.5805 80.1133 23.2044 82.4368 23.9935 84.6846Z" fill="white"/>
<path d="M127.103 57.02L115.036 60.2566L113.177 53.2951V53.2924L125.244 50.0566C126 52.3203 126.621 54.6455 127.103 57.02Z" fill="white"/>
<path d="M29.5732 95.7156L18.7551 101.968C17.4353 99.9693 16.2279 97.8877 15.1523 95.7314L25.9678 89.4789C27.0152 91.6555 28.2217 93.7388 29.5732 95.7156Z" fill="white"/>
<path d="M122.017 42.2754L111.202 48.5279C110.154 46.3514 108.948 44.2681 107.595 42.2913L118.412 36.037C119.734 38.0349 120.939 40.1182 122.017 42.2754Z" fill="white"/>
<path d="M37.8201 104.876L28.988 113.719C27.191 112.124 25.4916 110.422 23.8984 108.623L32.7305 99.7805L37.8201 104.876Z" fill="white"/>
<path d="M113.289 29.3245L104.457 38.167C102.893 36.3432 101.189 34.6374 99.3672 33.0714L108.199 24.2289C109.996 25.8239 111.696 27.5254 113.289 29.3245Z" fill="white"/>
<path d="M48.1405 111.68L41.8953 122.508C39.7407 121.431 37.6625 120.222 35.666 118.901L41.9111 108.07C43.8848 109.423 45.9665 110.631 48.1405 111.68Z" fill="white"/>
<path d="M101.515 19.1226L95.2674 29.9525C93.2929 28.5977 91.2121 27.3898 89.0381 26.3411L95.2832 15.5129C97.4379 16.5924 99.5187 17.7986 101.515 19.1226Z" fill="white"/>
<path d="M59.8697 115.489L56.6377 127.57C54.2661 127.088 51.9436 126.466 49.6826 125.708L52.9172 113.627L59.8697 115.489Z" fill="white"/>
<path d="M87.4977 12.2567L84.2657 24.3376H84.263C82.0179 23.5467 79.6972 22.9229 77.3105 22.476L80.5425 10.3951C82.9142 10.8772 85.2367 11.4992 87.4977 12.2567Z" fill="white"/>
</g>
</g>
<path d="M72.4307 90.9911V100.529H64.1496V90.9287C58.2973 90.1184 52.6303 87.6868 48.459 84.2583L52.8799 75.3436C57.3632 79.2084 64.1505 81.9515 68.6953 81.9515C72.0573 81.9515 74.1742 80.7049 74.1742 78.3982C74.1742 70.98 51.198 75.4685 51.198 60.0084C51.198 53.0891 56.1795 48.2891 64.1496 46.98V37.8163H72.4307V46.9175C77.5362 47.4788 82.3929 49.2243 86.0669 51.5926L81.7708 60.6313C77.1636 58.0131 71.3104 55.9562 67.6988 55.9562C64.9589 55.9562 63.1531 56.9539 63.1531 58.9483C63.1531 66.18 86.1293 62.0653 86.1293 77.7744C86.1284 85.4424 80.2752 89.931 72.4307 90.9911Z" fill="white"/>
</svg>
