<svg width="192" height="160" viewBox="0 0 192 160" fill="none" xmlns="http://www.w3.org/2000/svg">
<path d="M16.088 35.3769H25.7687H33.8359V17.6884H138.71C138.71 17.6884 154.845 23.3166 157.265 41.809C159.685 60.3015 138.71 70.7538 138.71 70.7538H33.8359V60.3015H16.088L15.2812 159.196L138.71 160C138.71 160 145.971 160 158.878 150.352C171.786 140.704 174.206 131.055 174.206 131.055H153.231C153.231 131.055 150.811 134.271 145.971 137.487C141.13 140.704 138.71 140.704 138.71 140.704H33.8359V88.4422H138.71C138.71 88.4422 143.551 89.2462 149.198 95.6784C154.845 102.111 153.231 106.131 153.231 106.131H174.206C174.206 106.131 175.013 98.8945 168.559 90.0503C162.105 81.206 158.072 80.402 158.072 80.402C158.072 80.402 179.853 65.9296 174.206 35.3769C168.559 4.82412 137.097 0 137.097 0H16.088V35.3769Z" fill="black"/>
<path d="M140.37 35.3765H0V53.0649H109.715L90.3532 70.7533H121.009L140.37 53.0649V35.3765Z" fill="url(#paint0_linear_249_7635)"/>
<path d="M48.4051 123.819H192V106.13H79.0607L90.3548 94.8741H62.9261L48.4051 106.13V123.819Z" fill="url(#paint1_linear_249_7635)"/>
<defs>
<linearGradient id="paint0_linear_249_7635" x1="-3.34381e-08" y1="53.0649" x2="120.992" y2="70.87" gradientUnits="userSpaceOnUse">
<stop stop-color="white"/>
<stop offset="0.139" stop-color="#E8E8E8"/>
<stop offset="0.259" stop-color="#D2D2D2"/>
<stop offset="0.379" stop-color="#C1C1C1"/>
<stop offset="0.504" stop-color="#ADADAD"/>
<stop offset="0.624" stop-color="#9A9A9A"/>
<stop offset="0.759" stop-color="#838383"/>
<stop offset="0.864" stop-color="#727272"/>
<stop offset="1" stop-color="#5C5C5C"/>
</linearGradient>
<linearGradient id="paint1_linear_249_7635" x1="62.924" y1="94.8741" x2="191.989" y2="109.443" gradientUnits="userSpaceOnUse">
<stop stop-color="#727272"/>
<stop offset="0.139" stop-color="#626262"/>
<stop offset="0.264" stop-color="#545454"/>
<stop offset="0.374" stop-color="#474747"/>
<stop offset="0.499" stop-color="#393939"/>
<stop offset="0.644" stop-color="#292929"/>
<stop offset="0.764" stop-color="#1B1B1B"/>
<stop offset="0.869" stop-color="#0F0F0F"/>
<stop offset="1"/>
</linearGradient>
</defs>
</svg>
