<svg width="467" height="280" viewBox="0 0 467 280" fill="none" xmlns="http://www.w3.org/2000/svg">
<path d="M384.426 10.5134V159.916C384.426 161.27 384.171 162.561 383.686 163.736C382.18 167.519 378.492 170.177 374.177 170.177H83.7131C78.0458 170.177 73.4629 165.589 73.4629 159.916V10.5134C73.4629 4.8394 78.0458 0.251099 83.7131 0.251099H374.176C379.843 0.251099 384.426 4.8394 384.426 10.5134Z" fill="#35363B"/>
<path d="M339.521 0.251099L169.781 170.177H88.0137L257.752 0.251099H339.521Z" fill="#42444F"/>
<path d="M76.0078 13.0145V10.51C76.0078 6.26181 79.4607 2.80481 83.704 2.80481H374.167C378.411 2.80481 381.864 6.26181 381.864 10.51V13.0145H76.0078Z" fill="#E6EAF0"/>
<path d="M384.417 155.363L383.702 155.644L384.417 156.551V159.912C384.417 161.267 384.161 162.557 383.676 163.733L379.758 158.774L371.895 170.174H371.193L356.667 125.524L384.417 142.405V155.363Z" fill="#292A2E"/>
<path d="M100.314 100.067V170.175H83.7073C78.0399 170.175 73.457 165.587 73.457 159.913V89.806H90.0633C95.7306 89.806 100.314 94.3932 100.314 100.067Z" fill="#292A2E"/>
<path d="M110.506 11.0744C112.086 11.0744 113.366 9.79244 113.366 8.21108C113.366 6.62972 112.086 5.34778 110.506 5.34778C108.927 5.34778 107.646 6.62972 107.646 8.21108C107.646 9.79244 108.927 11.0744 110.506 11.0744Z" fill="#34909D"/>
<path d="M99.2613 11.0744C100.841 11.0744 102.121 9.79244 102.121 8.21108C102.121 6.62972 100.841 5.34778 99.2613 5.34778C97.6818 5.34778 96.4014 6.62972 96.4014 8.21108C96.4014 9.79244 97.6818 11.0744 99.2613 11.0744Z" fill="#FFDA58"/>
<path d="M88.0191 11.0745C89.5986 11.0745 90.879 9.79256 90.879 8.2112C90.879 6.62984 89.5986 5.3479 88.0191 5.3479C86.4396 5.3479 85.1592 6.62984 85.1592 8.2112C85.1592 9.79256 86.4396 11.0745 88.0191 11.0745Z" fill="#BA0034"/>
<path d="M90.6752 95.0571V244.46C90.6752 250.134 86.0923 254.721 80.4249 254.721H11.085C5.41766 254.721 0.835938 250.132 0.835938 244.46V95.0571C0.835938 89.3831 5.41766 84.7948 11.085 84.7948H80.4249C86.0923 84.796 90.6752 89.3831 90.6752 95.0571Z" fill="#E6EAF0"/>
<path d="M90.6754 95.0571V100.118H0.834961V95.0571C0.834961 89.3831 5.41669 84.7948 11.084 84.7948H80.424C86.0925 84.796 90.6754 89.3831 90.6754 95.0571Z" fill="#35363B"/>
<path d="M37.8873 95.6216C39.4668 95.6216 40.7472 94.3397 40.7472 92.7583C40.7472 91.177 39.4668 89.895 37.8873 89.895C36.3078 89.895 35.0273 91.177 35.0273 92.7583C35.0273 94.3397 36.3078 95.6216 37.8873 95.6216Z" fill="#34909D"/>
<path d="M26.6441 95.6216C28.2236 95.6216 29.504 94.3397 29.504 92.7583C29.504 91.177 28.2236 89.895 26.6441 89.895C25.0646 89.895 23.7842 91.177 23.7842 92.7583C23.7842 94.3397 25.0646 95.6216 26.6441 95.6216Z" fill="#FFDA58"/>
<path d="M15.4 95.6216C16.9795 95.6216 18.2599 94.3397 18.2599 92.7583C18.2599 91.177 16.9795 89.895 15.4 89.895C13.8205 89.895 12.54 91.177 12.54 92.7583C12.54 94.3397 13.8205 95.6216 15.4 95.6216Z" fill="#BA0034"/>
<path d="M466.012 196.446V269C466.012 274.674 461.429 279.262 455.763 279.262H311.085C305.418 279.262 300.835 274.674 300.835 269V196.446C300.835 190.772 305.418 186.183 311.085 186.183H455.763C461.429 186.183 466.012 190.772 466.012 196.446Z" fill="#E6EAF0"/>
<path d="M466.012 196.446V201.506H300.835V196.446C300.835 190.772 305.418 186.183 311.085 186.183H455.763C461.429 186.183 466.012 190.772 466.012 196.446Z" fill="#35363B"/>
<path d="M337.886 197.01C339.466 197.01 340.746 195.728 340.746 194.147C340.746 192.566 339.466 191.284 337.886 191.284C336.307 191.284 335.026 192.566 335.026 194.147C335.026 195.728 336.307 197.01 337.886 197.01Z" fill="#34909D"/>
<path d="M326.643 197.01C328.223 197.01 329.503 195.728 329.503 194.147C329.503 192.566 328.223 191.284 326.643 191.284C325.064 191.284 323.783 192.566 323.783 194.147C323.783 195.728 325.064 197.01 326.643 197.01Z" fill="#FFDA58"/>
<path d="M315.4 197.01C316.979 197.01 318.26 195.728 318.26 194.147C318.26 192.566 316.979 191.284 315.4 191.284C313.82 191.284 312.54 192.566 312.54 194.147C312.54 195.728 313.82 197.01 315.4 197.01Z" fill="#BA0034"/>
<path d="M147.857 75.0922V52.7674H150.429V61.0084H150.647C150.836 60.7177 151.098 60.347 151.432 59.8965C151.774 59.4386 152.261 59.0317 152.893 58.6756C153.532 58.3122 154.397 58.1305 155.487 58.1305C156.897 58.1305 158.14 58.483 159.215 59.1879C160.291 59.8928 161.13 60.8921 161.733 62.1856C162.337 63.4792 162.638 65.0053 162.638 66.764C162.638 68.5372 162.337 70.0742 161.733 71.375C161.13 72.6686 160.295 73.6714 159.226 74.3836C158.158 75.0885 156.926 75.441 155.531 75.441C154.455 75.441 153.594 75.2629 152.947 74.9068C152.301 74.5435 151.803 74.1329 151.454 73.6751C151.105 73.21 150.836 72.8248 150.647 72.5196H150.342V75.0922H147.857ZM150.386 66.7204C150.386 67.9849 150.571 69.1004 150.942 70.0669C151.312 71.0262 151.854 71.7783 152.566 72.3234C153.278 72.8611 154.15 73.13 155.182 73.13C156.258 73.13 157.155 72.8466 157.875 72.2798C158.601 71.7057 159.146 70.9353 159.51 69.9688C159.88 68.995 160.066 67.9122 160.066 66.7204C160.066 65.5431 159.884 64.4821 159.521 63.5373C159.164 62.5853 158.623 61.8332 157.896 61.2809C157.177 60.7213 156.272 60.4415 155.182 60.4415C154.136 60.4415 153.256 60.7068 152.544 61.2373C151.832 61.7605 151.294 62.4945 150.931 63.4392C150.567 64.3767 150.386 65.4704 150.386 66.7204ZM177.125 68.2465V58.3486H179.698V75.0922H177.125V72.258H176.951C176.558 73.1082 175.948 73.8313 175.12 74.4272C174.291 75.0159 173.245 75.3102 171.98 75.3102C170.934 75.3102 170.003 75.0813 169.19 74.6234C168.376 74.1583 167.736 73.4607 167.271 72.5305C166.806 71.593 166.573 70.4121 166.573 68.9877V58.3486H169.146V68.8133C169.146 70.0342 169.487 71.008 170.171 71.7347C170.861 72.4614 171.74 72.8248 172.809 72.8248C173.448 72.8248 174.099 72.6613 174.76 72.3343C175.428 72.0072 175.988 71.5058 176.439 70.83C176.896 70.1541 177.125 69.2929 177.125 68.2465ZM184.41 75.0922V58.3486H186.982V75.0922H184.41ZM185.718 55.558C185.216 55.558 184.784 55.3872 184.421 55.0456C184.065 54.7041 183.887 54.2935 183.887 53.8138C183.887 53.3342 184.065 52.9236 184.421 52.582C184.784 52.2405 185.216 52.0697 185.718 52.0697C186.219 52.0697 186.648 52.2405 187.004 52.582C187.368 52.9236 187.549 53.3342 187.549 53.8138C187.549 54.2935 187.368 54.7041 187.004 55.0456C186.648 55.3872 186.219 55.558 185.718 55.558ZM194.267 52.7674V75.0922H191.694V52.7674H194.267ZM198.499 75.0922V73.13L208.005 60.9211V60.7467H198.804V58.3486H211.318V60.3979L202.074 72.5196V72.694H211.624V75.0922H198.499ZM222.126 75.441C220.513 75.441 219.121 75.0849 217.951 74.3727C216.789 73.6533 215.891 72.6504 215.259 71.3641C214.634 70.0705 214.322 68.5662 214.322 66.8512C214.322 65.1361 214.634 63.6245 215.259 62.3164C215.891 61.0011 216.771 59.9764 217.897 59.2424C219.031 58.5012 220.353 58.1305 221.865 58.1305C222.737 58.1305 223.598 58.2759 224.448 58.5666C225.299 58.8573 226.073 59.3296 226.77 59.9837C227.468 60.6305 228.024 61.488 228.438 62.5563C228.852 63.6245 229.059 64.9399 229.059 66.5023V67.5924H216.153V65.3687H226.443C226.443 64.4239 226.254 63.5809 225.876 62.8397C225.506 62.0984 224.975 61.5134 224.285 61.0847C223.602 60.6559 222.795 60.4415 221.865 60.4415C220.84 60.4415 219.954 60.6959 219.205 61.2046C218.464 61.706 217.893 62.3601 217.494 63.1667C217.094 63.9734 216.894 64.8382 216.894 65.7611V67.2436C216.894 68.5081 217.112 69.58 217.548 70.4593C217.991 71.3314 218.606 71.9963 219.39 72.4542C220.175 72.9047 221.087 73.13 222.126 73.13C222.802 73.13 223.413 73.0355 223.958 72.8466C224.51 72.6504 224.986 72.3597 225.386 71.9745C225.785 71.5821 226.094 71.0952 226.312 70.5138L228.798 71.2115C228.536 72.0545 228.096 72.7957 227.479 73.4352C226.861 74.0675 226.098 74.5617 225.19 74.9178C224.281 75.2666 223.26 75.441 222.126 75.441ZM232.973 75.0922V58.3486H235.458V60.8775H235.633C235.938 60.0491 236.49 59.3769 237.289 58.8609C238.089 58.3449 238.99 58.0869 239.993 58.0869C240.182 58.0869 240.418 58.0906 240.701 58.0978C240.985 58.1051 241.199 58.116 241.345 58.1305V60.7467C241.257 60.7249 241.057 60.6922 240.745 60.6486C240.44 60.5978 240.116 60.5723 239.775 60.5723C238.961 60.5723 238.234 60.7431 237.595 61.0847C236.962 61.4189 236.461 61.884 236.09 62.48C235.727 63.0686 235.545 63.7408 235.545 64.4966V75.0922H232.973ZM244.35 75.2666C243.813 75.2666 243.351 75.074 242.966 74.6888C242.581 74.3037 242.388 73.8422 242.388 73.3044C242.388 72.7667 242.581 72.3052 242.966 71.92C243.351 71.5349 243.813 71.3423 244.35 71.3423C244.888 71.3423 245.35 71.5349 245.735 71.92C246.12 72.3052 246.313 72.7667 246.313 73.3044C246.313 73.6605 246.222 73.9876 246.04 74.2855C245.866 74.5835 245.629 74.8233 245.331 75.005C245.041 75.1794 244.714 75.2666 244.35 75.2666ZM257.731 75.441C256.161 75.441 254.81 75.0704 253.676 74.3291C252.542 73.5879 251.67 72.5668 251.06 71.266C250.449 69.9652 250.144 68.479 250.144 66.8076C250.144 65.107 250.457 63.6064 251.082 62.3055C251.714 60.9975 252.593 59.9764 253.72 59.2424C254.853 58.5012 256.176 58.1305 257.688 58.1305C258.865 58.1305 259.926 58.3486 260.871 58.7846C261.815 59.2206 262.589 59.8311 263.192 60.6159C263.796 61.4008 264.17 62.3164 264.315 63.3629H261.743C261.546 62.5999 261.11 61.924 260.435 61.3354C259.766 60.7395 258.865 60.4415 257.731 60.4415C256.728 60.4415 255.849 60.7031 255.093 61.2264C254.345 61.7423 253.76 62.4727 253.338 63.4174C252.924 64.3549 252.717 65.4559 252.717 66.7204C252.717 68.0139 252.92 69.1403 253.327 70.0996C253.741 71.0589 254.323 71.8038 255.071 72.3343C255.827 72.8648 256.714 73.13 257.731 73.13C258.4 73.13 259.007 73.0137 259.552 72.7812C260.097 72.5486 260.558 72.2144 260.936 71.7783C261.314 71.3423 261.583 70.8191 261.743 70.2086H264.315C264.17 71.197 263.81 72.0872 263.236 72.8793C262.669 73.6642 261.917 74.2891 260.98 74.7542C260.049 75.2121 258.967 75.441 257.731 75.441ZM274.878 75.441C273.366 75.441 272.04 75.0813 270.899 74.3618C269.766 73.6424 268.879 72.6359 268.239 71.3423C267.607 70.0487 267.291 68.5372 267.291 66.8076C267.291 65.0634 267.607 63.541 268.239 62.2401C268.879 60.9393 269.766 59.9292 270.899 59.2097C272.04 58.4903 273.366 58.1305 274.878 58.1305C276.39 58.1305 277.712 58.4903 278.846 59.2097C279.987 59.9292 280.873 60.9393 281.506 62.2401C282.145 63.541 282.465 65.0634 282.465 66.8076C282.465 68.5372 282.145 70.0487 281.506 71.3423C280.873 72.6359 279.987 73.6424 278.846 74.3618C277.712 75.0813 276.39 75.441 274.878 75.441ZM274.878 73.13C276.026 73.13 276.971 72.8357 277.712 72.2471C278.454 71.6584 279.002 70.8845 279.358 69.9252C279.714 68.9659 279.892 67.9267 279.892 66.8076C279.892 65.6884 279.714 64.6456 279.358 63.679C279.002 62.7125 278.454 61.9313 277.712 61.3354C276.971 60.7395 276.026 60.4415 274.878 60.4415C273.73 60.4415 272.785 60.7395 272.044 61.3354C271.303 61.9313 270.754 62.7125 270.398 63.679C270.042 64.6456 269.864 65.6884 269.864 66.8076C269.864 67.9267 270.042 68.9659 270.398 69.9252C270.754 70.8845 271.303 71.6584 272.044 72.2471C272.785 72.8357 273.73 73.13 274.878 73.13ZM286.392 75.0922V58.3486H288.877V60.9648H289.095C289.444 60.0709 290.007 59.3769 290.785 58.8827C291.563 58.3813 292.496 58.1305 293.587 58.1305C294.691 58.1305 295.61 58.3813 296.344 58.8827C297.086 59.3769 297.663 60.0709 298.078 60.9648H298.252C298.681 60.1 299.324 59.4132 300.182 58.9045C301.039 58.3885 302.067 58.1305 303.266 58.1305C304.763 58.1305 305.988 58.5993 306.94 59.5367C307.892 60.4669 308.368 61.9168 308.368 63.8862V75.0922H305.795V63.8862C305.795 62.6507 305.457 61.7678 304.782 61.2373C304.106 60.7068 303.31 60.4415 302.394 60.4415C301.217 60.4415 300.305 60.7976 299.658 61.5098C299.011 62.2147 298.688 63.1086 298.688 64.1914V75.0922H296.072V63.6245C296.072 62.6725 295.763 61.9059 295.145 61.3245C294.528 60.7358 293.732 60.4415 292.758 60.4415C292.089 60.4415 291.465 60.6196 290.883 60.9757C290.309 61.3317 289.844 61.8259 289.488 62.4582C289.139 63.0831 288.965 63.8062 288.965 64.6274V75.0922H286.392Z" fill="white"/>
<path d="M47.9573 163.735H15.584V168.339H47.9573V163.735Z" fill="#42444F"/>
<path d="M86.7877 163.735H52.3086V168.338H86.7877V163.735Z" fill="#42444F"/>
<path d="M117.656 163.735H89.0332V168.338H117.656V163.735Z" fill="#42444F"/>
<path d="M43.1934 191.46H15.584V196.063H43.1934V191.46Z" fill="#42444F"/>
<path d="M70.6458 191.46H45.9932V196.063H70.6458V191.46Z" fill="#42444F"/>
<path d="M115.473 195.97L72.8926 196.064V191.46L115.473 191.367V195.97Z" fill="#42444F"/>
<path d="M33.0062 172.976H15.584V177.579H33.0062V172.976Z" fill="#42444F"/>
<path d="M105.221 172.976H37.3584V177.579H105.221V172.976Z" fill="#42444F"/>
<path d="M119.741 172.976H109.571V177.579H119.741V172.976Z" fill="#42444F"/>
<path d="M47.9573 182.218H15.584V186.821H47.9573V182.218Z" fill="#42444F"/>
<path d="M78.9626 182.218H50.7578V186.821H78.9626V182.218Z" fill="#0D6943"/>
<path d="M107.731 182.218H83.3145V186.821H107.731V182.218Z" fill="#42444F"/>
<path d="M47.9573 200.479H15.584V205.082H47.9573V200.479Z" fill="#0D6943"/>
<path d="M86.7877 200.479H52.3086V205.082H86.7877V200.479Z" fill="#42444F"/>
<path d="M117.656 200.479H89.0332V205.082H117.656V200.479Z" fill="#42444F"/>
<path d="M43.1934 228.204H15.584V232.807H43.1934V228.204Z" fill="#0D6943"/>
<path d="M70.6458 228.204H45.9932V232.807H70.6458V228.204Z" fill="#42444F"/>
<path d="M115.473 232.714L72.8926 232.808V228.204L115.473 228.11V232.714Z" fill="#42444F"/>
<path d="M33.0062 209.721H15.584V214.324H33.0062V209.721Z" fill="#42444F"/>
<path d="M105.221 209.721H37.3584V214.324H105.221V209.721Z" fill="#0D6943"/>
<path d="M119.741 209.721H109.571V214.324H119.741V209.721Z" fill="#42444F"/>
<path d="M47.9573 218.962H15.584V223.565H47.9573V218.962Z" fill="#42444F"/>
<path d="M78.9626 218.962H50.7578V223.565H78.9626V218.962Z" fill="#42444F"/>
<path d="M107.731 218.962H83.3145V223.565H107.731V218.962Z" fill="#42444F"/>
<path d="M385.751 151.571L385.738 151.589L385.726 151.607L378.538 162.036L365.243 121.185L401.922 143.502L387.835 149.057L387.573 149.16L387.404 149.384L385.751 151.571Z" fill="black" stroke="white" stroke-width="2"/>
<path d="M297.089 238.865H269.188C263.023 238.865 258.024 233.862 258.024 227.688V175.149" stroke="#42444F" stroke-width="2.1869" stroke-miterlimit="10" stroke-dasharray="2.19 1.09"/>
<path d="M45.6221 122.542V73.4019C45.6221 68.546 49.5548 64.6086 54.405 64.6086H73.3622" stroke="#42444F" stroke-width="2.1869" stroke-miterlimit="10" stroke-dasharray="2.19 1.09"/>
<path d="M45.5036 130.361C47.1791 130.361 48.5375 129.001 48.5375 127.323C48.5375 125.646 47.1791 124.286 45.5036 124.286C43.828 124.286 42.4697 125.646 42.4697 127.323C42.4697 129.001 43.828 130.361 45.5036 130.361Z" fill="#42444F"/>
<path d="M260.983 170.014C260.983 171.639 259.668 172.956 258.044 172.956C256.42 172.956 255.104 171.639 255.104 170.014C255.104 168.389 256.42 167.071 258.044 167.071C259.668 167.071 260.983 168.389 260.983 170.014Z" fill="#42444F"/>
<path d="M303.229 238.874C303.229 240.212 302.146 241.297 300.809 241.297C299.473 241.297 298.39 240.212 298.39 238.874C298.39 237.536 299.473 236.452 300.809 236.452C302.145 236.452 303.229 237.536 303.229 238.874Z" fill="#42444F"/>
<path d="M169.452 97.511H128.646V101.562H169.452V97.511Z" fill="#6F7082"/>
<path d="M169.452 105.226H128.646V109.276H169.452V105.226Z" fill="#6F7082"/>
<path d="M169.452 112.94H128.646V116.991H169.452V112.94Z" fill="#6F7082"/>
<path d="M156.003 120.655H128.646V124.705H156.003V120.655Z" fill="#6F7082"/>
<path d="M224.081 97.5109H183.275V101.562H224.081V97.5109Z" fill="#6F7082"/>
<path d="M224.081 105.226H183.275V109.276H224.081V105.226Z" fill="#6F7082"/>
<path d="M224.081 112.94H183.275V116.991H224.081V112.94Z" fill="#6F7082"/>
<path d="M210.632 120.655H183.275V124.705H210.632V120.655Z" fill="#6F7082"/>
<path d="M278.71 97.511H237.904V101.562H278.71V97.511Z" fill="#6F7082"/>
<path d="M278.71 105.226H237.904V109.276H278.71V105.226Z" fill="#6F7082"/>
<path d="M278.71 112.94H237.904V116.991H278.71V112.94Z" fill="#6F7082"/>
<path d="M265.26 120.655H237.904V124.705H265.26V120.655Z" fill="#6F7082"/>
<path d="M333.337 97.5109H292.531V101.562H333.337V97.5109Z" fill="#6F7082"/>
<path d="M333.337 105.226H292.531V109.276H333.337V105.226Z" fill="#6F7082"/>
<path d="M333.337 112.94H292.531V116.991H333.337V112.94Z" fill="#6F7082"/>
<path d="M319.887 120.655H292.531V124.705H319.887V120.655Z" fill="#6F7082"/>
<path d="M353.186 210.868H313.883V265.227H353.186V210.868Z" fill="white"/>
<path d="M324.142 210.868H313.883V221.149L324.142 210.868Z" fill="#6F7082"/>
<path d="M344.92 216.961H322.151V218.232H344.92V216.961Z" fill="#6F7082"/>
<path d="M344.92 220.617H322.151V221.887H344.92V220.617Z" fill="#6F7082"/>
<path d="M344.92 224.273H322.151V225.543H344.92V224.273Z" fill="#6F7082"/>
<path d="M344.92 227.928H322.151V229.198H344.92V227.928Z" fill="#6F7082"/>
<path d="M344.92 231.583H322.151V232.853H344.92V231.583Z" fill="#6F7082"/>
<path d="M344.92 235.239H322.151V236.509H344.92V235.239Z" fill="#6F7082"/>
<path d="M344.92 238.894H322.151V240.165H344.92V238.894Z" fill="#6F7082"/>
<path d="M344.92 242.55H322.151V243.82H344.92V242.55Z" fill="#6F7082"/>
<path d="M344.92 246.206H322.151V247.476H344.92V246.206Z" fill="#6F7082"/>
<path d="M344.92 249.86H322.151V251.13H344.92V249.86Z" fill="#6F7082"/>
<path d="M344.92 253.516H322.151V254.786H344.92V253.516Z" fill="#6F7082"/>
<path d="M335.922 257.171H322.151V258.442H335.922V257.171Z" fill="#6F7082"/>
<path d="M402.446 210.868H363.144V265.227H402.446V210.868Z" fill="white"/>
<path d="M373.403 210.868H363.144V221.149L373.403 210.868Z" fill="#6F7082"/>
<path d="M394.179 216.961H371.41V218.232H394.179V216.961Z" fill="#6F7082"/>
<path d="M394.179 220.617H371.41V221.887H394.179V220.617Z" fill="#6F7082"/>
<path d="M394.179 224.273H371.41V225.543H394.179V224.273Z" fill="#6F7082"/>
<path d="M394.179 227.928H371.41V229.198H394.179V227.928Z" fill="#6F7082"/>
<path d="M394.179 231.583H371.41V232.853H394.179V231.583Z" fill="#6F7082"/>
<path d="M394.179 235.239H371.41V236.509H394.179V235.239Z" fill="#6F7082"/>
<path d="M394.179 238.894H371.41V240.165H394.179V238.894Z" fill="#6F7082"/>
<path d="M394.179 242.55H371.41V243.82H394.179V242.55Z" fill="#6F7082"/>
<path d="M394.179 246.206H371.41V247.476H394.179V246.206Z" fill="#6F7082"/>
<path d="M394.179 249.86H371.41V251.13H394.179V249.86Z" fill="#6F7082"/>
<path d="M394.179 253.516H371.41V254.786H394.179V253.516Z" fill="#6F7082"/>
<path d="M385.181 257.171H371.41V258.442H385.181V257.171Z" fill="#6F7082"/>
<path d="M451.708 210.868H412.405V265.227H451.708V210.868Z" fill="white"/>
<path d="M422.665 210.868H412.405V221.149L422.665 210.868Z" fill="#6F7082"/>
<path d="M443.441 216.961H420.673V218.232H443.441V216.961Z" fill="#6F7082"/>
<path d="M443.441 220.617H420.673V221.887H443.441V220.617Z" fill="#6F7082"/>
<path d="M443.441 224.273H420.673V225.543H443.441V224.273Z" fill="#6F7082"/>
<path d="M443.441 227.928H420.673V229.198H443.441V227.928Z" fill="#6F7082"/>
<path d="M443.441 231.583H420.673V232.853H443.441V231.583Z" fill="#6F7082"/>
<path d="M443.441 235.239H420.673V236.509H443.441V235.239Z" fill="#6F7082"/>
<path d="M443.441 238.894H420.673V240.165H443.441V238.894Z" fill="#6F7082"/>
<path d="M443.441 242.55H420.673V243.82H443.441V242.55Z" fill="#6F7082"/>
<path d="M443.441 246.206H420.673V247.476H443.441V246.206Z" fill="#6F7082"/>
<path d="M443.441 249.86H420.673V251.13H443.441V249.86Z" fill="#6F7082"/>
<path d="M443.441 253.516H420.673V254.786H443.441V253.516Z" fill="#6F7082"/>
<path d="M434.444 257.171H420.673V258.442H434.444V257.171Z" fill="#6F7082"/>
</svg>
