<svg width="399" height="338" viewBox="0 0 399 338" fill="none" xmlns="http://www.w3.org/2000/svg">
<path d="M198.534 36.2229V30.8724C198.534 30.8724 141.225 -12.667 130.906 5.04408C120.586 22.7552 112.154 22.0974 111.557 31.6721C110.451 49.4132 153.123 46.2772 153.123 46.2772L182.804 39.7048C182.804 39.7048 118.785 43.9772 123.351 31.6712C126.545 23.0618 182.804 39.7048 182.804 39.7048L198.534 36.2229Z" fill="#EEEEEE"/>
<path d="M111.538 32.4864C114.752 29.5195 126.67 29.0946 131.482 29.2047C127.087 29.161 124.028 29.8498 123.352 31.6721C118.786 43.9781 182.804 39.7056 182.804 39.7056L153.123 46.278C153.123 46.278 111.772 49.3168 111.538 32.4864Z" fill="#D1D1D1"/>
<path d="M198.535 36.2229V30.8724C198.535 30.8724 255.843 -12.667 266.163 5.04408C276.481 22.7552 284.914 22.0974 285.511 31.6721C286.617 49.4132 243.945 46.2772 243.945 46.2772L214.263 39.7048C214.263 39.7048 278.283 43.9772 273.717 31.6712C270.523 23.0618 214.263 39.7048 214.263 39.7048L198.535 36.2229Z" fill="#EEEEEE"/>
<path d="M285.532 32.4864C282.318 29.5195 270.4 29.0946 265.588 29.2047C269.983 29.161 273.042 29.8498 273.718 31.6721C278.284 43.9781 214.266 39.7056 214.266 39.7056L243.947 46.278C243.947 46.278 285.297 49.3168 285.532 32.4864Z" fill="#D1D1D1"/>
<path d="M240.334 19.8893C231.368 23.5785 222.806 28.2513 214.85 33.7965C212.987 35.0957 211.068 36.4795 208.828 36.8525C206.963 37.1628 202.35 35.9109 204.052 33.6464C205.689 31.4692 209.562 29.7215 211.898 28.3914C217.418 25.2489 223.392 22.9089 229.576 21.466C233.11 20.6408 236.712 20.1095 240.334 19.8893Z" fill="#D1D1D1"/>
<path d="M156.733 19.8893C165.699 23.5785 174.261 28.2513 182.216 33.7965C184.08 35.0957 185.998 36.4795 188.238 36.8525C190.104 37.1628 194.716 35.9109 193.014 33.6464C191.378 31.4692 187.505 29.7215 185.168 28.3914C179.649 25.2489 173.674 22.9089 167.49 21.466C163.957 20.6408 160.356 20.1095 156.733 19.8893Z" fill="#D1D1D1"/>
<path d="M209.498 46.2782H187.57V38.2528C187.57 32.1899 192.479 27.2761 198.534 27.2761C204.589 27.2761 209.498 32.1908 209.498 38.2528V46.2782Z" fill="#EEEEEE"/>
<path d="M198.534 56.1475L121.877 73.1207V53.1961L198.534 36.2228V56.1475Z" fill="#EA3B3B"/>
<path d="M198.533 56.1475L275.19 73.1208V53.1961L198.533 36.2229V56.1475Z" fill="#EA2828"/>
<path d="M121.877 73.1208L198.534 85.2966L275.191 73.1208L198.534 56.1475L121.877 73.1208Z" fill="#D1D1D1"/>
<path d="M146.343 67.7038L198.535 74.228L250.727 67.7038L198.535 56.1475L146.343 67.7038Z" fill="#B6B2BA"/>
<path d="M125.992 312.38L64.9707 327.748V272.234L125.992 256.867V312.38Z" fill="#014689"/>
<path d="M64.9695 327.748L3.94922 312.38V256.867L64.9695 272.234V327.748Z" fill="#0160BD"/>
<path d="M64.9707 272.25L129.068 256.216V244.79L64.9707 260.824V272.25Z" fill="#0160BD"/>
<path d="M64.9703 272.25L0.873047 256.216V244.79L64.9703 260.824V272.25Z" fill="#1C81E6"/>
<path d="M0.873047 244.881L64.9703 231.826L129.068 244.881L64.9703 260.814L0.873047 244.881Z" fill="#3399FF"/>
<path opacity="0.2" d="M3.9502 256.867V260.814L64.9705 276.296L125.992 261.082V256.587L64.9705 272.25L3.9502 256.867Z" fill="black"/>
<path d="M36.2624 320.517L26.0674 317.95V251.092L36.2624 253.678V320.517Z" fill="#FDD14E"/>
<path d="M93.6777 320.517L103.873 317.95V251.092L93.6777 253.678V320.517Z" fill="#FDD14E"/>
<path d="M36.2197 253.643L26.0674 251.013L84.9476 235.895L95.4589 238.037L36.2197 253.643Z" fill="#FDD14E"/>
<path d="M93.7206 253.643L103.873 251.013L44.9936 235.895L34.4814 238.037L93.7206 253.643Z" fill="#FDD14E"/>
<path d="M104.349 223C93.0667 204.47 61.9863 239.601 61.9863 239.601L65.0333 243.188C65.0333 243.188 119.672 248.166 104.349 223ZM68.7364 240.849C68.7364 240.849 95.4703 222.71 100.837 228.936C110.548 240.201 68.7364 240.849 68.7364 240.849Z" fill="#FDD14E"/>
<path d="M65.0751 243.192C65.0987 243.194 65.135 243.197 65.1787 243.201C65.1932 243.202 65.2114 243.204 65.2277 243.205C65.2595 243.207 65.2959 243.21 65.335 243.214C65.3686 243.216 65.4068 243.219 65.4458 243.223C65.4804 243.225 65.5185 243.228 65.5576 243.232C65.6049 243.235 65.6557 243.239 65.7094 243.244C65.7503 243.246 65.7957 243.25 65.8393 243.254C65.902 243.258 65.9647 243.263 66.0338 243.268C66.0847 243.272 66.141 243.276 66.1946 243.28C66.2646 243.285 66.3318 243.29 66.4073 243.295C66.4463 243.297 66.4918 243.3 66.5327 243.303C66.7299 243.316 66.9443 243.33 67.177 243.344C67.2115 243.346 67.2442 243.348 67.2797 243.35C67.396 243.357 67.5195 243.364 67.6431 243.371C67.694 243.374 67.7431 243.377 67.7958 243.38C67.9239 243.387 68.0575 243.395 68.192 243.401C68.2484 243.404 68.3038 243.407 68.361 243.41C68.5001 243.417 68.6427 243.425 68.7881 243.431C68.8445 243.434 68.9008 243.437 68.9581 243.439C69.1162 243.447 69.2761 243.454 69.4415 243.461C69.4842 243.463 69.5278 243.465 69.5715 243.467C69.7532 243.474 69.9368 243.482 70.1267 243.489C70.1376 243.489 70.1503 243.49 70.1612 243.49C71.0254 243.523 71.976 243.55 72.9937 243.568C73.021 243.568 73.0474 243.569 73.0746 243.57C73.3054 243.574 73.5408 243.578 73.7789 243.58C73.8216 243.581 73.8643 243.581 73.9079 243.582C74.1478 243.585 74.3905 243.587 74.6367 243.588C74.6703 243.588 74.704 243.588 74.7385 243.588C74.9993 243.589 75.2619 243.59 75.5291 243.59C75.5336 243.59 75.5373 243.59 75.5418 243.59C77.252 243.588 79.0886 243.552 80.9824 243.464C80.9996 243.463 81.016 243.462 81.0333 243.461C81.3386 243.447 81.6448 243.431 81.9529 243.414C81.9665 243.413 81.9802 243.412 81.9929 243.411C84.2265 243.286 86.5229 243.084 88.7775 242.778C88.7874 242.777 88.7974 242.775 88.8074 242.774C89.1264 242.731 89.4445 242.685 89.7607 242.637C89.7616 242.637 89.7625 242.637 89.7634 242.637C91.6927 242.346 93.5783 241.973 95.353 241.498C95.3548 241.498 95.3567 241.497 95.3576 241.497C95.6456 241.42 95.931 241.34 96.2127 241.258C96.2272 241.253 96.2409 241.249 96.2554 241.245C96.5371 241.162 96.8152 241.077 97.0896 240.989C97.0923 240.988 97.0951 240.987 97.0978 240.986C98.7771 240.447 100.324 239.802 101.673 239.032C101.691 239.022 101.708 239.013 101.725 239.003C101.934 238.883 102.138 238.76 102.336 238.634C102.358 238.62 102.379 238.606 102.401 238.592C102.6 238.465 102.794 238.334 102.982 238.201C102.994 238.192 103.005 238.184 103.016 238.175C104.009 237.466 104.849 236.669 105.504 235.771C105.514 235.758 105.524 235.745 105.534 235.731C105.65 235.57 105.759 235.404 105.863 235.236C105.883 235.204 105.903 235.173 105.922 235.14C106.021 234.977 106.112 234.81 106.198 234.641C106.217 234.603 106.235 234.566 106.253 234.528C106.337 234.356 106.416 234.182 106.487 234.004C106.499 233.975 106.509 233.944 106.52 233.915C106.836 233.097 107.019 232.212 107.049 231.255C101.738 227.233 97.9165 227.661 97.9165 227.661C99.1615 227.761 100.166 228.158 100.837 228.936C103.142 231.61 102.541 233.684 100.289 235.295C100.021 235.487 99.7331 235.672 99.4205 235.851C99.4196 235.851 99.4196 235.852 99.4187 235.852C92.1507 240.005 73.3709 240.725 69.457 240.832C69.2707 240.837 69.118 240.841 69.0017 240.843C68.8854 240.845 68.8063 240.846 68.7663 240.847C68.7463 240.847 68.7363 240.848 68.7363 240.848L65.0342 243.187C65.0351 243.188 65.0487 243.19 65.0751 243.192Z" fill="#D9AE32"/>
<path d="M68.7364 240.849C68.7364 240.849 76.5133 235.575 84.5211 231.691L84.5238 231.687C84.5238 231.687 80.8334 231.284 79.0214 229.966C76.9732 228.475 75.9554 226.941 75.9872 226.543C68.153 232.636 61.9873 239.602 61.9873 239.602L65.0343 243.19L68.7364 240.849Z" fill="#F7C639"/>
<path d="M65.5211 243.188L68.5681 239.601C68.5681 239.601 37.4877 204.47 26.2058 223C10.8828 248.166 65.5211 243.188 65.5211 243.188ZM29.7181 228.936C35.085 222.71 61.8189 240.849 61.8189 240.849C61.8189 240.849 20.0074 240.201 29.7181 228.936Z" fill="#FDD14E"/>
<path d="M65.4812 243.192C65.4576 243.194 65.4203 243.197 65.3776 243.201C65.3631 243.202 65.3449 243.204 65.3294 243.205C65.2976 243.207 65.2613 243.21 65.2222 243.214C65.1886 243.216 65.1504 243.219 65.1113 243.223C65.0768 243.225 65.0386 243.228 64.9996 243.232C64.9523 243.235 64.9014 243.239 64.8478 243.244C64.8069 243.246 64.7615 243.25 64.7179 243.254C64.6552 243.258 64.5924 243.263 64.5234 243.268C64.4725 243.272 64.4162 243.276 64.3625 243.28C64.2926 243.285 64.2253 243.29 64.1499 243.295C64.1108 243.297 64.0654 243.3 64.0245 243.303C63.8273 243.316 63.6128 243.33 63.3802 243.344C63.3457 243.346 63.313 243.348 63.2775 243.35C63.1612 243.357 63.0376 243.364 62.914 243.371C62.8631 243.374 62.8141 243.377 62.7614 243.38C62.6332 243.387 62.4996 243.395 62.3652 243.401C62.3088 243.404 62.2534 243.407 62.1961 243.41C62.0571 243.417 61.9144 243.425 61.769 243.431C61.7127 243.434 61.6563 243.437 61.5991 243.439C61.441 243.447 61.281 243.454 61.1147 243.461C61.072 243.463 61.0284 243.465 60.9848 243.467C60.804 243.474 60.6195 243.482 60.4305 243.489C60.4187 243.489 60.4068 243.49 60.3959 243.49C59.5317 243.523 58.5812 243.55 57.5634 243.568C57.5362 243.568 57.5098 243.569 57.4825 243.57C57.2517 243.574 57.0164 243.578 56.7783 243.58C56.7356 243.581 56.6929 243.581 56.6492 243.582C56.4093 243.585 56.1667 243.587 55.9204 243.588C55.8868 243.588 55.8523 243.588 55.8187 243.588C55.5579 243.589 55.2952 243.59 55.0281 243.59C55.0235 243.59 55.0199 243.59 55.0153 243.59C53.3051 243.588 51.4686 243.552 49.5748 243.464C49.5584 243.463 49.5412 243.462 49.5248 243.461C49.2195 243.447 48.9132 243.431 48.6052 243.414C48.5915 243.413 48.5779 243.412 48.5652 243.411C46.3315 243.286 44.0352 243.084 41.7806 242.778C41.7706 242.777 41.7606 242.775 41.7506 242.774C41.4317 242.731 41.1136 242.685 40.7974 242.637C40.7965 242.637 40.7955 242.637 40.7946 242.637C38.8654 242.346 36.9798 241.973 35.205 241.498C35.2032 241.498 35.2014 241.497 35.1996 241.497C34.9115 241.42 34.6262 241.34 34.3445 241.258C34.3299 241.253 34.3163 241.249 34.3018 241.245C34.0201 241.162 33.742 241.077 33.4676 240.989C33.4648 240.988 33.4621 240.987 33.4594 240.986C31.78 240.447 30.2334 239.802 28.8839 239.032C28.8667 239.022 28.8494 239.013 28.8321 239.003C28.6231 238.883 28.4205 238.76 28.2215 238.634C28.1997 238.62 28.1778 238.606 28.156 238.592C27.957 238.465 27.7635 238.334 27.5754 238.201C27.5635 238.192 27.5526 238.184 27.5408 238.175C26.5485 237.466 25.7079 236.669 25.0536 235.771C25.0436 235.758 25.0336 235.745 25.0236 235.731C24.9073 235.57 24.7983 235.404 24.6947 235.236C24.6747 235.204 24.6556 235.173 24.6356 235.14C24.5375 234.977 24.4457 234.81 24.3603 234.641C24.3412 234.603 24.323 234.566 24.3048 234.528C24.2212 234.356 24.1422 234.182 24.0713 234.004C24.0595 233.975 24.0495 233.944 24.0377 233.915C23.7223 233.097 23.5388 232.212 23.5088 231.255C28.8203 227.233 32.6415 227.661 32.6415 227.661C31.3966 227.761 30.3924 228.158 29.7209 228.936C27.4163 231.61 28.017 233.684 30.2688 235.295C30.5369 235.487 30.825 235.672 31.1376 235.851L31.1394 235.852C38.4074 240.005 57.1872 240.725 61.1011 240.832C61.2874 240.837 61.4401 240.841 61.5564 240.843C61.6727 240.845 61.7518 240.846 61.7917 240.847C61.8117 240.847 61.8217 240.848 61.8217 240.848L65.5239 243.187C65.5212 243.188 65.5075 243.19 65.4812 243.192Z" fill="#D9AE32"/>
<path d="M61.8196 240.849C61.8196 240.849 54.0427 235.575 46.035 231.691L46.0322 231.687C46.0322 231.687 49.7226 231.284 51.5346 229.966C53.5829 228.475 54.6006 226.941 54.5688 226.543C62.403 232.636 68.5687 239.602 68.5687 239.602L65.5217 243.19L61.8196 240.849Z" fill="#F7C639"/>
<path d="M55.4863 243.58L61.2086 245.088C63.6676 245.735 66.2511 245.735 68.7102 245.088L74.0644 243.676C74.0644 243.676 73.6764 235.714 64.9598 235.714C55.8471 235.715 55.4863 243.58 55.4863 243.58Z" fill="#FDD14E"/>
<path d="M395.913 312.38L334.893 327.748V272.234L395.913 256.867V312.38Z" fill="#2AA158"/>
<path d="M334.891 327.748L273.871 312.38V256.867L334.891 272.234V327.748Z" fill="#33CF73"/>
<path d="M334.893 272.25L398.99 256.216V244.79L334.893 260.824V272.25Z" fill="#33CF73"/>
<path d="M334.891 272.25L270.794 256.216V244.79L334.891 260.824V272.25Z" fill="#3AF288"/>
<path d="M270.794 244.881L334.891 231.826L398.988 244.881L334.891 260.814L270.794 244.881Z" fill="#4FF797"/>
<path opacity="0.2" d="M273.871 256.867V260.814L334.891 276.296L395.912 261.082V256.587L334.891 272.25L273.871 256.867Z" fill="black"/>
<path d="M306.183 320.517L295.988 317.95V251.092L306.183 253.678V320.517Z" fill="#0160BD"/>
<path d="M363.601 320.517L373.796 317.95V251.092L363.601 253.678V320.517Z" fill="#0160BD"/>
<path d="M306.141 253.643L295.988 251.013L354.868 235.895L365.38 238.037L306.141 253.643Z" fill="#0160BD"/>
<path d="M363.642 253.643L373.795 251.013L314.915 235.895L304.403 238.037L363.642 253.643Z" fill="#0160BD"/>
<path d="M374.27 223C362.989 204.47 331.908 239.601 331.908 239.601L334.955 243.188C334.955 243.188 389.593 248.166 374.27 223ZM338.657 240.849C338.657 240.849 365.391 222.71 370.758 228.936C380.47 240.201 338.657 240.849 338.657 240.849Z" fill="#0160BD"/>
<path d="M334.995 243.192C335.019 243.194 335.055 243.197 335.099 243.201C335.113 243.202 335.131 243.204 335.147 243.205C335.179 243.207 335.215 243.21 335.254 243.214C335.288 243.216 335.326 243.219 335.366 243.223C335.4 243.225 335.439 243.228 335.478 243.232C335.525 243.235 335.576 243.239 335.629 243.244C335.67 243.246 335.716 243.25 335.759 243.254C335.822 243.258 335.885 243.263 335.954 243.268C336.005 243.272 336.061 243.276 336.115 243.28C336.185 243.285 336.252 243.29 336.327 243.295C336.367 243.297 336.412 243.3 336.453 243.303C336.65 243.316 336.864 243.33 337.097 243.344C337.132 243.346 337.164 243.348 337.2 243.35C337.316 243.357 337.44 243.364 337.563 243.371C337.614 243.374 337.663 243.377 337.716 243.38C337.843 243.387 337.977 243.395 338.112 243.401C338.168 243.404 338.224 243.407 338.281 243.41C338.42 243.417 338.563 243.425 338.708 243.431C338.764 243.434 338.821 243.437 338.878 243.439C339.036 243.447 339.196 243.454 339.362 243.461C339.405 243.463 339.449 243.465 339.492 243.467C339.673 243.474 339.858 243.482 340.048 243.489C340.059 243.489 340.071 243.49 340.082 243.49C340.946 243.523 341.897 243.55 342.915 243.568C342.942 243.568 342.968 243.569 342.996 243.57C343.226 243.574 343.462 243.578 343.7 243.58C343.742 243.581 343.785 243.581 343.829 243.582C344.069 243.585 344.311 243.587 344.558 243.588C344.591 243.588 344.626 243.588 344.659 243.588C344.92 243.589 345.183 243.59 345.45 243.59C345.455 243.59 345.458 243.59 345.463 243.59C347.173 243.588 349.009 243.552 350.903 243.464C350.92 243.463 350.937 243.462 350.953 243.461C351.259 243.447 351.565 243.431 351.873 243.414C351.887 243.413 351.9 243.412 351.913 243.411C354.147 243.286 356.443 243.084 358.697 242.778C358.707 242.777 358.717 242.775 358.727 242.774C359.046 242.731 359.364 242.685 359.681 242.637C359.682 242.637 359.682 242.637 359.683 242.637C361.613 242.346 363.498 241.973 365.273 241.498C365.275 241.498 365.277 241.497 365.278 241.497C365.566 241.42 365.851 241.34 366.133 241.258C366.147 241.253 366.161 241.249 366.175 241.245C366.457 241.162 366.735 241.077 367.01 240.989C367.012 240.988 367.015 240.987 367.018 240.986C368.697 240.447 370.244 239.802 371.593 239.032C371.61 239.022 371.628 239.013 371.645 239.003C371.854 238.883 372.058 238.76 372.256 238.634C372.278 238.62 372.299 238.606 372.321 238.592C372.52 238.465 372.714 238.334 372.902 238.201C372.914 238.192 372.925 238.184 372.936 238.175C373.929 237.466 374.769 236.669 375.424 235.771C375.434 235.758 375.444 235.745 375.453 235.731C375.57 235.57 375.679 235.404 375.783 235.236C375.803 235.204 375.822 235.173 375.842 235.14C375.941 234.977 376.032 234.81 376.118 234.641C376.137 234.603 376.155 234.566 376.173 234.528C376.257 234.356 376.336 234.182 376.407 234.004C376.419 233.975 376.429 233.944 376.44 233.915C376.756 233.097 376.939 232.212 376.969 231.255C371.658 227.233 367.837 227.661 367.837 227.661C369.081 227.761 370.086 228.158 370.757 228.936C373.062 231.61 372.461 233.684 370.209 235.295C369.941 235.487 369.653 235.672 369.34 235.851L369.34 235.852C362.071 240.005 343.291 240.725 339.378 240.832C339.192 240.837 339.039 240.841 338.923 240.843C338.806 240.845 338.727 240.846 338.687 240.847C338.667 240.847 338.657 240.848 338.657 240.848L334.955 243.187C334.955 243.188 334.968 243.19 334.995 243.192Z" fill="#014689"/>
<path d="M338.657 240.849C338.657 240.849 346.434 235.575 354.442 231.691L354.445 231.687C354.445 231.687 350.754 231.284 348.942 229.966C346.894 228.475 345.876 226.941 345.908 226.543C338.074 232.636 331.908 239.602 331.908 239.602L334.955 243.19L338.657 240.849Z" fill="#014689"/>
<path d="M335.443 243.188L338.49 239.601C338.49 239.601 307.409 204.47 296.127 223C280.805 248.166 335.443 243.188 335.443 243.188ZM299.641 228.936C305.008 222.71 331.741 240.849 331.741 240.849C331.741 240.849 289.929 240.201 299.641 228.936Z" fill="#0160BD"/>
<path d="M335.402 243.192C335.378 243.194 335.342 243.197 335.298 243.201C335.284 243.202 335.266 243.204 335.25 243.205C335.218 243.207 335.182 243.21 335.143 243.214C335.109 243.216 335.071 243.219 335.031 243.223C334.997 243.225 334.959 243.228 334.92 243.232C334.872 243.235 334.821 243.239 334.768 243.244C334.727 243.246 334.681 243.25 334.638 243.254C334.575 243.258 334.512 243.263 334.443 243.268C334.392 243.272 334.336 243.276 334.282 243.28C334.212 243.285 334.145 243.29 334.07 243.295C334.031 243.297 333.985 243.3 333.944 243.303C333.747 243.316 333.533 243.33 333.3 243.344C333.265 243.346 333.233 243.348 333.197 243.35C333.081 243.357 332.958 243.364 332.834 243.371C332.783 243.374 332.734 243.377 332.681 243.38C332.553 243.387 332.42 243.395 332.285 243.401C332.229 243.404 332.173 243.407 332.116 243.41C331.977 243.417 331.834 243.425 331.689 243.431C331.634 243.434 331.576 243.437 331.519 243.439C331.361 243.447 331.201 243.454 331.035 243.461C330.992 243.463 330.948 243.465 330.905 243.467C330.724 243.474 330.539 243.482 330.35 243.489C330.339 243.489 330.327 243.49 330.316 243.49C329.452 243.523 328.501 243.55 327.483 243.568C327.456 243.568 327.43 243.569 327.402 243.57C327.172 243.574 326.936 243.578 326.698 243.58C326.656 243.581 326.613 243.581 326.569 243.582C326.329 243.585 326.087 243.587 325.84 243.588C325.807 243.588 325.772 243.588 325.739 243.588C325.478 243.589 325.215 243.59 324.948 243.59C324.943 243.59 324.94 243.59 324.935 243.59C323.224 243.588 321.389 243.552 319.495 243.464C319.478 243.463 319.461 243.462 319.444 243.461C319.139 243.447 318.832 243.431 318.524 243.414C318.511 243.413 318.497 243.412 318.484 243.411C316.251 243.286 313.954 243.084 311.7 242.778C311.69 242.777 311.68 242.775 311.67 242.774C311.351 242.731 311.033 242.685 310.716 242.637C310.715 242.637 310.715 242.637 310.714 242.637C308.784 242.346 306.899 241.973 305.124 241.498C305.122 241.498 305.12 241.497 305.12 241.497C304.831 241.42 304.546 241.34 304.264 241.258C304.25 241.253 304.236 241.249 304.222 241.245C303.94 241.162 303.662 241.077 303.387 240.989C303.385 240.988 303.382 240.987 303.379 240.986C301.7 240.447 300.153 239.802 298.804 239.032C298.787 239.022 298.769 239.013 298.752 239.003C298.543 238.883 298.34 238.76 298.141 238.634C298.12 238.62 298.098 238.606 298.076 238.592C297.877 238.465 297.683 238.334 297.495 238.201C297.483 238.192 297.473 238.184 297.461 238.175C296.468 237.466 295.628 236.669 294.974 235.771C294.964 235.758 294.954 235.745 294.944 235.731C294.827 235.57 294.718 235.404 294.615 235.236C294.595 235.204 294.575 235.173 294.556 235.14C294.457 234.977 294.366 234.81 294.28 234.641C294.261 234.603 294.243 234.566 294.225 234.528C294.141 234.356 294.062 234.182 293.991 234.004C293.979 233.975 293.969 233.944 293.958 233.915C293.642 233.097 293.459 232.212 293.429 231.255C298.74 227.233 302.561 227.661 302.561 227.661C301.317 227.761 300.312 228.158 299.641 228.936C297.336 231.61 297.937 233.684 300.189 235.295C300.457 235.487 300.745 235.672 301.058 235.851C301.058 235.851 301.058 235.852 301.058 235.852C308.326 240.005 327.107 240.725 331.02 240.832C331.206 240.837 331.359 240.841 331.475 240.843C331.592 240.845 331.671 240.846 331.711 240.847C331.731 240.847 331.741 240.848 331.741 240.848L335.443 243.187C335.442 243.188 335.428 243.19 335.402 243.192Z" fill="#014689"/>
<path d="M331.74 240.849C331.74 240.849 323.964 235.575 315.956 231.691L315.953 231.687C315.953 231.687 319.643 231.284 321.455 229.966C323.504 228.475 324.522 226.941 324.49 226.543C332.324 232.636 338.49 239.602 338.49 239.602L335.443 243.19L331.74 240.849Z" fill="#014689"/>
<path d="M325.408 243.58L331.13 245.088C333.589 245.735 336.173 245.735 338.632 245.088L343.986 243.676C343.986 243.676 343.599 235.714 334.882 235.714C325.769 235.715 325.408 243.58 325.408 243.58Z" fill="#1C81E6"/>
<path d="M279.151 317.143L198.532 337.321V239.533L279.151 219.355V317.143Z" fill="#C21A1A"/>
<path d="M198.532 337.321L117.913 317.143V219.355L198.532 239.533V337.321Z" fill="#EA2828"/>
<path d="M117.913 219.355L198.532 239.533L279.151 219.355L198.532 201.504L117.913 219.355Z" fill="#D1D1D1"/>
<path d="M279.151 219.355L198.532 201.504V239.533L279.151 219.355Z" fill="#B6B2BA"/>
<path d="M161.543 328.063L146.915 324.402V226.613L161.543 230.275V328.063Z" fill="#EEEEEE"/>
<path d="M235.523 328.063L250.15 324.402V226.613L235.523 230.275V328.063Z" fill="#EEEEEE"/>
<path d="M328.056 145.243C270.147 172.069 243.867 228.204 243.867 228.204L256.673 224.999C256.673 224.999 285.681 174.413 349.508 151.852C353.286 150.516 347.691 148.321 337.338 147.102C334.086 146.718 332.663 143.109 328.056 145.243Z" fill="#FDD14E"/>
<path d="M248.262 193.916C233.963 208.186 227.996 226.568 225.666 232.757L234.501 230.546C243.374 211.433 249.245 205.759 260.178 195.75C263.366 192.831 258.243 193.704 255.351 193.03C252.602 192.388 252.35 189.837 248.262 193.916Z" fill="#1C81E6"/>
<path d="M62.0429 143.424C119.954 170.25 146.232 226.385 146.232 226.385L133.426 223.18C133.426 223.18 104.419 172.594 40.5915 150.033C36.813 148.698 42.408 146.502 52.7612 145.283C56.0135 144.9 57.4366 141.291 62.0429 143.424Z" fill="#1C81E6"/>
<path d="M153.641 202.23C164.88 213.445 169.569 227.892 171.4 232.757L164.456 231.019C157.483 215.997 152.868 211.537 144.275 203.671C141.769 201.377 145.796 202.063 148.069 201.533C150.229 201.029 150.428 199.025 153.641 202.23Z" fill="#FDD14E"/>
<path d="M103.169 199.683C104.91 199.683 104.912 196.975 103.169 196.975C101.429 196.975 101.427 199.683 103.169 199.683Z" fill="#EEEEEE"/>
<path d="M294.608 202.109C296.348 202.109 296.351 199.4 294.608 199.4C292.867 199.401 292.864 202.109 294.608 202.109Z" fill="#EEEEEE"/>
<path d="M315.956 121.623C322.918 121.623 322.93 110.791 315.956 110.791C308.994 110.791 308.983 121.623 315.956 121.623Z" fill="#EEEEEE"/>
<path d="M89.3875 73.3706C96.3493 73.3706 96.3611 62.5385 89.3875 62.5385C82.4258 62.5385 82.4149 73.3706 89.3875 73.3706Z" fill="#EEEEEE"/>
<path d="M65.5242 192.74C69.0046 192.74 69.011 187.324 65.5242 187.324C62.0428 187.324 62.0374 192.74 65.5242 192.74Z" fill="#EEEEEE"/>
<path d="M312.781 65.1734C316.262 65.1734 316.268 59.7573 312.781 59.7573C309.3 59.7564 309.294 65.1734 312.781 65.1734Z" fill="#EEEEEE"/>
<path d="M339.438 127.04C342.92 127.04 342.925 121.624 339.438 121.624C335.957 121.623 335.951 127.04 339.438 127.04Z" fill="#EEEEEE"/>
<path d="M79.2537 130.224C82.735 130.224 82.7405 124.808 79.2537 124.808C75.7723 124.807 75.7669 130.224 79.2537 130.224Z" fill="#EEEEEE"/>
<path d="M328.534 199.824C332.015 199.824 332.021 194.408 328.534 194.408C325.053 194.407 325.047 199.824 328.534 199.824Z" fill="#EEEEEE"/>
<path d="M61.9744 51.8291C65.4548 51.8291 65.4612 46.4131 61.9744 46.4131C58.493 46.4131 58.4876 51.8291 61.9744 51.8291Z" fill="#EEEEEE"/>
<path d="M68.3818 102.476C75.539 103.958 77.5954 105.029 81.8728 107.722C82.459 106.781 84.3391 103.465 84.3391 103.465C84.3391 103.465 80.3925 97.535 72.5057 93.9058C71.3752 96.3549 69.6159 99.7576 68.3818 102.476Z" fill="#EA2828"/>
<path d="M372.323 119.767C366.095 121.057 364.305 121.989 360.583 124.331C360.072 123.513 358.437 120.627 358.437 120.627C358.437 120.627 361.871 115.466 368.733 112.308C369.718 114.441 371.249 117.401 372.323 119.767Z" fill="#EA2828"/>
<path d="M334.188 29.9579C330.881 30.6429 329.931 31.1379 327.955 32.3816C327.684 31.9467 326.815 30.4146 326.815 30.4146C326.815 30.4146 328.639 27.6752 332.283 25.9975C332.805 27.1302 333.618 28.7023 334.188 29.9579Z" fill="#EA2828"/>
<path d="M40.9833 174.189C40.9833 174.189 45.7705 175.006 47.7333 175.207C47.7197 173.703 47.3508 172.203 46.6529 170.816C43.1061 170.298 39.6429 169.203 36.1807 168.66C37.6773 170.554 40.9833 174.189 40.9833 174.189Z" fill="#FDD14E"/>
<path d="M105.377 99.1446C105.377 99.1446 108.883 99.7433 110.321 99.8906C110.311 98.7898 110.041 97.6898 109.53 96.6745C106.932 96.2942 104.396 95.4927 101.86 95.0951C102.956 96.4816 105.377 99.1446 105.377 99.1446Z" fill="#2EFFC8"/>
<path d="M14.964 72.0043C14.964 72.0043 18.4699 72.6029 19.9084 72.7503C19.8985 71.6495 19.6286 70.5495 19.1169 69.5342C16.5198 69.1539 13.9826 68.3524 11.4473 67.9548C12.5423 69.3422 14.964 72.0043 14.964 72.0043Z" fill="#FDD14E"/>
<path d="M307.247 90.0447C307.247 90.0447 301.731 91.1747 299.469 91.4531C299.484 89.3733 299.909 87.2971 300.714 85.3792C304.8 84.6614 308.791 83.1475 312.781 82.396C311.057 85.0171 307.247 90.0447 307.247 90.0447Z" fill="#2EB564"/>
<path d="M373.113 60.2177C373.113 60.2177 369.24 61.0111 367.65 61.2067C367.661 59.7464 367.96 58.288 368.525 56.9415C371.394 56.4375 374.197 55.3739 376.999 54.8472C375.787 56.6868 373.113 60.2177 373.113 60.2177Z" fill="#2EB564"/>
<path d="M356.535 172.554C356.535 172.554 353.73 173.129 352.579 173.27C352.587 172.211 352.804 171.156 353.212 170.181C355.291 169.816 357.32 169.046 359.349 168.664C358.472 169.996 356.535 172.554 356.535 172.554Z" fill="#FDD14E"/>
<path d="M313.194 189.964L312.73 184.15L321.502 179.177L326.141 186.439L313.194 189.964Z" fill="#2EFFC8"/>
<path d="M358.783 37.3471L358.437 33L364.997 29.2808L368.466 34.7114L358.783 37.3471Z" fill="#2EFFC8"/>
<path d="M338.246 99.219L337.899 94.872L344.46 91.1527L347.929 96.5833L338.246 99.219Z" fill="#FF7AD0"/>
<path d="M285.522 58.026L285.175 53.6789L291.735 49.9597L295.205 55.3903L285.522 58.026Z" fill="#FDD14E"/>
<path d="M50.5092 118.115L50.8145 114.275L45.0222 110.992L41.958 115.787L50.5092 118.115Z" fill="#FF7AD0"/>
<path d="M45.1556 29.9942L45.461 26.1549L39.6687 22.8705L36.6045 27.666L45.1556 29.9942Z" fill="#FF7AD0"/>
<path d="M19.6019 116.239L19.9082 112.399L14.115 109.115L11.0508 113.91L19.6019 116.239Z" fill="#2EFFC8"/>
<path d="M288.815 151.917L286.648 149.334L289.115 144.045L293.733 145.907L288.815 151.917Z" fill="#2EB564"/>
<path d="M95.5414 53.0566L93.375 50.4737L95.8413 45.185L100.459 47.0483L95.5414 53.0566Z" fill="#2EB564"/>
<path d="M83.2422 209.98L85.4077 207.397L82.9423 202.109L78.3232 203.971L83.2422 209.98Z" fill="#2EB564"/>
<path d="M47.1997 84.4129L45.8429 83.0728C45.4013 82.6361 45.2904 81.9646 45.5676 81.4096L46.4209 79.7038C47.0424 78.461 45.713 77.149 44.4807 77.7877L42.7887 78.6657C42.238 78.9514 41.5655 78.8495 41.1239 78.4137L39.7672 77.0735C38.7794 76.0982 37.1209 76.958 37.3481 78.3291L37.6589 80.2114C37.7607 80.8246 37.4563 81.4333 36.9047 81.719L35.2126 82.5969C33.9804 83.2365 34.2857 85.0807 35.6579 85.2881L37.5426 85.5738C38.156 85.6666 38.6403 86.1452 38.7412 86.7575L39.052 88.6398C39.2783 90.0109 41.1248 90.2902 41.7464 89.0483L42.5997 87.3424C42.8777 86.7866 43.4811 86.4736 44.0954 86.5664L45.9801 86.8521C47.3514 87.0604 48.1884 85.3891 47.1997 84.4129Z" fill="#EEEEEE"/>
<path d="M365.089 198.086L365.832 195.902C366.073 195.19 366.745 194.716 367.495 194.726L369.799 194.758C371.477 194.782 372.204 192.642 370.86 191.636L369.015 190.254C368.414 189.804 368.171 189.017 368.412 188.307L369.155 186.122C369.695 184.532 367.887 183.178 366.517 184.147L364.634 185.477C364.02 185.91 363.199 185.899 362.597 185.449L360.752 184.067C359.408 183.061 357.564 184.364 358.06 185.968L358.742 188.172C358.963 188.89 358.699 189.669 358.085 190.102L356.203 191.432C354.831 192.4 355.499 194.56 357.177 194.582L359.481 194.614C360.232 194.624 360.89 195.117 361.112 195.835L361.793 198.039C362.291 199.645 364.548 199.676 365.089 198.086Z" fill="#EEEEEE"/>
<path d="M340.831 62.07L341.505 60.0875C341.725 59.4416 342.335 59.0112 343.016 59.0203L345.108 59.0495C346.631 59.0704 347.291 57.128 346.071 56.2145L344.395 54.9599C343.85 54.5514 343.629 53.8381 343.848 53.1922L344.522 51.2088C345.013 49.7649 343.372 48.5358 342.127 49.4156L340.418 50.6229C339.861 51.0159 339.115 51.0059 338.569 50.5974L336.894 49.3428C335.674 48.4294 333.999 49.6121 334.449 51.0696L335.068 53.0703C335.27 53.7217 335.029 54.4295 334.473 54.8225L332.763 56.0298C331.518 56.9087 332.126 58.8693 333.649 58.8902L335.74 58.9194C336.422 58.9285 337.019 59.3761 337.221 60.0275L337.84 62.0281C338.29 63.4856 340.34 63.5148 340.831 62.07Z" fill="#EEEEEE"/>
<path d="M34.0571 196.225L32.554 194.476C32.0642 193.907 31.997 193.087 32.3868 192.445L33.5827 190.473C34.4542 189.037 32.9811 187.324 31.4336 187.973L29.3081 188.864C28.6156 189.154 27.8159 188.965 27.3261 188.395L25.8231 186.646C24.7281 185.374 22.6462 186.246 22.7843 187.92L22.9742 190.219C23.036 190.968 22.6089 191.671 21.9174 191.962L19.7919 192.853C18.2443 193.502 18.4297 195.754 20.0636 196.14L22.3063 196.67C23.0369 196.843 23.5731 197.466 23.6349 198.215L23.8248 200.514C23.9629 202.188 26.1602 202.707 27.0317 201.271L28.2285 199.3C28.6183 198.658 29.3762 198.34 30.1068 198.512L32.3496 199.042C33.9798 199.429 35.1521 197.498 34.0571 196.225Z" fill="#EEEEEE"/>
<path d="M207.728 207.068C240.319 202.013 262.647 171.463 257.597 138.833C252.548 106.203 222.034 83.8497 189.443 88.9049C156.851 93.9602 134.524 124.51 139.573 157.14C144.623 189.77 175.137 212.124 207.728 207.068Z" fill="#F2BD50"/>
<path d="M198.585 100.684C172.486 100.684 151.329 121.866 151.329 147.995C151.329 174.124 172.486 195.306 198.585 195.306C224.683 195.306 245.84 174.124 245.84 147.995C245.84 121.866 224.683 100.684 198.585 100.684ZM198.585 187.632C176.719 187.632 158.994 169.886 158.994 147.995C158.994 126.104 176.72 108.358 198.585 108.358C220.449 108.358 238.175 126.104 238.175 147.995C238.175 169.886 220.45 187.632 198.585 187.632Z" fill="#FEE4A6"/>
<path d="M202.244 187.48C224.017 185.466 240.037 166.161 238.026 144.362C236.014 122.563 216.732 106.525 194.959 108.539C173.186 110.552 157.166 129.857 159.177 151.656C161.189 173.455 180.471 189.493 202.244 187.48Z" fill="#F2BD50"/>
<g opacity="0.45">
<path d="M151.338 148C151.338 149.213 151.385 150.414 151.474 151.603H138.986C138.913 150.41 138.877 149.211 138.877 148C138.877 146.789 138.912 145.59 138.986 144.397H151.474C151.385 145.586 151.338 146.788 151.338 148Z" fill="white"/>
<path d="M154 132.294V132.296C153.21 134.544 152.587 136.867 152.141 139.258L140.074 136.021C140.556 133.647 141.177 131.321 141.934 129.058L154 132.294Z" fill="white"/>
<path d="M154 163.672V163.675L141.934 166.911C141.177 164.647 140.556 162.322 140.074 159.947L152.141 156.712C152.587 159.101 153.211 161.425 154 163.672Z" fill="white"/>
<path d="M159.58 174.69L148.762 180.942C147.442 178.943 146.235 176.862 145.159 174.705L155.975 168.453C157.022 170.63 158.229 172.713 159.58 174.69Z" fill="white"/>
<path d="M159.58 121.277C158.229 123.254 157.022 125.337 155.975 127.513L145.159 121.261C146.236 119.105 147.442 117.023 148.762 115.024L159.58 121.277Z" fill="white"/>
<path d="M167.813 183.89L158.981 192.733C157.184 191.138 155.485 189.436 153.892 187.637L162.724 178.795L167.813 183.89Z" fill="white"/>
<path d="M167.813 112.086C165.992 113.652 164.288 115.357 162.724 117.181L153.892 108.339C155.485 106.54 157.184 104.838 158.981 103.243L167.813 112.086Z" fill="white"/>
<path d="M178.146 190.654L171.901 201.482C169.747 200.405 167.668 199.196 165.672 197.875L171.917 187.044C173.891 188.397 175.972 189.605 178.146 190.654Z" fill="white"/>
<path d="M178.135 105.329C175.961 106.377 173.881 107.585 171.906 108.94L165.659 98.11C167.656 96.786 169.736 95.5798 171.891 94.5004L178.135 105.329Z" fill="white"/>
<path d="M189.87 194.503L186.638 206.584C184.266 206.102 181.944 205.48 179.683 204.722L182.917 192.641L189.87 194.503Z" fill="white"/>
<path d="M189.87 101.477C187.482 101.924 185.162 102.548 182.917 103.339H182.915L179.683 91.2578C181.944 90.5003 184.266 89.8783 186.638 89.3962L189.87 101.477Z" fill="white"/>
<path d="M202.188 88.319V100.822C201.001 100.733 199.801 100.687 198.59 100.687C197.379 100.687 196.178 100.733 194.991 100.822V88.319C196.183 88.246 197.38 88.2099 198.59 88.2099C199.799 88.2108 200.996 88.246 202.188 88.319Z" fill="white"/>
<path d="M198.59 195.296C199.801 195.296 201.001 195.249 202.188 195.16V207.663C200.996 207.736 199.799 207.772 198.59 207.772C197.38 207.772 196.183 207.737 194.991 207.663V195.16C196.178 195.249 197.379 195.296 198.59 195.296Z" fill="white"/>
<path d="M217.498 204.722C215.237 205.48 212.914 206.102 210.543 206.584L207.311 194.503C209.695 194.056 212.018 193.432 214.263 192.641L217.498 204.722Z" fill="white"/>
<path d="M217.498 91.2578L214.266 103.339H214.263C212.018 102.548 209.697 101.924 207.311 101.477L210.543 89.3962C212.914 89.8783 215.237 90.5003 217.498 91.2578Z" fill="white"/>
<path d="M231.513 197.875C229.516 199.196 227.437 200.405 225.283 201.482L219.038 190.654C221.212 189.605 223.293 188.397 225.267 187.044L231.513 197.875Z" fill="white"/>
<path d="M231.515 98.11L225.267 108.94C223.293 107.585 221.212 106.377 219.038 105.329L225.283 94.5004C227.438 95.5798 229.519 96.786 231.515 98.11Z" fill="white"/>
<path d="M243.29 187.637C241.697 189.436 239.997 191.138 238.2 192.733L229.368 183.89C231.19 182.324 232.894 180.618 234.458 178.795L243.29 187.637Z" fill="white"/>
<path d="M243.29 108.339L234.458 117.181C232.894 115.357 231.19 113.652 229.368 112.086L238.2 103.243C239.997 104.838 241.697 106.54 243.29 108.339Z" fill="white"/>
<path d="M252.017 174.705C250.939 176.863 249.734 178.946 248.412 180.945L237.595 174.69C238.948 172.713 240.154 170.63 241.202 168.453L252.017 174.705Z" fill="white"/>
<path d="M252.017 121.263L241.202 127.515C240.154 125.339 238.948 123.255 237.595 121.279L248.412 115.024C249.734 117.022 250.939 119.106 252.017 121.263Z" fill="white"/>
<path d="M257.111 159.947C256.629 162.322 256.008 164.647 255.251 166.911L243.185 163.675V163.672C243.975 161.425 244.598 159.101 245.044 156.712L257.111 159.947Z" fill="white"/>
<path d="M257.111 136.021L245.044 139.258L243.185 132.296V132.294L255.251 129.058C256.008 131.321 256.629 133.647 257.111 136.021Z" fill="white"/>
<path d="M258.305 148C258.305 149.211 258.27 150.41 258.197 151.603H245.708C245.797 150.414 245.843 149.213 245.843 148C245.843 146.787 245.797 145.586 245.708 144.397H258.197C258.27 145.59 258.305 146.789 258.305 148Z" fill="white"/>
<g opacity="0.28">
<path d="M152.134 156.714L140.067 159.949C140.548 162.324 141.17 164.649 141.926 166.913L153.993 163.677V163.674C153.203 161.427 152.579 159.103 152.134 156.714ZM141.926 129.051C141.17 131.315 140.548 133.64 140.067 136.015L152.134 139.251C152.579 136.861 153.203 134.537 153.993 132.29V132.287L141.926 129.051ZM158.98 103.234C157.183 104.829 155.483 106.531 153.89 108.33L162.722 117.173C164.286 115.349 165.99 113.643 167.812 112.077L158.98 103.234ZM186.632 89.3949C184.26 89.877 181.937 90.499 179.677 91.2564L182.908 103.337H182.911C185.156 102.546 187.477 101.923 189.864 101.476L186.632 89.3949ZM210.538 89.3949L207.306 101.476C209.693 101.923 212.014 102.546 214.259 103.337H214.262L217.494 91.2564C215.233 90.499 212.91 89.877 210.538 89.3949ZM238.19 103.234L229.358 112.077C231.18 113.643 232.884 115.349 234.448 117.173L243.28 108.33C241.687 106.531 239.987 104.829 238.19 103.234ZM255.244 129.051L243.177 132.287V132.29C243.967 134.537 244.59 136.861 245.036 139.251L257.103 136.015C256.622 133.64 256 131.315 255.244 129.051ZM258.193 144.379H245.704C245.793 145.568 245.84 146.77 245.84 147.982C245.84 149.194 245.793 150.396 245.704 151.585H258.193C258.266 150.392 258.302 149.193 258.302 147.982C258.301 146.771 258.266 145.572 258.193 144.379ZM241.201 168.454C240.153 170.631 238.947 172.714 237.594 174.691L248.411 180.946C249.733 178.947 250.938 176.864 252.016 174.707L241.201 168.454ZM225.263 187.038C223.289 188.391 221.208 189.599 219.034 190.648L225.279 201.476C227.434 200.399 229.512 199.19 231.508 197.869L225.263 187.038ZM171.907 187.038L165.662 197.869C167.658 199.19 169.737 200.399 171.891 201.476L178.136 190.648C175.963 189.599 173.881 188.391 171.907 187.038ZM162.722 178.791L153.89 187.634C155.483 189.433 157.183 191.135 158.98 192.73L167.812 183.887C165.99 182.321 164.286 180.615 162.722 178.791ZM182.911 192.627L179.677 204.708C181.937 205.466 184.26 206.088 186.632 206.57L189.864 194.489C187.479 194.042 185.156 193.417 182.911 192.627ZM214.259 192.627C212.014 193.418 209.691 194.042 207.306 194.489L210.538 206.57C212.91 206.088 215.233 205.466 217.494 204.708L214.259 192.627ZM234.448 178.791C232.884 180.615 231.18 182.321 229.358 183.887L238.19 192.73C239.987 191.135 241.687 189.433 243.28 187.634L234.448 178.791ZM245.036 156.714C244.59 159.104 243.967 161.427 243.177 163.674V163.677L255.244 166.913C256 164.649 256.622 162.324 257.103 159.949L245.036 156.714ZM248.411 115.018L237.594 121.272C238.947 123.249 240.153 125.332 241.201 127.509L252.016 121.256C250.938 119.1 249.733 117.017 248.411 115.018ZM225.278 94.4878L219.033 105.316C221.207 106.365 223.288 107.573 225.262 108.927L231.51 98.0975C229.514 96.7735 227.433 95.5673 225.278 94.4878ZM198.585 88.1957C197.376 88.1957 196.178 88.2309 194.987 88.3048V100.808C196.174 100.719 197.374 100.673 198.585 100.673C199.797 100.673 200.996 100.719 202.183 100.808V88.3048C200.992 88.2309 199.794 88.1957 198.585 88.1957ZM171.892 94.4878C169.737 95.5673 167.656 96.7735 165.66 98.0975L171.907 108.927C173.881 107.573 175.962 106.365 178.136 105.316L171.892 94.4878ZM148.757 115.021C147.437 117.02 146.229 119.101 145.154 121.257L155.969 127.51C157.017 125.333 158.223 123.25 159.575 121.273L148.757 115.021ZM151.466 144.379H138.978C138.905 145.572 138.869 146.771 138.869 147.982C138.869 149.193 138.904 150.392 138.978 151.585H151.466C151.377 150.396 151.33 149.195 151.33 147.982C151.33 146.769 151.377 145.568 151.466 144.379ZM155.969 168.454L145.154 174.707C146.23 176.864 147.437 178.944 148.757 180.943L159.575 174.691C158.223 172.715 157.017 170.632 155.969 168.454ZM198.585 195.292C197.374 195.292 196.174 195.246 194.987 195.157V207.659H202.183V195.157C200.996 195.246 199.796 195.292 198.585 195.292Z" fill="white"/>
<path d="M202.188 88.3048V100.808C201.001 100.719 199.801 100.673 198.59 100.673C197.379 100.673 196.178 100.719 194.991 100.808V88.3048C196.183 88.2317 197.38 88.1957 198.59 88.1957C199.799 88.1966 200.996 88.2317 202.188 88.3048Z" fill="white"/>
<path d="M202.188 207.663V195.16C201.001 195.248 199.801 195.295 198.59 195.295C197.379 195.295 196.178 195.248 194.991 195.16V207.663H202.188Z" fill="white"/>
<path d="M189.87 101.476C187.482 101.923 185.162 102.547 182.917 103.338H182.915L179.683 91.2567C181.944 90.4992 184.266 89.8772 186.638 89.3951L189.87 101.476Z" fill="white"/>
<path d="M217.498 204.708C215.237 205.466 212.914 206.088 210.543 206.57L207.311 194.489C209.695 194.042 212.018 193.418 214.263 192.627L217.498 204.708Z" fill="white"/>
<path d="M178.142 105.341C175.968 106.389 173.887 107.597 171.913 108.952L165.666 98.1222C167.662 96.7982 169.743 95.592 171.898 94.5126L178.142 105.341Z" fill="white"/>
<path d="M231.513 197.901C229.516 199.222 227.437 200.431 225.283 201.508L219.038 190.68C221.212 189.631 223.293 188.423 225.267 187.07L231.513 197.901Z" fill="white"/>
<path d="M167.82 112.071C165.999 113.637 164.295 115.343 162.731 117.167L153.898 108.324C155.492 106.525 157.191 104.824 158.988 103.229L167.82 112.071Z" fill="white"/>
<path d="M243.289 187.623C241.696 189.422 239.996 191.124 238.199 192.719L229.367 183.876C231.189 182.31 232.893 180.604 234.457 178.78L243.289 187.623Z" fill="white"/>
<path d="M159.573 121.289C158.222 123.266 157.015 125.349 155.968 127.525L145.152 121.273C146.229 119.117 147.435 117.035 148.755 115.036L159.573 121.289Z" fill="white"/>
<path d="M252.017 174.718C250.939 176.875 249.734 178.958 248.412 180.957L237.595 174.702C238.948 172.725 240.154 170.642 241.202 168.465L252.017 174.718Z" fill="white"/>
<path d="M153.994 132.292V132.295C153.204 134.543 152.581 136.866 152.134 139.257L140.067 136.02C140.549 133.646 141.17 131.32 141.927 129.057L153.994 132.292Z" fill="white"/>
<path d="M257.103 159.96C256.621 162.334 256 164.659 255.244 166.923L243.177 163.687V163.685C243.967 161.437 244.59 159.113 245.036 156.724L257.103 159.96Z" fill="white"/>
<path d="M151.33 147.986C151.33 149.199 151.377 150.4 151.466 151.588H138.978C138.905 150.395 138.869 149.196 138.869 147.986C138.869 146.775 138.904 145.576 138.978 144.383H151.466C151.377 145.571 151.33 146.773 151.33 147.986Z" fill="white"/>
<path d="M258.298 147.986C258.298 149.196 258.263 150.395 258.189 151.588H245.7C245.789 150.4 245.836 149.199 245.836 147.986C245.836 146.773 245.789 145.572 245.7 144.383H258.189C258.263 145.576 258.298 146.775 258.298 147.986Z" fill="white"/>
<path d="M153.994 163.685V163.687L141.927 166.923C141.17 164.659 140.549 162.334 140.067 159.96L152.134 156.724C152.581 159.113 153.204 161.437 153.994 163.685Z" fill="white"/>
<path d="M257.103 136.02L245.036 139.257L243.177 132.295V132.292L255.244 129.057C256 131.32 256.621 133.646 257.103 136.02Z" fill="white"/>
<path d="M159.573 174.716L148.755 180.968C147.435 178.969 146.228 176.888 145.152 174.731L155.968 168.479C157.015 170.655 158.222 172.739 159.573 174.716Z" fill="white"/>
<path d="M252.017 121.275L241.202 127.528C240.154 125.351 238.948 123.268 237.595 121.291L248.412 115.037C249.734 117.035 250.939 119.118 252.017 121.275Z" fill="white"/>
<path d="M167.82 183.876L158.988 192.719C157.191 191.124 155.492 189.422 153.898 187.623L162.731 178.78L167.82 183.876Z" fill="white"/>
<path d="M243.289 108.324L234.457 117.167C232.893 115.343 231.189 113.637 229.367 112.071L238.199 103.229C239.996 104.824 241.696 106.525 243.289 108.324Z" fill="white"/>
<path d="M178.14 190.68L171.895 201.508C169.741 200.431 167.662 199.222 165.666 197.901L171.911 187.07C173.885 188.423 175.966 189.631 178.14 190.68Z" fill="white"/>
<path d="M231.515 98.1226L225.267 108.953C223.293 107.598 221.212 106.39 219.038 105.341L225.283 94.5129C227.438 95.5924 229.519 96.7986 231.515 98.1226Z" fill="white"/>
<path d="M189.87 194.489L186.638 206.57C184.266 206.088 181.944 205.466 179.683 204.708L182.917 192.627L189.87 194.489Z" fill="white"/>
<path d="M217.498 91.2567L214.266 103.338H214.263C212.018 102.547 209.697 101.923 207.311 101.476L210.543 89.3951C212.914 89.8772 215.237 90.4992 217.498 91.2567Z" fill="white"/>
</g>
</g>
<path d="M202.431 169.991V179.529H194.15V169.929C188.297 169.118 182.63 166.687 178.459 163.258L182.88 154.344C187.363 158.208 194.15 160.952 198.695 160.952C202.057 160.952 204.174 159.705 204.174 157.398C204.174 149.98 181.198 154.469 181.198 139.008C181.198 132.089 186.18 127.289 194.15 125.98V116.816H202.431V125.918C207.536 126.479 212.393 128.224 216.067 130.593L211.771 139.631C207.164 137.013 201.31 134.956 197.699 134.956C194.959 134.956 193.153 135.954 193.153 137.948C193.153 145.18 216.129 141.065 216.129 156.774C216.128 164.442 210.275 168.931 202.431 169.991Z" fill="white"/>
</svg>
