<svg width="834" height="500" viewBox="0 0 834 500" fill="none" xmlns="http://www.w3.org/2000/svg">
<path d="M256.778 499.336H31.7948C30.7599 499.336 29.9199 498.497 29.9199 497.461C29.9199 496.426 30.7599 495.586 31.7948 495.586H256.778C257.813 495.586 258.653 496.426 258.653 497.461C258.653 498.497 257.813 499.336 256.778 499.336Z" fill="#444444"/>
<path d="M518.009 499.336H293.025C291.99 499.336 291.15 498.497 291.15 497.461C291.15 496.426 291.99 495.586 293.025 495.586H518.009C519.043 495.586 519.883 496.426 519.883 497.461C519.883 498.497 519.043 499.336 518.009 499.336Z" fill="#444444"/>
<path d="M780.491 499.336H555.508C554.473 499.336 553.633 498.497 553.633 497.461C553.633 496.426 554.473 495.586 555.508 495.586H780.491C781.526 495.586 782.366 496.426 782.366 497.461C782.366 498.497 781.526 499.336 780.491 499.336Z" fill="#444444"/>
<path d="M456.93 327.945L364.949 446.858L371.819 452.374C371.819 452.374 412.113 426.828 417.558 412.135C423.004 397.442 423.004 397.442 423.004 397.442C423.004 397.442 468.027 372.161 485.267 350.698C501.732 329.319 478.62 318.528 478.62 318.528L456.93 327.945Z" fill="#FFB700"/>
<path d="M374.709 309.891C374.709 309.891 366.532 306.386 366.144 307.945C365.755 309.502 367.312 310.671 367.312 310.671C367.312 310.671 361.861 309.892 361.861 312.228C361.861 314.563 367.312 317.289 370.427 316.121C373.54 314.952 375.098 311.838 374.709 309.891Z" fill="#F9B08D"/>
<path d="M458.719 236.054C458.719 236.054 451.283 238.646 446.092 252.142C440.901 265.638 428.961 287.439 421.693 290.553C414.425 293.668 374.969 303.53 372.374 306.126C369.778 308.722 370.817 314.432 372.893 316.507C374.969 318.583 424.289 310.797 434.152 306.126C444.016 301.455 462.186 273.943 466.858 263.043C471.53 252.142 464.077 238.134 458.719 236.054Z" fill="#444444"/>
<path d="M366.923 447.572C366.923 447.572 352.55 446.74 348.853 448.841C346.38 450.957 365.313 455.458 367.763 455.485C369.614 454.282 372.375 450.687 372.375 450.687L366.923 447.572Z" fill="#444444"/>
<path d="M459.199 487.413L461.535 492.863C461.535 492.863 468.155 497.924 468.543 499.481C468.543 500.65 451.801 499.481 451.801 499.481C451.801 499.481 452.283 487.528 454.573 484.94C456.863 482.352 459.199 487.413 459.199 487.413Z" fill="#444444"/>
<path d="M513.035 325.212C513.035 325.212 520.806 338.984 510.215 361.549C499.623 384.114 490.515 410.694 490.515 410.694C490.515 410.694 490.537 430.012 483.397 445.934C476.258 461.855 460.901 488.597 460.901 488.597C460.901 488.597 456.144 488.072 453.798 485.718C451.452 483.363 469.131 410.942 470.923 403.436C472.714 395.93 475.458 339.76 480.87 327.159C486.282 314.558 507.15 314.368 513.035 325.212Z" fill="#FFB700"/>
<path d="M453.691 246.319C453.691 246.319 447.697 275.241 453.921 318.86C453.776 322.047 451.23 327.861 453.775 332.082C456.32 336.304 495.102 346.281 514.64 328.012C515.697 324.866 515.014 319.817 515.014 319.817C515.014 319.817 519.367 254.327 517.238 241.001C512.665 231.213 484.913 229.493 484.913 229.493C484.913 229.493 466.173 232.744 458.722 236.055C454.002 239.49 453.877 242.222 453.691 246.319Z" fill="#444444"/>
<path d="M475.588 221.121L476.305 235.451C476.395 237.243 477.718 238.744 479.491 239.019C482.27 239.45 486.491 239.417 490.177 236.531C491.298 235.654 491.78 234.187 491.48 232.794C490.038 226.107 487.464 212.398 487.464 212.398L475.588 221.121Z" fill="#F9A47C"/>
<path d="M468.176 205.935C468.176 205.935 464.303 224.641 467.541 229.664C470.605 233.094 486.974 225.392 488.577 220.377C490.181 215.361 494.567 206.278 487.492 200.598C480.418 194.92 472.562 196.853 468.176 205.935Z" fill="#F9B08D"/>
<path d="M492.556 304.829C492.556 304.829 487.105 304.569 485.806 304.569C484.509 304.569 478.798 308.203 479.836 309.501C480.875 310.798 487.105 310.28 487.105 310.28C487.105 310.28 489.959 312.356 491.517 311.318C493.074 310.28 495.67 308.203 495.67 308.203L492.556 304.829Z" fill="#F9B08D"/>
<path d="M512.542 236.311C512.542 236.311 519.161 239.815 524.222 246.044C529.284 252.272 546.805 284.585 544.858 295.096C542.911 305.608 495.409 312.226 495.409 312.226C495.409 312.226 491.904 306.386 491.516 302.883C491.904 300.936 521.496 289.258 523.055 286.922C524.612 284.586 509.427 268.235 509.427 268.235C509.427 268.235 500.082 258.892 500.471 249.159C500.861 239.425 509.427 234.364 512.542 236.311Z" fill="#444444"/>
<path d="M468.174 205.935C468.174 205.935 464.652 199.328 469.13 195.435C473.608 191.542 481.005 192.321 484.704 196.213C488.402 200.106 488.792 200.69 488.792 200.69C488.792 200.69 491.712 201.274 493.464 204.194C495.217 207.114 491.518 214.511 489.766 216.651C488.014 218.792 488.517 218.848 488.517 218.848L487.43 217.819C487.43 217.819 486.262 212.174 486.456 208.864C486.261 207.112 483.536 204.582 479.837 203.998C476.137 203.414 475.783 206.704 468.174 205.935Z" fill="#444444"/>
<path d="M488.631 214.448C488.631 214.448 489.23 212.062 491.711 212.735C494.2 213.495 491.714 220.643 489.167 220.148C486.696 219.558 488.631 214.448 488.631 214.448Z" fill="#F9B08D"/>
<path d="M490.868 230.082C490.868 230.082 487.494 235.532 483.082 237.089C482.303 237.349 481.524 239.036 481.524 239.036L479.967 236.7C479.967 236.7 476.073 234.753 476.073 231.38L475.555 231.899L475.036 236.31C475.036 236.31 474.906 240.463 475.426 242.02L479.189 239.555C479.189 239.555 482.174 240.463 484.121 239.685C484.121 239.685 485.939 242.799 486.848 243.059C487.756 243.319 492.688 236.96 493.077 234.753C493.596 232.547 492.688 230.34 492.688 230.34L490.868 230.082Z" fill="#AAAAAA"/>
<path d="M381.522 229.261C381.522 229.261 378.896 231.191 378.227 237.173C377.559 243.155 372.584 240.911 370.324 245.105C368.064 249.299 371.245 252.876 367.126 254.768C363.006 256.66 359.349 255.429 357.383 261.436C355.415 267.442 358.494 279.586 367.342 280.722C376.19 281.858 382.904 279.917 387.972 273.076C393.039 266.234 387.442 258.289 389.979 255.129C392.517 251.967 397.963 251.608 399.934 245.861C401.905 240.115 396.273 223.215 381.522 229.261Z" fill="#444444"/>
<path d="M405.042 267.476C406.601 268.318 413.901 268.96 416.349 260.902C418.798 252.843 419.734 219.126 419.734 219.126C419.734 219.126 424.744 185.205 421.792 166.976C421.792 166.976 423.39 165.047 422.052 162.148C420.713 159.248 416.269 153.614 414.378 154.326C412.487 155.037 417.133 164.743 417.133 164.743C417.133 164.743 411.902 205.801 410.97 211.049C410.036 216.298 396.607 262.929 405.042 267.476Z" fill="#B66A5B"/>
<path d="M375.873 271.611L379.527 279.722L386.766 271.023L380.473 267.633L375.873 271.611Z" fill="#B66A5B"/>
<path d="M388.138 254.699C388.138 254.699 385.593 252.737 381.252 253.886C376.911 255.036 351.315 270.171 351.315 270.171C351.315 270.171 351.533 264.199 349.898 257.787C348.264 251.374 342.312 235.272 342.312 235.272C342.312 235.272 345.295 230.335 345.71 229.229C346.124 228.123 346.01 221.019 344.876 221.351C343.743 221.683 343.331 227.835 343.331 227.835C343.331 227.835 337.653 234.914 337.584 236.781C337.516 238.647 337.516 238.647 337.516 238.647C337.516 238.647 340.602 271.836 345.181 279.477C348.211 283.512 376.796 273.531 377.198 272.798C377.598 272.066 389.693 268.397 390.105 262.244C390.518 256.093 388.138 254.699 388.138 254.699Z" fill="#B66A5B"/>
<path d="M404.169 477.068C404.169 477.068 414.392 496.609 414.421 498.166C413.921 499.214 395.477 484.496 395.477 484.496L394.525 489.186L389.258 485.129L394.767 474.125L404.169 477.068Z" fill="#444444"/>
<path d="M413.968 445.221L404.167 477.068L406.914 485.324C406.914 485.324 396.947 479.797 394.805 476.201C394.776 474.644 400.358 439.239 400.358 439.239L413.968 445.221Z" fill="#B66A5B"/>
<path d="M299.31 435.271C299.31 435.271 292.166 456.135 291.056 457.228C289.952 457.586 287.94 434.078 287.94 434.078L283.881 436.615L283.201 430.003L294.978 426.427L299.31 435.271Z" fill="#444444"/>
<path d="M329.165 420.464L299.31 435.271L295.209 442.945C295.209 442.945 292.362 431.91 293.495 427.882C294.605 426.79 324.138 406.475 324.138 406.475L329.165 420.464Z" fill="#B66A5B"/>
<path d="M388.113 252.567L381.385 253.728C381.385 253.728 384.39 265.419 381.909 271.694C379.428 277.968 377.932 277.802 377.932 277.802L383.023 286.405L381.76 302.523C381.76 302.523 406.242 306.747 415.575 306.057L416.251 286.317C416.251 286.317 423.442 282.031 423.866 276.832C424.289 271.634 410.585 260.462 410.585 260.462C410.585 260.462 404.252 254.867 401.637 253.878C399.024 252.887 388.113 252.567 388.113 252.567Z" fill="#EEEEEE"/>
<path d="M387.465 255.013C390.697 260.023 396.295 268.242 398.865 269.151C402.096 255.141 397.629 243.984 397.629 243.984C397.629 243.984 389.76 237.541 388.682 242.211L387.465 255.013Z" fill="#B66A5B"/>
<path d="M401.253 228.77C402.282 230.434 404.853 234.809 406.084 238.849C407.161 242.386 405.173 246.183 401.627 247.229C396.531 248.733 389.203 248.828 387.325 246.226C384.537 242.363 378.214 235.784 382.702 228.911C387.062 222.237 394.072 221.532 400.266 227.524C400.647 227.893 400.973 228.318 401.253 228.77Z" fill="#B66A5B"/>
<path d="M386.733 242.739C386.733 242.739 383.678 240.744 383.222 243.199C382.766 245.653 387.281 247.341 388.016 246.215C388.753 245.09 386.733 242.739 386.733 242.739Z" fill="#B66A5B"/>
<path d="M415.755 301.641L381.959 299.145L379.328 311.394C379.328 311.394 357.592 372.014 353.563 378.838C350.632 383.8 326.73 398.763 313.916 406.55C309.069 409.497 306.867 415.362 308.572 420.772C310.33 426.353 312.651 432.701 314.603 434.581C318.302 438.148 372.281 408.606 377.905 403.83C383.53 399.053 399.15 344.775 399.699 346.322C400.246 347.869 396.887 419.575 394.982 428.955C394.062 433.485 392.691 439.841 391.518 445.202C390.241 451.045 394.01 456.801 399.881 457.952C406.789 459.306 414.858 460.406 416.815 458.666C420.391 455.485 427.739 405.72 429.16 395.621C434.214 359.707 417.257 312.774 417.257 312.774L415.755 301.641Z" fill="#9364ED"/>
<path d="M381.523 229.26C381.523 229.26 385.129 224.133 389.392 223.08C393.656 222.028 398.959 224.463 401.153 227.343C401.762 228.694 392.526 234.704 387.065 234.22C384.535 234.267 382.582 233.913 382.582 233.913C382.582 233.913 386.301 235.013 386.914 236.559C387.526 238.105 386.621 241.821 385.658 242.422C384.695 243.023 380.374 240.961 379.527 237.278C378.681 233.596 379.597 230.464 381.523 229.26Z" fill="#444444"/>
<path d="M426.555 168.184L400.932 147.563" stroke="#F8AAFF" stroke-miterlimit="10"/>
<path d="M403.431 148.188C403.431 148.188 398.432 150.897 397.807 155.271C397.182 159.645 398.223 160.27 398.015 163.603C397.807 166.936 391.975 174.85 391.975 174.85C391.975 174.85 402.39 171.934 406.349 167.143C410.307 162.353 408.432 161.519 409.473 159.436C410.514 157.353 412.807 155.896 412.807 155.896L403.431 148.188Z" fill="#FF0000"/>
<path d="M190.393 207.665L210.667 194.027L205.875 217.986L190.393 207.665Z" fill="#7B29CC"/>
<path d="M157.211 484.583C157.211 484.583 145.803 493.111 143.956 497.208C143.162 500.555 162.132 492.599 164.239 491.097C165.069 488.917 163.902 485.209 163.902 485.209L157.211 484.583Z" fill="#444444"/>
<path d="M175.337 333.773C175.337 333.773 159.156 361.6 154.625 404.961C154.625 404.961 146.21 443.791 153.977 487.15C153.977 487.15 160.449 487.15 164.334 485.855C164.334 485.855 172.101 452.85 172.748 435.376C173.396 417.903 172.101 414.667 172.101 414.667C172.101 414.667 196.049 387.486 203.17 366.131C210.289 344.774 211.584 332.478 211.584 332.478L175.337 333.773Z" fill="#5E1DBB"/>
<path d="M239.482 453.561C239.482 453.561 239.806 467.799 242.072 471.682C244.337 474.27 248.868 454.209 248.868 451.621C247.573 449.678 245.308 448.385 245.308 448.385L239.482 453.561Z" fill="#444444"/>
<path d="M230.355 329.242C230.355 329.242 240.064 351.893 227.765 367.425C215.467 382.956 205.758 398.489 205.758 398.489C205.758 398.489 230.353 405.607 246.535 449.615L240.063 456.734C240.063 456.734 188.282 425.023 181.162 400.431C181.162 400.431 181.162 371.956 196.696 334.421C207.701 316.3 230.355 329.242 230.355 329.242Z" fill="#5E1DBB"/>
<path d="M179.437 245.757C179.437 245.757 160.882 234.971 131.541 229.362C131.541 229.362 122.048 201.75 109.102 191.827C109.102 191.827 106.082 186.218 102.198 186.218C98.3143 186.218 98.7455 193.122 100.04 195.279C101.335 197.436 104.786 199.162 104.786 199.162C104.786 199.162 106.512 236.697 120.32 248.777C131.971 259.563 159.156 272.506 175.985 273.8C191.951 275.096 192.382 251.799 179.437 245.757Z" fill="#F9B08D"/>
<path d="M188.169 247.015C188.169 247.015 181.393 241.653 159.275 235.468C156.311 236.886 143.547 261.27 144.842 266.993C148.007 268.619 163.712 274.922 174.957 273.873C186.203 272.827 201.395 257.456 188.169 247.015Z" fill="#FFB700"/>
<path d="M170.051 256.977C170.051 256.977 165.628 284.59 173.395 325.575C173.395 328.596 171.237 334.205 173.826 338.088C176.414 341.971 213.524 349.736 231.215 331.617C232.078 328.596 231.215 323.851 231.215 323.851C231.215 323.851 232.51 261.723 229.92 249.211C225.173 240.151 198.852 239.72 198.852 239.72C198.852 239.72 181.268 243.602 174.363 247.054C170.051 250.505 170.051 253.093 170.051 256.977Z" fill="#FFB700"/>
<path d="M188.581 230.551L187.784 244.111C187.684 245.807 188.775 247.356 190.416 247.797C192.987 248.488 196.963 248.89 200.729 246.553C201.875 245.842 202.479 244.511 202.34 243.17C201.67 236.728 200.658 223.561 200.658 223.561L188.581 230.551Z" fill="#F9A47C"/>
<path d="M183.168 215.497C183.168 215.497 177.599 232.704 180.13 237.766C182.661 241.309 198.859 235.741 200.884 231.186C202.909 226.631 207.971 218.534 201.896 212.46C195.822 206.388 188.229 207.4 183.168 215.497Z" fill="#F9B08D"/>
<path d="M223.451 244.897C223.451 244.897 264.444 258.271 274.368 276.392C284.293 294.512 263.149 329.459 263.149 329.459C263.149 329.459 264.875 334.204 262.718 335.499C260.561 336.794 257.108 337.656 255.813 335.068C254.519 332.478 256.245 329.028 256.245 329.028C257.54 324.714 257.971 322.988 257.971 322.988C257.971 322.988 257.54 301.415 260.128 290.199C260.128 290.199 226.902 282.433 218.272 274.667C209.643 266.9 204.465 244.465 223.451 244.897Z" fill="#F9B08D"/>
<path d="M219.567 243.169C219.567 243.169 228.197 243.6 248.909 253.523C250.204 256.543 243.731 283.292 238.985 286.744C235.533 285.882 219.568 280.273 211.801 272.075C204.033 263.878 202.738 242.307 219.567 243.169Z" fill="#FFB700"/>
<path d="M182.673 212.969C182.673 212.969 182.578 213.239 182.5 213.646C182.268 214.87 182.187 217.337 185.261 217.499C189.361 217.716 189.361 217.716 189.361 217.716C189.361 217.716 194.323 214.048 198.423 217.932C201.875 221.815 196.697 224.188 197.992 226.129C199.287 228.071 198.854 227.638 198.423 228.717C197.992 229.795 197.992 231.521 195.618 232.816C193.244 234.111 190.871 233.894 188.714 235.404C186.556 236.914 180.515 235.188 179.437 233.894C177.711 232.816 177.927 235.189 177.711 236.699C177.494 238.208 175.122 238.641 178.358 240.582C181.594 242.524 183.753 243.386 186.989 240.798C190.225 238.21 190.441 238.425 194.324 237.346C198.208 236.268 200.538 234.087 201.099 231.402C201.66 228.718 200.798 225.266 201.66 223.972C202.523 222.677 203.817 223.972 203.817 225.481C203.817 226.991 208.565 224.187 208.132 219.656C207.701 215.126 205.327 215.342 204.032 212.753C202.738 210.165 204.464 207.144 200.364 204.771C196.264 202.398 194.539 205.418 192.812 203.909C191.086 202.399 186.124 202.183 183.535 205.418C180.947 208.654 182.578 213.238 182.578 213.238" fill="#444444"/>
<path d="M201.065 224.321C201.065 224.321 201.874 222.136 204.14 223.026C206.406 223.997 203.331 230.469 200.984 229.742C198.719 228.933 201.065 224.321 201.065 224.321Z" fill="#F9B08D"/>
<path d="M178.357 234.542C178.357 234.542 177.495 227.855 181.81 226.991C186.124 226.129 189.362 228.932 190.008 231.305C190.655 233.678 193.244 234.973 193.244 234.973C193.244 234.973 183.751 240.582 178.357 234.542Z" fill="#444444"/>
<path d="M104.081 199.442L96.293 167.491" stroke="black" stroke-miterlimit="10"/>
<path d="M97.897 169.507C97.897 169.507 92.2811 168.615 89.1238 171.707C85.9666 174.797 86.4128 175.927 84.2192 178.445C82.0256 180.963 72.5801 183.696 72.5801 183.696C72.5801 183.696 82.6206 187.718 88.6776 186.323C94.7334 184.929 93.7535 183.128 95.8471 182.108C97.9407 181.088 100.647 181.326 100.647 181.326L97.897 169.507Z" fill="#0EB500"/>
<path d="M97.0001 226.365C97.0001 226.365 92.8404 223.791 90.8593 226.761C88.8782 229.732 90.2656 231.912 90.2656 231.912C90.2656 231.912 86.1059 230.526 83.1336 234.486C80.1626 238.448 83.1336 240.428 80.955 241.814C78.7764 243.202 74.2193 246.172 76.5966 251.322C78.9739 256.472 83.1336 262.414 92.4442 258.849C101.755 255.284 107.103 237.062 107.103 237.062L107.499 231.714L97.0001 226.365Z" fill="#444444"/>
<path d="M108.58 211.233C108.58 211.233 119.78 212.454 119.984 220.599C120.188 228.744 112.654 229.151 112.654 229.151L108.58 211.233Z" fill="#444444"/>
<path d="M112.98 242.871C112.98 242.871 116.15 243.4 118.263 247.36C120.377 251.322 126.715 280.372 126.715 280.372C126.715 280.372 130.941 276.146 136.752 272.977C142.563 269.808 158.41 263.205 158.41 263.205C158.41 263.205 159.995 257.659 160.524 256.603C161.053 255.547 166.335 250.793 166.864 251.849C167.392 252.905 163.166 257.395 163.166 257.395C163.166 257.395 161.845 266.375 160.525 267.696C159.204 269.017 159.204 269.017 159.204 269.017C159.204 269.017 132.791 289.352 124.074 291.2C119.056 291.728 106.906 263.999 107.169 263.207C107.433 262.414 101.887 251.058 106.113 246.569C110.339 242.079 112.98 242.871 112.98 242.871Z" fill="#F98879"/>
<path d="M103.737 382.049C103.737 382.049 103.208 395.253 103.208 402.648C103.208 410.043 96.8684 466.539 96.8684 466.539H86.8317C86.8317 466.539 81.0209 433.811 82.6057 422.719C84.1906 411.627 85.2468 404.76 85.2468 404.76L76.7949 375.182L103.737 382.049Z" fill="#EA6D60"/>
<path d="M62.6324 372.73C62.6324 372.73 63.5748 393.638 63.9936 398.489C63.9936 398.489 58.094 406.761 55.6504 417.092C53.2068 427.424 53.6681 456.755 53.6681 456.755L51.7832 462.898L61.0688 465.202C61.0688 465.202 81.0985 410.095 83.7171 402.451C86.3356 394.807 82.0935 372.661 82.0935 372.661L62.6324 372.73Z" fill="#F98879"/>
<path d="M110.076 240.23L111.445 240.976C113.324 242.001 114.668 243.769 115.141 245.856C115.588 247.833 116.262 250.711 117.207 254.49C119.981 257.66 126.716 263.206 123.15 269.94C119.584 276.674 114.433 277.467 114.433 277.467C114.433 277.467 108.094 288.558 101.754 296.481C101.754 296.481 115.886 354.053 117.998 383.632C111.659 387.33 71.2467 393.932 54.6067 380.858C53.8142 370.558 48.6634 316.288 59.3613 304.403C70.058 292.518 75.2089 288.954 75.2089 288.954C75.2089 288.954 83.6608 263.733 84.4532 258.979C85.2456 254.226 90.6602 244.19 91.4527 241.417C92.2451 238.644 99.7733 239.833 99.7733 239.833L110.076 240.23Z" fill="#CC2A17"/>
<path d="M109.285 233.892C109.285 233.892 113.643 245.38 110.077 259.641C107.466 258.662 101.898 250.157 98.6883 244.975C97.3347 242.79 97.6234 241.62 98.9845 239.438C99.6545 238.364 99.982 235.358 100.173 231.911C101.361 227.157 109.285 233.892 109.285 233.892Z" fill="#EA6D60"/>
<path d="M93.8311 241.419C95.3697 242.297 99.7744 248.153 94.2273 254.491C88.6802 260.829 60.5498 279.448 60.5498 279.448C60.5498 279.448 34.4005 301.632 17.3643 308.762C17.3643 308.762 16.5718 311.139 13.4021 311.536C10.2323 311.932 3.10032 311.139 2.7041 309.159C2.30788 307.178 13.0058 305.989 13.0058 305.989C13.0058 305.989 45.0984 279.844 49.0594 276.278C53.0229 272.713 85.5117 236.665 93.8311 241.419Z" fill="#F98879"/>
<path d="M62.1778 464.461C62.1778 464.461 51.6124 461.556 50.2912 461.556C48.9701 461.556 46.8577 481.1 46.8577 481.1L44.7441 485.853L52.1398 495.096C52.1398 495.096 68.5161 497.473 70.101 496.152C71.6859 494.831 60.593 489.814 60.593 489.814L57.6869 482.683L62.1778 464.461Z" fill="#CC2A17"/>
<path d="M98.7202 465.483C98.7202 465.483 88.1547 465.747 85.7774 466.276L86.5698 489.252C86.5698 489.252 85.5137 494.006 85.5137 495.325C85.5137 496.646 111.663 496.381 112.719 495.854C113.775 495.325 97.399 486.346 97.399 486.346L98.7202 465.483Z" fill="#CC2A17"/>
<path d="M116.091 219.004C116.756 220.844 118.373 225.654 118.748 229.861C119.076 233.543 116.35 236.85 112.665 237.146C107.369 237.571 100.177 236.16 98.8747 233.227C96.9398 228.875 92.1027 221.136 97.9073 215.331C103.544 209.695 110.551 210.445 115.381 217.581C115.677 218.022 115.91 218.504 116.091 219.004Z" fill="#F98879"/>
<path d="M114.275 215.201C114.275 215.201 115.822 223.55 99.1216 228.498L96.9568 229.272C96.9568 229.272 92.7821 224.169 94.9469 218.913C97.1118 213.656 100.669 211.801 103.916 210.718C107.162 209.635 113.193 213.19 114.275 215.201Z" fill="#444444"/>
<path d="M99.0083 229.693C99.0083 229.693 96.4285 227.114 95.4785 229.422C94.5286 231.731 98.6008 234.309 99.5507 233.359C100.502 232.408 99.0083 229.693 99.0083 229.693Z" fill="#F98879"/>
<path d="M738.895 184.038C738.895 184.038 737.267 189.575 746.062 196.416C754.859 203.257 762.026 207.818 765.285 223.128C768.543 238.438 765.936 245.604 765.936 245.604C765.936 245.604 763.655 247.233 761.375 244.301C759.094 241.369 754.859 241.695 754.859 241.695C754.859 241.695 757.465 234.854 756.163 225.407C754.859 215.961 752.904 209.12 746.389 203.582C739.872 198.045 735.963 191.53 738.895 184.038Z" fill="#A6CEFE"/>
<path d="M734.561 242.14C734.561 242.14 742.938 239.448 748.647 248.272C754.358 257.096 754.877 261.768 754.877 261.768L765.26 269.035C765.26 269.035 761.626 277.859 748.127 282.012C734.63 286.165 720.613 275.783 720.613 275.783L724.389 260.769L728.863 246.11L734.561 242.14Z" fill="#444444"/>
<path d="M739.26 278.654C739.26 278.654 738.925 275.458 735.098 273.11C731.271 270.76 702.654 262.674 702.654 262.674C702.654 262.674 707.129 258.712 710.645 253.104C714.161 247.497 721.713 232.08 721.713 232.08C721.713 232.08 727.345 230.834 728.432 230.372C729.518 229.908 734.584 224.924 733.562 224.333C732.539 223.742 727.801 227.688 727.801 227.688C727.801 227.688 718.757 228.461 717.359 229.7C715.961 230.938 715.961 230.938 715.961 230.938C715.961 230.938 694.058 256.066 691.685 264.653C690.854 269.629 717.799 283.436 718.607 283.221C719.414 283.005 730.415 289.23 735.153 285.285C739.891 281.338 739.26 278.654 739.26 278.654Z" fill="#F98879"/>
<path d="M733.072 433.32L738.523 443.441C738.523 443.441 738.523 454.341 739.302 455.12C740.081 455.898 745.531 439.547 745.531 439.028C745.531 438.51 738.782 429.685 738.782 429.685L733.072 433.32Z" fill="#444444"/>
<path d="M752.541 478.48L749.427 490.159L747.869 497.426C747.869 497.426 731.257 495.869 727.363 493.533C727.623 492.236 741.121 489.12 741.121 489.12L744.236 478.479H752.541V478.48Z" fill="#444444"/>
<path d="M744.494 332.88C742.981 333.517 702.444 368.696 698.29 375.444C696.214 381.154 734.63 436.694 734.63 436.694L739.822 429.946C739.822 429.946 733.073 391.016 719.056 382.71C719.056 382.71 744.494 377 759.031 358.314C772.528 340.147 754.357 328.727 744.494 332.88Z" fill="#444444"/>
<path d="M770.45 326.133L774.603 333.4C774.603 333.4 789.528 345.469 782.91 368.437C776.68 389.849 771.618 402.307 771.618 402.307C771.618 402.307 771.618 417.1 766.946 429.169C762.274 441.237 751.761 483.282 751.761 483.282L743.195 481.336L752.151 384.01L752.93 345.469C752.93 345.469 749.036 335.347 753.708 329.507C758.379 323.667 765.389 319.255 770.45 326.133Z" fill="#444444"/>
<path d="M734.561 242.138C734.561 242.138 723.36 243.359 723.156 251.505C722.953 259.65 730.487 260.057 730.487 260.057L734.561 242.138Z" fill="#444444"/>
<path d="M767.93 319.864C767.93 319.864 759.478 294.643 758.685 289.889C757.893 285.135 752.478 275.1 751.686 272.327C750.893 269.554 743.365 270.742 743.365 270.742L733.064 271.138L731.695 271.884C729.816 272.909 728.471 274.677 727.999 276.764C727.551 278.742 726.878 281.62 725.932 285.399C723.158 288.568 716.422 294.114 719.988 300.848C723.554 307.583 728.705 308.375 728.705 308.375C728.705 308.375 735.045 319.467 741.383 327.389L740.079 335.475C740.079 335.475 760.327 339.628 772.267 329.246L767.93 319.864Z" fill="#CC2A17"/>
<path d="M733.855 264.799C733.855 264.799 729.497 276.287 733.063 290.548C735.674 289.569 741.242 281.064 744.452 275.883C745.806 273.697 745.517 272.527 744.157 270.345C743.487 269.272 743.16 266.265 742.968 262.818C741.78 258.065 733.855 264.799 733.855 264.799Z" fill="#EA6D60"/>
<path d="M727.043 249.91C726.378 251.75 724.761 256.56 724.386 260.767C724.059 264.45 726.785 267.756 730.469 268.052C735.765 268.477 742.957 267.066 744.26 264.133C746.194 259.781 751.032 252.042 745.227 246.237C739.59 240.601 732.583 241.351 727.753 248.487C727.457 248.927 727.223 249.41 727.043 249.91Z" fill="#F98879"/>
<path d="M728.86 246.107C728.86 246.107 727.314 254.456 744.014 259.404L746.179 260.178C746.179 260.178 750.353 255.075 748.189 249.819C746.024 244.562 742.466 242.706 739.219 241.624C735.973 240.541 729.942 244.097 728.86 246.107Z" fill="#444444"/>
<path d="M744.131 260.6C744.131 260.6 746.711 258.02 747.661 260.328C748.61 262.637 744.538 265.215 743.588 264.266C742.637 263.316 744.131 260.6 744.131 260.6Z" fill="#F98879"/>
<path d="M753.615 288.001C752.055 288.842 744.756 289.484 742.307 281.426C739.859 273.368 738.922 239.65 738.922 239.65C738.922 239.65 733.913 205.729 736.865 187.501C736.865 187.501 735.266 185.571 736.605 182.672C737.945 179.772 742.387 174.139 744.278 174.85C746.169 175.561 741.523 185.267 741.523 185.267C741.523 185.267 746.754 226.326 747.687 231.573C748.619 236.821 762.049 283.452 753.615 288.001Z" fill="#F98879"/>
<path d="M736.606 182.672C736.606 182.672 746.716 178.173 757.466 193.157C768.218 208.141 774.734 228.338 799.819 223.125C799.819 223.125 801.123 219.216 797.213 217.588C793.304 215.959 792.001 211.073 792.001 211.073C792.001 211.073 786.789 214.005 775.386 206.837C763.983 199.672 760.4 185.012 753.558 181.429C746.714 177.848 735.62 175.118 736.606 182.672Z" fill="#A6CEFE"/>
<path d="M571.1 301.871L569.765 306.014C569.765 306.014 563.818 310.712 563.766 311.856C563.713 313 570.684 319.432 571.845 319.102C573.007 318.772 574.446 312.341 574.446 312.341C576.752 312.064 575.054 307.4 575.054 307.4L577.567 302.546L571.1 301.871Z" fill="#B66A5B"/>
<path d="M578.937 460.917L568.382 466.884L561.006 472.352L563.498 459.091L567.222 459.976L573.927 453.879L578.937 460.917Z" fill="#B66A5B"/>
<path d="M691.425 475.861L695.169 488.107L702.32 491.634L687.06 494.872L686.883 489.035L682.32 477.039L691.425 475.861Z" fill="#B66A5B"/>
<path d="M649.536 316.136C649.536 316.136 638.891 324.152 639.188 346.915C639.985 369.763 660.585 412.981 660.585 412.981C660.585 412.981 669.885 455.845 680.898 476.283L692.874 472.621C692.874 472.621 679.773 400.21 678.701 391.253C677.629 382.296 675.288 331.83 675.288 331.83C675.288 331.83 670.304 309.31 649.536 316.136Z" fill="#CC2A17"/>
<path d="M694.3 470.281L678.348 474.564L680.304 481.346L696.255 477.063L694.3 470.281Z" fill="#B28B8B"/>
<path d="M705.144 491.723L698.848 490.017C698.848 490.017 695.88 488.485 694.414 489.528C692.947 490.572 692.711 493.5 692.711 493.5L686.977 493.825C686.977 493.825 685.881 498.802 686.633 498.928C687.387 499.056 699.231 498.469 699.231 498.469C699.231 498.469 712.337 494.223 714.055 493.222C715.773 492.221 705.144 491.723 705.144 491.723Z" fill="#444444"/>
<path d="M655.571 341.514C655.571 341.514 646.892 405.179 638.404 424.517L578.286 460.905L571.375 452.536C571.375 452.536 603.939 417.713 611.263 412.155C611.263 412.155 609.768 352.708 617.518 337.115C625.267 321.522 655.571 341.514 655.571 341.514Z" fill="#CC2A17"/>
<path d="M624.434 307.067C624.434 307.067 639.382 260.63 646.093 249.223C653.768 241.919 679.726 250.269 679.726 250.269C679.726 250.269 695.676 259.938 701.297 265.623C704.378 270.446 703.516 272.985 702.221 276.793C702.221 276.793 701.849 290.422 680.566 328.03C679.559 330.992 679.805 337.212 675.972 340.158C675.972 340.158 651.446 359.028 613.924 339.048C615.184 336.162 616.699 331.772 616.699 331.772L624.434 307.067Z" fill="#5E1DBB"/>
<path d="M688.037 241.892L685.008 255.633C684.63 257.351 683.106 258.587 681.346 258.565C678.589 258.528 674.513 257.809 671.418 254.418C670.477 253.387 670.25 251.89 670.767 250.593C673.251 244.362 677.973 231.522 677.973 231.522L688.037 241.892Z" fill="#B66A5B"/>
<path d="M697.68 228.413C697.68 228.413 698.378 247.134 694.428 251.465C690.907 254.283 676.332 244.168 675.598 239.058C674.864 233.947 672.102 224.449 679.869 220.108C687.636 215.766 694.918 218.915 697.68 228.413Z" fill="#B66A5B"/>
<path d="M584.224 462.609L575.128 448.824L569.309 452.819L578.404 466.604L584.224 462.609Z" fill="#B28B8B"/>
<path d="M564.629 458.509L562.058 469.174L564.61 469.345L561.59 473.483C561.59 473.483 554.921 482.426 553.497 483.218C552.074 484.01 555.701 467.07 555.701 467.07L559.276 456.574L564.629 458.509Z" fill="#444444"/>
<path d="M701.296 265.624C701.296 265.624 701.526 266.359 701.922 267.656C704.316 275.478 715.54 294.425 712.234 322.301C711.511 328.389 659.664 312.777 659.664 312.777L662.161 302.699L694.157 305.173C694.157 305.173 678.553 289.686 680.055 279.053C681.557 268.421 693.244 257.917 701.526 266.359" fill="#5E1DBB"/>
<path d="M660.127 246.553C660.127 246.553 610.262 244.796 595.258 249.719C584.323 254.827 568.348 303.529 568.348 303.529L577.363 306.997C577.363 306.997 596.413 280.346 601.614 266.824C601.614 266.824 642.001 275.284 653.283 273.759C664.566 272.234 671.57 252.68 660.127 246.553Z" fill="#5E1DBB"/>
<path d="M691.489 257.406C691.489 257.406 684.923 267.299 673.156 262.687C661.39 258.076 662.938 246.426 662.938 246.426C662.938 246.426 667.85 244.866 670.637 245.247C673.423 245.629 672.625 246.357 672.625 246.357C672.625 246.357 682.717 262.18 685.294 253.557C685.593 252.552 689.881 253.512 691.489 257.406Z" fill="#9364ED"/>
<path d="M673.554 259.521C673.554 259.521 630.969 279.751 615.123 233.169L628.63 230.344C628.63 230.344 630.537 247.246 645.57 252.899C660.602 258.55 667.417 251.599 667.417 251.599L673.554 259.521Z" fill="#9364ED"/>
<path d="M700.689 228.778C700.689 228.778 701.036 232.361 696.747 231.401C692.459 230.441 690.748 228.836 689.199 229.274C687.65 229.713 687.534 232.256 685.003 231.886C682.472 231.516 682.807 229.748 680.968 230.939C679.131 232.129 681.836 234.291 679.997 235.48C678.158 236.67 677.881 237.167 677.812 238.693C677.743 240.219 679.015 240.277 677.743 240.219C676.472 240.162 676.842 237.63 676.402 236.081C675.964 234.533 673.94 234.186 673.143 234.914C672.345 235.643 676.021 238.867 675.709 240.127C675.396 241.387 673.085 241.791 671.629 240.196C670.173 238.6 672.761 237.699 671.283 236.613C669.803 235.527 667.78 235.179 668.693 231.909C669.607 228.638 671.363 229.228 671.455 227.193C671.548 225.159 669.328 223.529 671.479 221.08C673.629 218.63 675.571 220.756 676.715 218.005C677.86 215.255 678.495 212.482 682.333 212.146C686.17 211.811 686.355 213.348 688.633 213.706C690.91 214.065 690.494 212.008 694.262 213.198C698.031 214.389 696.655 216.62 697.857 218.203C699.059 219.786 703.66 219.486 703.267 222.526C702.874 225.566 700.689 228.778 700.689 228.778Z" fill="#444444"/>
<path d="M676.51 233.312C676.51 233.312 676.319 230.907 673.81 231.155C671.278 231.483 672.518 238.802 675.063 238.738C677.549 238.57 676.51 233.312 676.51 233.312Z" fill="#B66A5B"/>
<path d="M655.747 303.284C655.747 303.284 650.897 301.022 649.718 300.54C648.541 300.058 642.008 301.231 642.466 302.796C642.926 304.359 648.772 306.205 648.772 306.205C648.772 306.205 650.591 309.151 652.391 308.788C654.191 308.425 657.318 307.506 657.318 307.506L655.747 303.284Z" fill="#B66A5B"/>
<path d="M132.226 130.666L123.624 127.63C122.945 127.39 122.589 126.647 122.829 125.968C123.069 125.289 123.812 124.933 124.491 125.173L133.093 128.209C133.772 128.449 134.128 129.193 133.888 129.871C133.649 130.55 132.904 130.906 132.226 130.666Z" fill="#FFFF78"/>
<path d="M569.226 324.376L560.624 321.34C559.945 321.1 559.589 320.356 559.829 319.677C560.069 318.998 560.812 318.642 561.491 318.882L570.093 321.918C570.772 322.158 571.128 322.902 570.888 323.581C570.648 324.259 569.904 324.616 569.226 324.376Z" fill="#DDDDDD"/>
<path d="M631.208 432.287L624.701 438.679C624.187 439.184 623.362 439.176 622.858 438.663C622.353 438.149 622.361 437.324 622.875 436.821L629.38 430.427C629.894 429.922 630.719 429.93 631.223 430.443C631.728 430.957 631.72 431.782 631.208 432.287Z" fill="#DDDDDD"/>
<path d="M718.085 398.408L711.579 404.802C711.065 405.307 710.24 405.299 709.737 404.786C709.233 404.272 709.239 403.447 709.753 402.943L716.259 396.55C716.772 396.045 717.597 396.053 718.101 396.566C718.606 397.079 718.599 397.903 718.085 398.408Z" fill="#FFFF78"/>
<path d="M34.0112 176.065L28.8591 183.592C28.4528 184.185 27.6417 184.338 27.048 183.932C26.4542 183.526 26.3018 182.715 26.708 182.121L31.8601 174.594C32.2663 174 33.0775 173.848 33.6712 174.254C34.2662 174.66 34.4187 175.471 34.0112 176.065Z" fill="#DDDDDD"/>
<path d="M144.347 265.537L139.195 273.064C138.789 273.658 137.978 273.81 137.384 273.404C136.79 272.998 136.638 272.187 137.044 271.593L142.196 264.066C142.602 263.473 143.413 263.32 144.007 263.726C144.602 264.133 144.755 264.944 144.347 265.537Z" fill="#DDDDDD"/>
<path d="M345.039 270.748L339.886 278.275C339.48 278.868 338.669 279.021 338.075 278.615C337.482 278.209 337.329 277.398 337.735 276.804L342.887 269.277C343.294 268.683 344.105 268.531 344.699 268.937C345.292 269.343 345.445 270.154 345.039 270.748Z" fill="#DDDDDD"/>
<path d="M226.444 107.825L218.398 103.527C217.763 103.188 217.524 102.398 217.863 101.763C218.202 101.128 218.992 100.888 219.627 101.228L227.673 105.527C228.308 105.865 228.548 106.655 228.208 107.29C227.868 107.925 227.079 108.164 226.444 107.825Z" fill="#F8AAFF"/>
<path d="M25.4408 346.087L30.9992 353.32C31.4379 353.891 31.3304 354.708 30.7592 355.147C30.188 355.585 29.3705 355.478 28.9318 354.908L23.3735 347.676C22.9348 347.105 23.0423 346.287 23.6122 345.849C24.1834 345.41 25.0021 345.518 25.4408 346.087Z" fill="#FFFF78"/>
<path d="M793.445 342.614L799.003 349.846C799.442 350.417 799.334 351.234 798.763 351.673C798.192 352.112 797.374 352.004 796.936 351.434L791.377 344.202C790.939 343.631 791.046 342.814 791.616 342.375C792.189 341.936 793.006 342.043 793.445 342.614Z" fill="#FF0000"/>
<path d="M651.833 148.904L657.392 156.136C657.83 156.707 657.723 157.524 657.152 157.963C656.582 158.402 655.763 158.294 655.324 157.724L649.766 150.492C649.327 149.922 649.435 149.104 650.006 148.665C650.577 148.227 651.396 148.334 651.833 148.904Z" fill="#FF0000"/>
<path d="M267.136 175.235L270.377 183.76C270.632 184.433 270.295 185.185 269.622 185.441C268.95 185.696 268.196 185.359 267.941 184.686L264.7 176.161C264.445 175.488 264.783 174.735 265.455 174.48C266.128 174.224 266.88 174.562 267.136 175.235Z" fill="#FFFF78"/>
<path d="M557.31 171.761L560.551 180.286C560.806 180.959 560.469 181.711 559.796 181.967C559.124 182.222 558.37 181.885 558.115 181.212L554.874 172.687C554.619 172.014 554.957 171.262 555.629 171.006C556.302 170.75 557.055 171.088 557.31 171.761Z" fill="#FFFF78"/>
<path d="M313.258 136.057L316.499 144.583C316.755 145.255 316.417 146.008 315.744 146.264C315.072 146.52 314.319 146.181 314.063 145.509L310.822 136.984C310.566 136.311 310.904 135.558 311.577 135.303C312.249 135.046 313.002 135.384 313.258 136.057Z" fill="#81E500"/>
<path d="M333.164 422.803L336.405 431.329C336.66 432.001 336.322 432.754 335.65 433.01C334.977 433.266 334.224 432.927 333.969 432.255L330.728 423.729C330.473 423.057 330.81 422.303 331.483 422.048C332.155 421.792 332.907 422.13 333.164 422.803Z" fill="#DDDDDD"/>
<path d="M506.051 405.428L509.292 413.954C509.548 414.626 509.209 415.38 508.537 415.635C507.865 415.891 507.112 415.552 506.856 414.88L503.615 406.354C503.359 405.682 503.697 404.928 504.37 404.673C505.044 404.417 505.796 404.756 506.051 405.428Z" fill="#7EEDFC"/>
<path d="M242.047 308.699L250.628 311.796C251.305 312.04 251.655 312.787 251.411 313.465C251.166 314.142 250.42 314.492 249.743 314.248L241.162 311.151C240.485 310.907 240.135 310.16 240.378 309.483C240.623 308.805 241.369 308.455 242.047 308.699Z" fill="#7EEDFC"/>
<path d="M807.637 240.136L816.217 243.234C816.895 243.479 817.245 244.225 817.001 244.902C816.757 245.58 816.01 245.93 815.332 245.686L806.752 242.589C806.074 242.345 805.724 241.598 805.968 240.92C806.213 240.243 806.959 239.891 807.637 240.136Z" fill="#7EEDFC"/>
<path d="M436.668 278.356L445.249 281.454C445.926 281.697 446.276 282.445 446.032 283.122C445.789 283.8 445.041 284.15 444.364 283.906L435.783 280.809C435.106 280.565 434.756 279.817 434.999 279.14C435.243 278.463 435.992 278.113 436.668 278.356Z" fill="#9364ED"/>
<path d="M117.101 407.589L124.936 402.917C125.554 402.548 126.354 402.75 126.722 403.369C127.09 403.986 126.888 404.786 126.27 405.156L118.436 409.829C117.817 410.197 117.017 409.995 116.649 409.376C116.28 408.757 116.484 407.957 117.101 407.589Z" fill="#F8AAFF"/>
<path d="M809.522 409.327L817.356 404.655C817.975 404.286 818.775 404.488 819.144 405.106C819.513 405.723 819.31 406.524 818.693 406.892L810.858 411.564C810.24 411.933 809.44 411.73 809.071 411.113C808.702 410.495 808.905 409.695 809.522 409.327Z" fill="#DDDDDD"/>
<path d="M699.187 294.665L707.021 289.993C707.64 289.624 708.44 289.827 708.807 290.444C709.176 291.063 708.973 291.863 708.356 292.232L700.521 296.904C699.903 297.273 699.103 297.07 698.734 296.453C698.367 295.834 698.569 295.033 699.187 294.665Z" fill="#DDDDDD"/>
<path d="M305.628 321.592L313.463 316.92C314.082 316.551 314.881 316.754 315.25 317.373C315.619 317.991 315.416 318.791 314.799 319.16L306.965 323.832C306.346 324.201 305.546 323.998 305.177 323.38C304.807 322.761 305.01 321.961 305.628 321.592Z" fill="#FFFF78"/>
<path d="M554.969 364.156L562.804 359.484C563.422 359.115 564.222 359.318 564.591 359.935C564.96 360.554 564.757 361.354 564.139 361.721L556.304 366.393C555.687 366.762 554.886 366.56 554.518 365.942C554.149 365.325 554.352 364.525 554.969 364.156Z" fill="#F8AAFF"/>
<path d="M445.501 374.581L453.335 369.908C453.954 369.54 454.754 369.742 455.123 370.361C455.491 370.978 455.289 371.779 454.67 372.147L446.836 376.819C446.217 377.188 445.417 376.985 445.048 376.368C444.681 375.749 444.884 374.949 445.501 374.581Z" fill="#FF0000"/>
<path d="M26.5878 259.943L24.2305 262.3L26.5878 264.657L28.9451 262.3L26.5878 259.943Z" fill="#F8AAFF"/>
<path d="M164.908 197.054L162.551 199.411L164.908 201.768L167.265 199.411L164.908 197.054Z" fill="#81E500"/>
<path d="M302.398 228.925L300.041 231.282L302.398 233.639L304.756 231.282L302.398 228.925Z" fill="#81E500"/>
<path d="M147.402 362.019L145.045 364.375L147.402 366.732L149.76 364.375L147.402 362.019Z" fill="#DDDDDD"/>
<path d="M259.898 411.515L257.541 413.872L259.898 416.229L262.256 413.872L259.898 411.515Z" fill="#81E500"/>
<path d="M543.625 336.249L541.268 338.606L543.625 340.963L545.982 338.606L543.625 336.249Z" fill="#81E500"/>
<path d="M237.816 223.004L235.459 225.361L237.816 227.718L240.174 225.361L237.816 223.004Z" fill="#F8AAFF"/>
<path d="M635.504 203.942L633.146 206.299L635.504 208.656L637.861 206.299L635.504 203.942Z" fill="#DDDDDD"/>
<path d="M563.633 243.93L561.275 246.286L563.633 248.643L565.99 246.287L563.633 243.93Z" fill="#81E500"/>
<path d="M526.129 420.889L523.771 423.246L526.129 425.603L528.486 423.246L526.129 420.889Z" fill="#7EEDFC"/>
<path d="M600.496 482.127L598.139 484.484L600.496 486.841L602.853 484.484L600.496 482.127Z" fill="#81E500"/>
<path d="M785.492 293.302L783.135 295.659L785.492 298.016L787.849 295.659L785.492 293.302Z" fill="#81E500"/>
<path d="M827.98 358.41L825.623 360.766L827.98 363.123L830.338 360.767L827.98 358.41Z" fill="#DDDDDD"/>
<path d="M444.885 223.435L442.527 225.792L444.885 228.148L447.242 225.792L444.885 223.435Z" fill="#DDDDDD"/>
<path d="M186.918 460.748L184.561 463.105L186.918 465.462L189.275 463.105L186.918 460.748Z" fill="#81E500"/>
<path d="M24.285 419.502L21.9277 421.859L24.285 424.216L26.6423 421.859L24.285 419.502Z" fill="#81E500"/>
<path d="M296.146 309.533L293.789 311.89L296.146 314.247L298.504 311.89L296.146 309.533Z" fill="#F8AAFF"/>
<path d="M655.976 457.011L653.619 459.368L655.976 461.725L658.334 459.368L655.976 457.011Z" fill="#81E500"/>
<path d="M455.65 393.893L453.293 396.25L455.65 398.607L458.008 396.25L455.65 393.893Z" fill="#F8AAFF"/>
<path d="M594.877 385.152L592.52 387.509L594.877 389.865L597.234 387.509L594.877 385.152Z" fill="#7EEDFC"/>
<path d="M741.111 383.401L738.754 385.758L741.111 388.115L743.469 385.758L741.111 383.401Z" fill="#81E500"/>
<path d="M782.504 444.513L780.146 446.87L782.504 449.227L784.861 446.87L782.504 444.513Z" fill="#81E500"/>
<path d="M706.121 350.164L703.764 352.521L706.121 354.877L708.478 352.521L706.121 350.164Z" fill="#F8AAFF"/>
<path d="M797.049 22.8074C797.049 35.4033 786.836 52.3446 774.239 52.3446C761.641 52.3446 751.428 35.4033 751.428 22.8074C751.428 10.2115 761.641 0 774.239 0C786.836 0 797.049 10.2115 797.049 22.8074Z" fill="#CC2A17"/>
<path d="M773.876 51.8919C773.876 51.8919 772.541 53.9542 772.541 55.1679C773.391 55.6529 776.909 55.6529 777.516 55.1679C777.637 54.5617 775.575 51.6494 775.575 51.6494L773.876 51.8919Z" fill="#CC2A17"/>
<path d="M819.669 48.9382C816.706 59.5771 804.096 71.4832 793.456 68.5213C782.815 65.5595 778.175 48.8495 781.138 38.2106C784.1 27.5717 795.128 21.3494 805.768 24.3112C816.408 27.2731 822.631 38.2994 819.669 48.9382Z" fill="#FFE068"/>
<path d="M793.255 68.0532C793.255 68.0532 791.642 69.4819 791.357 70.5068C791.96 71.1168 794.932 71.9442 795.558 71.6767C795.803 71.193 794.746 68.2482 794.746 68.2482L793.255 68.0532Z" fill="#FFE068"/>
<path d="M778.231 71.8857C782.731 81.9697 780.609 99.1821 770.522 103.682C760.437 108.183 746.207 98.2673 741.706 88.1833C737.205 78.0993 741.732 66.2757 751.819 61.7742C761.904 57.274 773.73 61.8005 778.231 71.8857Z" fill="#0D6943"/>
<path d="M770.068 103.449C770.068 103.449 769.737 105.577 770.171 106.548C771.024 106.633 773.842 105.376 774.153 104.771C774.033 104.242 771.342 102.647 771.342 102.647L770.068 103.449Z" fill="#0D6943"/>
<path d="M26.834 22.8075C26.834 35.4035 37.047 52.3447 49.6448 52.3447C62.2426 52.3447 72.4556 35.4035 72.4556 22.8075C72.4556 10.2116 62.2426 0.00012207 49.6448 0.00012207C37.047 0.00012207 26.834 10.2116 26.834 22.8075Z" fill="#CC2A17"/>
<path d="M50.0101 51.892C50.0101 51.892 51.345 53.9544 51.345 55.168C50.4951 55.653 46.9766 55.653 46.3704 55.168C46.2491 54.5618 48.3115 51.6495 48.3115 51.6495L50.0101 51.892Z" fill="#CC2A17"/>
<path d="M4.21441 48.9383C7.17669 59.5772 19.787 71.4833 30.4275 68.5215C41.0679 65.5596 45.7088 48.8496 42.7453 38.2107C39.7818 27.5719 28.7563 21.3495 18.1159 24.3113C7.47542 27.2732 1.25213 38.2995 4.21441 48.9383Z" fill="#FFE068"/>
<path d="M30.6275 68.0533C30.6275 68.0533 32.2399 69.482 32.5249 70.5069C31.9212 71.1169 28.9501 71.9443 28.3239 71.6768C28.079 71.1931 29.1364 68.2483 29.1364 68.2483L30.6275 68.0533Z" fill="#FFE068"/>
<path d="M45.6541 71.8857C41.1532 81.9697 43.2755 99.1821 53.3623 103.682C63.449 108.183 77.6779 98.2673 82.1801 88.1833C86.681 78.0993 82.1539 66.2757 72.0671 61.7742C61.9804 57.274 50.155 61.8005 45.6541 71.8857Z" fill="#0D6943"/>
<path d="M53.8152 103.449C53.8152 103.449 54.1464 105.577 53.7127 106.548C52.859 106.633 50.0417 105.376 49.7305 104.771C49.8505 104.242 52.5415 102.647 52.5415 102.647L53.8152 103.449Z" fill="#0D6943"/>
<path d="M833.589 499.358C833.365 490.12 825.821 482.696 816.528 482.696C811.256 482.696 806.543 485.088 803.41 488.841C801.617 487.847 799.558 487.277 797.362 487.277C792.551 487.277 788.381 489.999 786.291 493.982C784.996 492.916 783.338 492.276 781.529 492.276C777.528 492.276 774.268 495.412 774.051 499.358H833.589Z" fill="#DDDDDD"/>
<path d="M528.633 498.965C528.509 493.857 524.338 489.753 519.201 489.753C516.286 489.753 513.681 491.076 511.949 493.15C510.958 492.601 509.819 492.286 508.605 492.286C505.945 492.286 503.641 493.791 502.486 495.993C501.77 495.405 500.852 495.05 499.853 495.05C497.641 495.05 495.839 496.783 495.719 498.965H528.633Z" fill="#DDDDDD"/>
<path d="M203.318 499.755C203.488 492.733 209.223 487.089 216.287 487.089C220.296 487.089 223.877 488.906 226.259 491.761C227.622 491.006 229.188 490.572 230.856 490.572C234.514 490.572 237.683 492.641 239.271 495.669C240.256 494.859 241.517 494.371 242.89 494.371C245.931 494.371 248.41 496.755 248.575 499.754H203.318V499.755Z" fill="#DDDDDD"/>
<path d="M0 499.755C0.169987 492.733 5.90456 487.089 12.969 487.089C16.9775 487.089 20.5585 488.906 22.9408 491.761C24.3032 491.006 25.8693 490.572 27.538 490.572C31.1952 490.572 34.3649 492.641 35.9523 495.669C36.9372 494.859 38.1972 494.371 39.5721 494.371C42.6131 494.371 45.0916 496.755 45.2566 499.754H0V499.755Z" fill="#DDDDDD"/>
</svg>
