<svg width="585" height="627" viewBox="0 0 585 627" fill="none" xmlns="http://www.w3.org/2000/svg">
<path d="M34.4539 287.435L36.8882 338.404C36.9308 339.276 37.2636 340.097 37.8187 340.7C38.3739 341.303 39.1097 341.642 39.8764 341.648L120.351 342.323C120.748 342.327 121.141 342.241 121.509 342.071C121.877 341.901 122.211 341.65 122.494 341.333C122.776 341.015 123.001 340.636 123.155 340.219C123.309 339.802 123.389 339.355 123.39 338.903L123.648 299.267C123.651 298.813 123.576 298.363 123.426 297.943C123.276 297.523 123.055 297.141 122.774 296.819C122.494 296.497 122.161 296.241 121.793 296.066C121.426 295.892 121.032 295.802 120.634 295.802H71.1362C70.7406 295.803 70.349 295.714 69.9841 295.54C69.6191 295.366 69.2883 295.111 69.011 294.789L60.4715 285.071C59.9127 284.428 59.1531 284.064 58.3592 284.058L37.4936 283.882C37.0868 283.878 36.6835 283.967 36.3079 284.146C35.9324 284.324 35.5923 284.587 35.3083 284.919C35.0243 285.251 34.8022 285.645 34.6554 286.077C34.5085 286.509 34.44 286.971 34.4539 287.435Z" fill="#AAAAAA"/>
<path d="M123.712 289.781L35.7822 289.046L35.3971 348.924L123.327 349.659L123.712 289.781Z" fill="#F5F5F5"/>
<path d="M28.7487 294.363L35.0599 356.871C35.1163 357.407 35.3424 357.901 35.6958 358.26C36.0491 358.62 36.5054 358.82 36.979 358.823L122.67 359.543C123.159 359.552 123.634 359.347 123.995 358.97C124.357 358.594 124.578 358.074 124.615 357.517L129.329 295.112C129.352 294.808 129.319 294.501 129.234 294.212C129.148 293.923 129.011 293.657 128.83 293.431C128.65 293.205 128.431 293.023 128.187 292.898C127.942 292.774 127.677 292.708 127.409 292.705L30.6807 291.897C30.4069 291.897 30.1361 291.963 29.8862 292.091C29.6363 292.218 29.4128 292.405 29.2304 292.638C29.0481 292.87 28.9109 293.144 28.8279 293.442C28.7448 293.739 28.7179 294.053 28.7487 294.363Z" fill="#AAAAAA"/>
<path d="M399.821 296.242L401.92 340.135C401.953 340.888 402.239 341.598 402.719 342.117C403.198 342.637 403.835 342.926 404.496 342.925L473.791 343.512C474.474 343.512 475.129 343.203 475.612 342.652C476.095 342.101 476.367 341.355 476.367 340.576L476.586 306.416C476.586 305.637 476.314 304.89 475.831 304.339C475.348 303.789 474.693 303.48 474.01 303.48H431.403C431.061 303.482 430.722 303.406 430.405 303.258C430.089 303.109 429.802 302.89 429.561 302.613L422.232 294.128C421.751 293.577 421.098 293.266 420.416 293.262L402.448 293.115C402.091 293.106 401.736 293.182 401.406 293.338C401.076 293.494 400.778 293.726 400.531 294.02C400.284 294.314 400.093 294.663 399.971 295.046C399.849 295.429 399.798 295.836 399.821 296.242Z" fill="#888888"/>
<path d="M476.675 298.264L400.969 297.632L400.637 349.201L476.344 349.834L476.675 298.264Z" fill="#F5F5F5"/>
<path d="M394.914 302.202L400.336 356.019C400.38 356.483 400.573 356.911 400.877 357.222C401.181 357.534 401.576 357.707 401.985 357.707L475.774 358.324C476.195 358.326 476.6 358.147 476.911 357.823C477.221 357.5 477.413 357.055 477.449 356.577L481.506 302.848C481.527 302.586 481.501 302.322 481.428 302.073C481.355 301.823 481.237 301.594 481.082 301.399C480.927 301.204 480.738 301.049 480.527 300.942C480.316 300.835 480.088 300.779 479.857 300.778L396.575 300.074C396.339 300.074 396.106 300.131 395.89 300.241C395.675 300.352 395.483 300.513 395.326 300.714C395.169 300.915 395.051 301.151 394.98 301.408C394.909 301.664 394.886 301.935 394.914 302.202Z" fill="#888888"/>
<path d="M538.178 8.61719H415.032V240.943H538.178V8.61719Z" fill="#777777"/>
<path d="M534.082 8.61719H410.937V240.943H534.082V8.61719Z" fill="#999999"/>
<path d="M528.84 13.3293H416.179V236.23H528.84V13.3293Z" fill="white"/>
<path d="M506.893 42.293H437.624V207.267H506.893V42.293Z" fill="#EBEBEB"/>
<path d="M437.689 148.899C437.534 133.485 449.693 118.438 463.075 116.28C469.515 115.267 476.252 116.706 482.215 113.917C492.867 108.94 496.254 92.8216 506.97 88.0359L507.46 207.267H437.689V148.899Z" fill="#0D6943"/>
<path d="M531.055 306.269C531.055 306.269 520.854 305.432 521.795 331.519C522.735 357.605 525.066 371.477 525.066 371.477C525.066 371.477 524.77 377.261 520.841 376.131C516.913 375.001 509.52 369.364 505.875 373.577C502.23 377.79 503.428 384.631 508.451 392.514C513.474 400.397 523.907 418.116 524.86 419.731C525.813 421.345 526.148 424.267 523.366 423.973C520.584 423.68 501.779 416.428 499.293 426.806C496.807 437.185 513.963 456.519 515.805 458.662C517.647 460.805 517.737 462.185 516.99 463.492C516.243 464.798 510.125 461.671 504.703 459.851C499.28 458.031 492.724 457.018 491.72 463.139C490.715 469.261 498.289 487.171 526.586 506.005L540.2 513.756L553.08 504.39C579.587 482.37 585.525 463.741 583.992 457.767C582.459 451.792 576.019 453.553 570.777 455.976C565.535 458.398 559.739 462.2 558.876 460.981C558.013 459.763 558 458.412 559.636 456.049C561.272 453.685 576.65 432.561 573.263 422.476C569.876 412.391 551.818 421.801 549.061 422.402C546.305 423.004 546.485 420.01 547.207 418.336C547.928 416.663 556.841 397.784 561.143 389.387C565.445 380.99 566.205 374.164 562.045 370.303C557.884 366.442 551.187 372.975 547.374 374.546C543.562 376.116 542.763 370.406 542.763 370.406C542.763 370.406 543.871 356.328 542.518 330.271C541.166 304.214 530.836 306.313 530.836 306.313" fill="#0D6943"/>
<path d="M531.867 329.625C531.867 329.625 531.867 329.816 531.867 330.168C531.867 330.52 531.867 331.093 531.983 331.768C532.06 333.236 532.189 335.277 532.344 337.934C532.653 343.277 533.052 351.028 533.516 360.6C534.456 379.684 535.551 406.108 536.658 435.394C537.766 464.681 538.822 491.075 539.66 510.262C540.085 519.819 540.432 527.555 540.664 532.928C540.78 535.585 540.87 537.655 540.935 539.094C540.935 539.784 540.935 540.312 540.999 540.694V541.252C540.999 541.252 540.999 541.061 540.935 540.694C540.87 540.327 540.935 539.784 540.832 539.094C540.741 537.626 540.626 535.6 540.471 532.943C540.149 527.599 539.75 519.848 539.286 510.277C538.359 491.193 537.264 464.769 536.143 435.409C535.023 406.049 533.992 379.742 533.155 360.541C532.73 350.984 532.382 343.248 532.138 337.875C532.022 335.218 531.932 333.148 531.867 331.709C531.867 331.019 531.867 330.491 531.867 330.109C531.861 329.948 531.861 329.786 531.867 329.625Z" fill="#E0E0E0"/>
<path d="M515.935 381.915C516.244 382.147 516.529 382.417 516.785 382.722C517.3 383.265 518.073 384.073 518.936 385.086C520.739 387.112 523.147 389.989 525.762 393.218L532.421 401.527L534.456 404.023C534.723 404.314 534.961 404.639 535.164 404.992C534.854 404.767 534.569 404.501 534.314 404.199C533.786 403.656 533.026 402.834 532.163 401.821C530.373 399.766 527.99 396.859 525.388 393.629L518.678 385.379L516.643 382.884C516.372 382.596 516.134 382.271 515.935 381.915Z" fill="#E0E0E0"/>
<path d="M536.517 404.478C536.414 404.36 541.386 398.415 547.633 391.266C553.879 384.117 559.019 378.289 559.122 378.406C559.225 378.524 554.24 384.469 548.006 391.618C541.772 398.767 536.62 404.595 536.517 404.478Z" fill="#E0E0E0"/>
<path d="M536.452 449.443C536.743 449.168 537.063 448.936 537.405 448.753L540.071 447.05C542.313 445.582 545.404 443.615 548.753 441.266C552.101 438.917 555.077 436.701 557.228 435.057L559.804 433.134C560.103 432.872 560.427 432.651 560.77 432.473C560.519 432.793 560.234 433.074 559.92 433.31C559.353 433.823 558.516 434.543 557.472 435.409C555.386 437.126 552.436 439.431 549.075 441.765C545.713 444.099 542.57 446.067 540.278 447.417C539.131 448.092 538.191 448.621 537.534 448.959C537.188 449.16 536.826 449.322 536.452 449.443Z" fill="#E0E0E0"/>
<path d="M513.899 433.706C514.233 433.818 514.55 433.986 514.84 434.205C515.432 434.572 516.282 435.101 517.313 435.776C519.386 437.112 522.233 439.006 525.35 441.119C528.467 443.233 531.3 445.186 533.322 446.624L535.705 448.342C536.005 448.543 536.286 448.779 536.542 449.047C536.21 448.932 535.893 448.764 535.602 448.548C535.01 448.195 534.173 447.652 533.129 446.977C531.056 445.641 528.209 443.747 525.092 441.633C521.975 439.519 519.154 437.567 517.119 436.128L514.737 434.411C514.436 434.21 514.156 433.974 513.899 433.706Z" fill="#E0E0E0"/>
<path d="M509.43 473.386C509.845 473.568 510.245 473.789 510.628 474.047L513.796 476.043C516.462 477.746 520.12 480.139 524.1 482.811C528.08 485.482 531.764 487.934 534.404 489.725L537.482 491.883C537.872 492.123 538.239 492.408 538.577 492.734C538.156 492.569 537.754 492.347 537.379 492.074L534.288 490.092C531.635 488.389 527.964 485.996 523.984 483.324C520.004 480.653 516.256 478.172 513.68 476.41L510.589 474.252C510.177 474.01 509.788 473.72 509.43 473.386Z" fill="#E0E0E0"/>
<path d="M538.023 492.059C538.387 491.706 538.785 491.401 539.208 491.149L542.519 488.859C545.314 486.921 549.165 484.22 553.338 481.108C557.511 477.996 561.246 475.104 563.925 472.96L567.106 470.45C567.479 470.115 567.88 469.825 568.304 469.584C567.972 469.973 567.61 470.327 567.222 470.641C566.514 471.287 565.458 472.197 564.144 473.313C561.504 475.529 557.807 478.509 553.621 481.607C549.435 484.704 545.545 487.361 542.699 489.211C541.282 490.136 540.123 490.87 539.311 491.354C538.9 491.63 538.469 491.865 538.023 492.059Z" fill="#E0E0E0"/>
<path d="M558.49 518.835H520.829L533.117 624.884H546.19L558.49 518.835Z" fill="#E0E0E0"/>
<path d="M522.773 531.871C522.821 532.007 522.891 532.132 522.98 532.238C523.219 532.571 523.53 532.828 523.881 532.987C524.532 533.253 525.228 533.346 525.915 533.26C526.603 533.173 527.264 532.909 527.848 532.488C529.368 531.533 530.695 529.654 532.73 528.818C534.991 527.992 537.429 528.049 539.659 528.979C541.925 529.865 544.088 531.063 546.099 532.546C547.782 533.744 549.534 534.813 551.341 535.747C552.572 536.371 553.872 536.801 555.205 537.024C555.568 537.081 555.934 537.11 556.3 537.112C556.545 537.112 556.687 537.112 556.687 537.112C554.904 536.8 553.17 536.202 551.535 535.336C549.763 534.348 548.043 533.246 546.382 532.033C544.345 530.489 542.141 529.251 539.827 528.348C537.471 527.381 534.897 527.35 532.524 528.26C531.518 528.729 530.586 529.383 529.767 530.198C529.086 530.885 528.368 531.522 527.616 532.106C527.087 532.522 526.485 532.803 525.851 532.93C525.218 533.057 524.568 533.026 523.946 532.84C523.507 532.599 523.11 532.271 522.773 531.871Z" fill="#F5F5F5"/>
<path d="M524.152 551.395C524.152 551.395 524.448 550.955 525.04 550.265C525.89 549.301 526.914 548.559 528.042 548.092C529.717 547.388 531.5 547.079 533.284 547.182C535.485 547.376 537.674 547.719 539.84 548.21C542.05 548.695 544.312 548.799 546.55 548.518C548.377 548.256 550.158 547.677 551.831 546.801C552.951 546.217 554.013 545.498 554.999 544.657C555.382 544.375 555.721 544.023 556.004 543.615C554.622 544.661 553.166 545.575 551.651 546.345C550.005 547.132 548.271 547.651 546.499 547.887C544.309 548.116 542.102 547.992 539.943 547.52C537.754 547.021 535.537 546.693 533.309 546.536C531.46 546.47 529.618 546.839 527.9 547.623C526.735 548.156 525.698 548.996 524.873 550.074C524.659 550.372 524.47 550.692 524.306 551.028C524.178 551.263 524.139 551.381 524.152 551.395Z" fill="#F5F5F5"/>
<path d="M554.214 561.848C553.911 561.564 553.56 561.354 553.183 561.231C552.179 560.801 551.124 560.544 550.054 560.468C548.477 560.348 546.894 560.452 545.34 560.776C543.588 561.099 541.707 561.642 539.724 562.127C537.888 562.619 536.007 562.86 534.121 562.846C532.588 562.8 531.077 562.427 529.665 561.745C528.375 561.073 527.225 560.098 526.29 558.882C526.43 559.305 526.645 559.69 526.921 560.013C527.642 560.931 528.518 561.675 529.497 562.2C530.942 562.981 532.51 563.421 534.108 563.492C536.045 563.547 537.979 563.32 539.866 562.817C541.862 562.332 543.73 561.76 545.443 561.349C546.958 561.02 548.498 560.868 550.041 560.893C551.462 561.004 552.865 561.324 554.214 561.848Z" fill="#F5F5F5"/>
<path d="M527.475 576.528C528.629 575.97 529.905 575.827 531.133 576.117C532.473 576.481 533.771 577.028 534.997 577.746C536.56 578.596 538.243 579.123 539.968 579.302C543.119 579.619 546.276 578.786 548.984 576.924C549.793 576.365 550.545 575.705 551.225 574.957C551.486 574.692 551.711 574.385 551.895 574.047C550.875 574.939 549.813 575.767 548.714 576.528C546.047 578.191 543.01 578.921 539.981 578.627C536.413 578.392 533.683 575.97 531.21 575.691C530.256 575.501 529.275 575.597 528.363 575.97C528.031 576.069 527.725 576.26 527.475 576.528Z" fill="#F5F5F5"/>
<path d="M529.574 596.918C530.655 596.95 531.728 596.709 532.717 596.214C534.61 595.48 536.955 593.835 539.685 592.588C540.961 592.005 542.317 591.682 543.691 591.633C544.805 591.635 545.906 591.921 546.911 592.47C547.821 593.038 548.615 593.818 549.242 594.76C549.192 594.431 549.068 594.123 548.881 593.865C548.426 593.109 547.822 592.486 547.117 592.045C546.073 591.378 544.9 591.015 543.704 590.988C542.251 590.993 540.812 591.317 539.466 591.942C536.633 593.234 534.314 594.878 532.562 595.744C530.811 596.61 529.561 596.801 529.574 596.918Z" fill="#F5F5F5"/>
<path d="M531.43 606.387C532.182 606.811 532.985 607.107 533.812 607.267C537.741 608.343 541.78 608.798 545.817 608.618C546.655 608.638 547.492 608.524 548.302 608.28C548.302 608.06 544.438 608.28 539.827 607.723C535.216 607.165 531.468 606.181 531.43 606.387Z" fill="#F5F5F5"/>
<path d="M138.254 34.043H15.1602V237.39H138.254V34.043Z" fill="#777777"/>
<path d="M132.084 34.043H8.99023V237.39H132.084V34.043Z" fill="#888888"/>
<path d="M116.783 56.063H24.2793V215.356H116.783V56.063Z" fill="white"/>
<path d="M116.783 215.4C116.783 215.4 116.783 215.121 116.783 214.622C116.783 214.122 116.783 213.344 116.783 212.361C116.783 210.35 116.783 207.428 116.783 203.553C116.783 195.919 116.783 184.806 116.706 170.743C116.706 142.66 116.616 102.877 116.551 56.0335L116.86 56.3858L24.2402 56.4445L24.5751 56.0628C24.5751 116.163 24.5751 171.565 24.5751 215.37L24.3046 215.062L91.6413 215.223L110.24 215.297H115.121H116.809H115.173H110.343H91.8087L24.2402 215.664H23.9697V215.4C23.9697 171.594 23.9697 116.192 23.9697 56.0922V55.6812H24.2402H116.731H117.041V56.0335C117.041 103.009 116.925 142.822 116.886 170.978C116.886 184.997 116.886 196.095 116.809 203.714C116.809 207.487 116.809 210.394 116.809 212.375C116.809 213.344 116.809 214.078 116.809 214.592C116.809 215.106 116.783 215.4 116.783 215.4Z" fill="#E0E0E0"/>
<path d="M132.433 34.043C131.804 35.3271 131.071 36.5411 130.243 37.6689C128.813 39.8563 126.778 42.8216 124.473 46.0219C122.167 49.2221 119.991 52.07 118.381 54.0812C117.568 55.2276 116.662 56.2844 115.676 57.2374C116.367 55.9929 117.151 54.8191 118.02 53.7289L123.945 45.5374C126.199 42.4399 128.221 39.6654 129.87 37.346C130.64 36.164 131.497 35.059 132.433 34.043Z" fill="#E0E0E0"/>
<path d="M117.26 214.856C121.856 223.189 127.266 230.901 133.386 237.845L117.26 214.856Z" fill="white"/>
<path d="M133.386 237.845C132.364 236.979 131.423 235.995 130.578 234.909C126.29 229.92 122.454 224.451 119.127 218.585C118.389 217.412 117.762 216.152 117.26 214.827C118.1 215.929 118.867 217.102 119.552 218.336C120.84 220.508 122.811 223.474 125.039 226.645C127.268 229.815 129.393 232.517 130.951 234.572C131.833 235.592 132.647 236.686 133.386 237.845Z" fill="#E0E0E0"/>
<path d="M8.96484 237.229L25.0906 214.548L8.96484 237.229Z" fill="white"/>
<path d="M25.0907 214.548C22.6968 218.562 20.1171 222.429 17.3627 226.131C14.7623 229.998 11.9805 233.703 9.0293 237.229C11.4335 233.228 14.0172 229.372 16.7702 225.676C19.3764 221.808 22.1535 218.094 25.0907 214.548Z" fill="#E0E0E0"/>
<path d="M8.99023 34.043C11.765 37.4302 14.375 40.9881 16.8084 44.7007C19.4274 48.2527 21.8658 51.9728 24.1114 55.8428C21.3333 52.4332 18.7232 48.8507 16.2932 45.1117C13.6827 41.5775 11.2447 37.8823 8.99023 34.043Z" fill="#E0E0E0"/>
<path d="M87.9705 88.4028H56.9941V188.638H87.9705V88.4028Z" fill="#E0E0E0"/>
<path d="M292.518 0.0292969H195.776V114.974H292.518V0.0292969Z" fill="#777777"/>
<path d="M285.962 0.0292969H189.221V114.974H285.962V0.0292969Z" fill="#999999"/>
<path d="M286 115.018H189.194V0H286V115.018ZM189.259 114.944H285.936V0.0733989H189.259V114.944Z" fill="#E0E0E0"/>
<path d="M272.966 15.4873H202.229V99.5303H272.966V15.4873Z" fill="white"/>
<path d="M202.229 100.088C201.727 100.928 201.143 101.701 200.49 102.393C199.357 103.758 197.773 105.593 195.982 107.59C194.192 109.586 192.569 111.377 191.371 112.64C190.76 113.377 190.072 114.028 189.323 114.577C189.819 113.732 190.403 112.958 191.062 112.273C192.183 110.922 193.78 109.072 195.57 107.076C197.36 105.079 198.983 103.288 200.194 102.011C200.804 101.282 201.487 100.636 202.229 100.088Z" fill="#E0E0E0"/>
<path d="M272.966 99.8828C273.706 100.457 274.388 101.121 275.001 101.865C276.186 103.156 277.796 104.962 279.56 106.988C281.325 109.014 282.871 110.893 283.978 112.258C284.625 112.955 285.196 113.739 285.678 114.592C284.937 114.027 284.258 113.361 283.656 112.61C282.471 111.319 280.848 109.513 279.097 107.472C277.345 105.432 275.774 103.582 274.666 102.202C274.02 101.509 273.449 100.731 272.966 99.8828Z" fill="#E0E0E0"/>
<path d="M272.824 15.7517C273.329 14.9099 273.917 14.1366 274.576 13.4469C275.696 12.0817 277.281 10.2467 279.071 8.25023C280.861 6.25375 282.484 4.46279 283.682 3.20031C284.283 2.44899 284.962 1.78353 285.704 1.21851C285.208 2.06377 284.624 2.83763 283.965 3.52327C282.845 4.88851 281.248 6.72351 279.457 8.73467C277.667 10.7458 276.044 12.5221 274.833 13.7846C274.234 14.5279 273.559 15.1882 272.824 15.7517Z" fill="#E0E0E0"/>
<path d="M201.984 15.9132C201.237 15.3508 200.553 14.6852 199.949 13.9314C198.764 12.6396 197.154 10.8339 195.402 8.8081C193.651 6.78226 192.079 4.9179 190.972 3.53798C190.324 2.84095 189.754 2.05721 189.271 1.20386C190.013 1.76922 190.692 2.43464 191.294 3.18566C192.479 4.4775 194.101 6.28314 195.853 8.32366C197.605 10.3642 199.176 12.2285 200.297 13.5938C200.937 14.2889 201.503 15.0674 201.984 15.9132Z" fill="#E0E0E0"/>
<path d="M272.824 99.5304C272.824 99.5304 272.824 99.3836 272.824 99.1193C272.824 98.8551 272.824 98.4441 272.824 97.9449C272.824 96.888 272.824 95.3759 272.824 93.4088C272.824 89.4305 272.824 83.6319 272.824 76.2773C272.824 61.5973 272.734 40.5902 272.683 15.4874L272.824 15.7516H202.294L202.603 15.3993C202.603 46.2273 202.603 75.1029 202.603 99.4423L202.332 99.134L253.414 99.2955L267.672 99.4276H271.459H272.438H271.536H267.788H253.504L202.255 99.5891H201.984V99.2808C201.984 74.9414 201.984 46.0805 201.984 15.2378V14.8855H202.306H272.837H273.108V15.1938C273.108 40.3847 273.005 61.4211 272.966 76.1892C272.966 83.5292 272.966 89.2837 272.902 93.2473C272.902 95.1851 272.902 96.6825 272.902 97.7247C272.902 98.2092 272.902 98.5762 272.902 98.8551C272.895 99.0825 272.869 99.3087 272.824 99.5304Z" fill="#E0E0E0"/>
<path d="M249.409 44.0547H225.8V70.9631H249.409V44.0547Z" fill="#EBEBEB"/>
<path d="M145.235 464.813L147.657 515.503C147.696 516.374 148.026 517.195 148.579 517.798C149.132 518.401 149.867 518.741 150.632 518.747L230.655 519.408C231.049 519.412 231.44 519.327 231.806 519.159C232.171 518.99 232.504 518.742 232.785 518.427C233.066 518.112 233.29 517.737 233.444 517.323C233.598 516.91 233.679 516.466 233.682 516.017L233.94 476.557C233.941 476.106 233.865 475.659 233.715 475.241C233.565 474.824 233.345 474.444 233.066 474.124C232.787 473.803 232.456 473.549 232.091 473.374C231.726 473.2 231.334 473.109 230.939 473.107H181.711C181.318 473.106 180.929 473.016 180.566 472.842C180.204 472.668 179.875 472.414 179.599 472.094L171.098 462.42C170.538 461.79 169.786 461.432 168.999 461.422L148.249 461.246C147.843 461.243 147.44 461.335 147.066 461.515C146.692 461.695 146.354 461.96 146.072 462.293C145.79 462.627 145.57 463.022 145.427 463.455C145.283 463.888 145.218 464.35 145.235 464.813Z" fill="#555555"/>
<path d="M233.993 467.151L146.553 466.421L146.17 525.976L233.61 526.706L233.993 467.151Z" fill="#F5F5F5"/>
<path d="M139.568 471.698L145.841 533.868C145.894 534.401 146.118 534.893 146.47 535.251C146.821 535.608 147.276 535.805 147.747 535.805L232.961 536.525C233.447 536.527 233.916 536.322 234.276 535.95C234.636 535.578 234.861 535.065 234.906 534.514L239.594 472.447C239.615 472.143 239.582 471.839 239.495 471.551C239.409 471.263 239.271 470.999 239.091 470.775C238.911 470.55 238.692 470.37 238.449 470.246C238.205 470.122 237.942 470.057 237.675 470.054L141.449 469.246C141.18 469.253 140.915 469.323 140.671 469.452C140.427 469.582 140.21 469.768 140.033 469.999C139.856 470.229 139.723 470.5 139.643 470.792C139.563 471.085 139.538 471.393 139.568 471.698Z" fill="#555555"/>
<path d="M284.275 493.366L286.697 544.232C286.736 545.103 287.066 545.924 287.619 546.527C288.172 547.13 288.906 547.47 289.672 547.476L369.876 548.151C370.271 548.155 370.664 548.07 371.031 547.901C371.398 547.732 371.732 547.482 372.014 547.166C372.297 546.85 372.521 546.473 372.676 546.058C372.831 545.643 372.912 545.197 372.915 544.746L373.173 505.198C373.175 504.745 373.098 504.297 372.947 503.879C372.796 503.46 372.575 503.08 372.295 502.759C372.015 502.439 371.682 502.184 371.315 502.011C370.949 501.837 370.556 501.748 370.159 501.748H320.829C320.434 501.75 320.043 501.662 319.678 501.491C319.314 501.32 318.982 501.068 318.703 500.75L310.203 491.046C309.639 490.413 308.882 490.055 308.09 490.048L287.302 489.872C286.9 489.868 286.502 489.956 286.13 490.13C285.759 490.305 285.422 490.563 285.14 490.889C284.858 491.215 284.636 491.602 284.487 492.027C284.339 492.453 284.266 492.908 284.275 493.366Z" fill="#BBBBBB"/>
<path d="M373.218 495.721L285.585 494.989L285.201 554.676L372.834 555.408L373.218 495.721Z" fill="#F5F5F5"/>
<path d="M278.582 500.265L284.881 562.567C284.934 563.102 285.158 563.595 285.509 563.955C285.86 564.315 286.315 564.516 286.787 564.519L372.194 565.239C372.681 565.237 373.151 565.029 373.51 564.654C373.87 564.28 374.094 563.766 374.139 563.213L378.84 501.014C378.861 500.711 378.828 500.406 378.741 500.118C378.655 499.83 378.517 499.566 378.337 499.342C378.157 499.117 377.938 498.937 377.695 498.813C377.451 498.689 377.188 498.624 376.921 498.621L280.553 497.813C280.277 497.807 280.003 497.868 279.75 497.992C279.496 498.116 279.269 498.3 279.082 498.532C278.896 498.764 278.755 499.039 278.669 499.337C278.582 499.636 278.553 499.952 278.582 500.265Z" fill="#BBBBBB"/>
<path d="M86.7853 407.487C73.5704 384.469 75.5024 351.586 91.216 330.77C96.1104 324.31 102.95 318.688 110.42 319.422C117.89 320.156 124.215 327.628 126.546 335.966C128.877 344.304 128.053 353.318 126.688 361.92C124.781 373.958 121.536 386.275 114.245 395.229C106.955 404.184 96.2134 413.359 86.7338 407.487" fill="#0D6943"/>
<path d="M90.7784 518.292C88.4063 511.598 87.9421 504.224 89.4516 497.213C90.9611 490.202 94.3678 483.91 99.1891 479.228C102.229 476.395 106.196 474.208 109.983 475.353C113.769 476.498 116.423 481.019 116.976 485.541C117.53 490.062 116.371 494.642 114.993 498.929C113.048 504.948 110.42 510.967 105.977 514.813C101.533 518.659 95.2092 522.285 90.83 518.292" fill="#0D6943"/>
<path d="M62.2362 510.379C65.8683 489.915 56.4402 467.455 40.2243 457.854C35.1882 454.918 29.0058 453.098 23.9311 456.005C18.8563 458.911 16.2031 466.178 16.6539 472.784C17.1047 479.39 19.8481 485.511 22.9522 491.09C27.2541 498.944 32.5349 506.592 39.8894 510.541C47.2439 514.49 57.0842 517.529 62.2619 510.379" fill="#0D6943"/>
<path d="M64.5286 455.197C70.8527 431.944 60.1365 403.817 42.2591 390.414C36.7207 386.275 29.7011 383.397 23.5058 386.01C17.3105 388.623 13.5109 396.829 13.3177 404.566C13.1245 412.302 15.7263 419.745 18.7273 426.689C22.9262 436.407 28.2843 446.008 36.4245 451.645C44.5646 457.282 57.7666 462.801 64.5286 455.183" fill="#0D6943"/>
<path d="M73.9178 568.85C73.8107 568.488 73.7415 568.114 73.7117 567.734C73.5958 566.883 73.4541 565.811 73.2867 564.49C73.1965 563.77 73.1063 563.022 73.0033 562.141C72.9003 561.26 72.6942 560.365 72.5267 559.381C72.2047 557.399 71.857 555.124 71.2387 552.672C70.9683 551.425 70.6978 550.133 70.4144 548.797C70.1311 547.461 69.7189 546.081 69.3454 544.642C68.6627 541.706 67.6581 538.77 66.7694 535.585C64.5099 528.775 61.8816 522.132 58.8997 515.693C55.8398 509.314 52.4373 503.157 48.7116 497.255C46.9084 494.613 45.2855 492 43.5596 489.754L41.1253 486.451L38.7425 483.515C37.2613 481.606 35.793 480.036 34.5179 478.626L32.7662 476.645L31.2077 475.089L29.0696 472.887C28.5802 472.373 28.3355 472.094 28.3612 472.064C28.6494 472.261 28.921 472.487 29.1727 472.74L31.4267 474.795L33.0367 476.263L34.8527 478.171C36.1407 479.551 37.6606 481.107 39.1804 482.986L41.6147 485.922L44.1135 489.211C45.878 491.442 47.5395 494.04 49.3685 496.697C53.1545 502.62 56.5965 508.818 59.6725 515.253C62.6758 521.733 65.3004 528.432 67.5293 535.306C68.4567 538.521 69.4484 541.53 70.1053 544.437C70.4659 545.905 70.8008 547.285 71.1357 548.635C71.4706 549.986 71.6638 551.292 71.9085 552.54C72.4495 555.021 72.7457 557.311 73.0291 559.308C73.1707 560.306 73.3124 561.231 73.4283 562.097C73.5443 562.963 73.5829 563.741 73.6473 564.46C73.7503 565.796 73.8405 566.883 73.9049 567.734C73.9416 568.105 73.9459 568.478 73.9178 568.85Z" fill="#263238"/>
<path d="M73.4549 573.033C73.438 572.877 73.438 572.72 73.4549 572.564C73.4549 572.211 73.4549 571.771 73.5322 571.228C73.6353 569.965 73.7769 568.292 73.9573 566.06C74.0603 564.93 74.1633 563.682 74.2793 562.332C74.3952 560.981 74.4081 559.469 74.4725 557.928C74.5755 554.728 74.846 551.087 74.7429 547.065C74.7429 545.053 74.7429 542.954 74.7429 540.752C74.7429 538.55 74.5497 536.275 74.4467 533.911C74.305 529.184 73.7512 524.178 73.2489 518.879C71.8846 507.466 69.7925 496.181 66.9892 485.115C64.0423 474.061 60.3919 463.267 56.0669 452.819C53.9546 448.077 52.0226 443.512 49.8845 439.46C48.8284 437.42 47.8881 435.394 46.8577 433.588C45.8273 431.783 44.8485 429.903 43.8309 428.259C41.9891 424.81 39.9669 421.932 38.4213 419.319C37.597 418.027 36.85 416.809 36.1287 415.708C35.4074 414.607 34.6861 413.682 34.0679 412.772L31.2472 408.706C30.9638 408.265 30.7191 407.913 30.5259 407.634C30.3327 407.355 30.2941 407.252 30.3069 407.238C30.3198 407.223 30.4229 407.34 30.6032 407.561L31.376 408.573L34.3255 412.537L36.4507 415.473C37.1977 416.545 37.9577 417.763 38.8077 419.04C40.4564 421.624 42.4657 424.487 44.3461 427.848L47.4245 433.118C48.4806 434.968 49.4337 436.994 50.5028 438.99C52.6795 443.042 54.6373 447.593 56.7753 452.349C61.167 462.78 64.857 473.577 67.8135 484.645C70.6386 495.778 72.7183 507.138 74.0345 518.629C74.5111 523.944 75.0521 528.979 75.168 533.72C75.2453 536.099 75.4127 538.389 75.4127 540.591C75.4127 542.793 75.4127 544.907 75.4127 546.932C75.4127 550.969 75.1551 554.61 75.0134 557.81C74.9104 559.41 74.8589 560.893 74.7429 562.214C74.627 563.536 74.4596 564.827 74.3437 565.943L73.7641 571.096C73.7641 571.639 73.6353 572.079 73.5966 572.432C73.5748 572.639 73.5271 572.842 73.4549 573.033Z" fill="#263238"/>
<path d="M107.831 347.226C107.786 347.373 107.73 347.515 107.664 347.652L107.084 348.855L104.83 353.391C104.354 354.39 103.761 355.476 103.207 356.709L101.443 360.761C100.799 362.229 100.155 363.697 99.4079 365.4C98.6608 367.103 98.1199 368.864 97.3342 370.729C96.5485 372.593 95.8272 374.545 95.0931 376.601C94.3589 378.656 93.6634 380.843 92.9035 383.074C92.5299 384.205 92.1435 385.335 91.7571 386.495L90.6881 390.091C89.9797 392.514 89.2326 395.009 88.4856 397.564C85.6778 407.84 83.0245 419.363 80.7576 431.562C78.4907 443.762 77.0482 455.594 75.9791 466.325C74.9101 477.056 74.3047 486.774 74.1115 494.936C73.9312 499.017 73.8926 502.716 73.8797 505.961C73.8668 509.205 73.8153 511.994 73.8797 514.284C73.9441 516.574 73.8797 518.263 73.8797 519.554C73.8797 520.098 73.8797 520.553 73.8797 520.92C73.8991 521.075 73.8991 521.234 73.8797 521.389C73.8611 521.234 73.8611 521.076 73.8797 520.92C73.8797 520.553 73.8797 520.112 73.8024 519.554C73.8024 518.277 73.6736 516.516 73.5835 514.299C73.4933 512.082 73.416 509.205 73.416 505.961C73.416 502.716 73.416 499.002 73.5191 494.907C73.635 486.73 74.2919 476.997 75.2063 466.222C76.1208 455.447 77.7823 443.674 79.9719 431.43C82.1615 419.187 84.8921 407.678 87.6999 397.343C88.4598 394.789 89.2198 392.293 89.9411 389.857C90.3146 388.653 90.6752 387.449 91.0359 386.275L92.2079 382.854L94.4619 376.38C95.209 374.311 96.0204 372.373 96.7417 370.508C97.463 368.644 98.1714 366.853 98.8798 365.194L100.979 360.57L102.821 356.548C103.401 355.315 104.006 354.243 104.508 353.259L106.917 348.753C107.174 348.283 107.381 347.901 107.561 347.593C107.741 347.285 107.818 347.211 107.831 347.226Z" fill="#263238"/>
<path d="M103.336 488.448C102.938 489.43 102.469 490.373 101.932 491.266C100.966 493.013 99.6392 495.67 98.0679 498.87C96.4965 502.071 94.7964 506.093 93.0576 510.614C91.3188 515.136 89.683 520.156 88.2018 525.544C86.7206 530.931 85.6258 536.202 84.8272 541.002C84.0287 545.802 83.5392 550.192 83.1657 553.876C82.7922 557.561 82.6505 560.57 82.5732 562.684C82.5757 563.761 82.4981 564.837 82.3414 565.899C82.2302 564.828 82.1958 563.748 82.2384 562.67C82.2384 560.585 82.2384 557.576 82.5604 553.862C82.8574 549.51 83.3518 545.178 84.0416 540.884C85.7167 530.344 88.5018 520.072 92.3363 510.291C94.1137 505.799 95.8912 501.85 97.4883 498.621C99.0854 495.391 100.528 492.837 101.584 491.134C102.107 490.189 102.693 489.291 103.336 488.448Z" fill="#263238"/>
<path d="M47.9775 558.5H105.989L98.9695 626.014H55.2032L47.9775 558.5Z" fill="#455A64"/>
<path d="M50.1025 618.732L55.0227 626.014H98.9693L104.031 618.953L50.1025 618.732Z" fill="#263238"/>
<path d="M103.722 578.348C103.722 578.627 91.6926 578.847 76.8419 578.847C61.9913 578.847 50 578.627 50 578.348C50 578.069 62.0299 577.863 76.8806 577.863C91.7312 577.863 103.722 578.083 103.722 578.348Z" fill="white"/>
<path d="M103.722 582.855C103.722 583.119 91.6926 583.339 76.8419 583.339C61.9913 583.339 50 583.119 50 582.855C50 582.59 62.0299 582.355 76.8806 582.355C91.7312 582.355 103.722 582.576 103.722 582.855Z" fill="white"/>
<path d="M103.001 587.2C103.001 587.479 91.4088 587.699 77.0604 587.699C62.7121 587.699 51.1201 587.479 51.1201 587.2C51.1201 586.921 62.7121 586.701 77.0604 586.701C91.4088 586.701 103.001 586.936 103.001 587.2Z" fill="white"/>
<path d="M561.104 626.087C561.104 626.307 435.486 626.469 280.565 626.469C125.644 626.469 0 626.307 0 626.087C0 625.867 125.593 625.706 280.565 625.706C435.537 625.706 561.104 625.882 561.104 626.087Z" fill="#263238"/>
<path d="M538.075 159.395C533.747 153.156 533.657 141.779 533.798 138.741C534.133 131.826 520.609 91.471 487.096 108.133C475.078 108.133 474.885 121.653 472.606 124.369C470.326 127.085 467.788 129.918 467.183 133.617C466.127 140.179 471.588 146.55 470.197 153.024C469.682 155.446 468.252 157.516 467.247 159.733C466.166 161.715 465.315 164.944 465.779 166.735C466.36 168.484 467.126 170.145 468.059 171.683C469.002 173.235 469.436 175.116 469.282 176.997C468.754 180.314 465.419 182.164 464.465 185.379C463.512 188.594 465.315 191.794 466.9 194.569C468.484 197.343 470.004 200.852 468.729 203.832C467.884 205.31 466.836 206.623 465.625 207.722C463.994 209.657 462.899 212.096 462.478 214.736C462.056 217.375 462.327 220.098 463.255 222.563L482.575 218.159C483.433 207.697 484.292 197.226 485.151 186.744C490.792 188.344 496.962 184.234 499.641 183.456L502.925 181.43C510.112 182.898 517.866 182.355 524.164 178.171C530.463 173.987 539.8 179.345 538.577 171.139C537.894 167.205 540.277 162.552 538.075 159.395Z" fill="#263238"/>
<path d="M516.102 121.213L489.865 112.405C481.416 110.937 475.362 122.681 474.474 132.311C473.495 143.071 472.683 156.254 473.52 164.342C475.195 180.637 486.001 183.192 486.001 183.192C486.001 183.192 484.108 206.254 483.94 212.023L516.256 193.115L520.339 127.187C520.414 125.768 520.021 124.369 519.237 123.263C518.453 122.158 517.335 121.426 516.102 121.213Z" fill="#FFD3C1"/>
<path d="M486 183.104C492.605 183.668 499.212 182.042 505.024 178.421C504.857 178.421 499.202 189.68 485.704 187.39L486 183.104Z" fill="#F4AF9B"/>
<path d="M486.774 110.247C497.341 112.142 507.672 115.474 517.544 120.17C519.837 121.271 522.232 122.549 523.52 124.956C524.808 127.364 524.705 130.711 524.486 133.764L521.202 177.232L519.837 177.144C515.973 177.878 515.638 175.588 512.817 172.373C511.423 170.742 510.381 168.765 509.773 166.597C509.165 164.429 509.008 162.129 509.314 159.88C509.88 155.931 511.89 151.967 510.808 148.136C509.378 143.086 503.312 141.295 501.856 136.26C501.019 133.324 501.972 130.006 500.993 127.129C500.014 124.252 497.683 122.725 495.326 121.697C492.969 120.67 490.432 119.818 488.487 117.954C486.542 116.089 485.344 112.64 486.774 110.247Z" fill="#263238"/>
<path d="M400.684 81.1216H296.716C292.484 81.1216 289.053 85.0322 289.053 89.8562V185.1C289.053 189.924 292.484 193.835 296.716 193.835H400.684C404.916 193.835 408.347 189.924 408.347 185.1V89.8562C408.347 85.0322 404.916 81.1216 400.684 81.1216Z" fill="#263238"/>
<path d="M348.7 154.888C358.196 154.888 365.894 146.114 365.894 135.291C365.894 124.467 358.196 115.693 348.7 115.693C339.203 115.693 331.505 124.467 331.505 135.291C331.505 146.114 339.203 154.888 348.7 154.888Z" fill="#FFB700"/>
<path d="M344.566 141.031V129.463C344.565 129.335 344.594 129.21 344.649 129.099C344.705 128.988 344.784 128.895 344.88 128.83C344.977 128.765 345.086 128.729 345.198 128.727C345.31 128.725 345.42 128.756 345.519 128.817L354.535 134.689C354.633 134.755 354.715 134.849 354.772 134.963C354.829 135.076 354.859 135.204 354.859 135.335C354.859 135.465 354.829 135.594 354.772 135.707C354.715 135.82 354.633 135.915 354.535 135.981L345.519 141.706C345.419 141.774 345.305 141.809 345.189 141.808C345.073 141.807 344.96 141.769 344.861 141.7C344.763 141.63 344.683 141.53 344.631 141.412C344.579 141.294 344.556 141.162 344.566 141.031Z" fill="white"/>
<path d="M456.596 572.916L459.584 605.579C459.584 605.579 431.454 619.995 431.48 626.131L487.25 621.845L484.442 570.656L456.596 572.916Z" fill="#455A64"/>
<g opacity="0.3">
<path d="M456.596 572.916L459.584 605.579C459.584 605.579 431.454 619.995 431.48 626.131L487.25 621.845L484.442 570.656L456.596 572.916Z" fill="black"/>
</g>
<g opacity="0.6">
<path d="M476.65 601.484C477.196 601.627 477.677 601.996 478.001 602.519C478.324 603.041 478.466 603.682 478.401 604.317C478.295 604.947 477.98 605.507 477.523 605.881C477.065 606.255 476.499 606.415 475.941 606.328C475.362 606.171 474.853 605.775 474.513 605.217C474.174 604.659 474.026 603.978 474.099 603.304C474.27 602.661 474.653 602.119 475.166 601.79C475.68 601.462 476.286 601.373 476.856 601.542" fill="white"/>
</g>
<g opacity="0.6">
<path d="M487.237 621.801L486.786 616.648L433.476 622.696C433.476 622.696 431.067 624.164 431.467 626.087L487.237 621.801Z" fill="white"/>
</g>
<path d="M458.643 605.33C458.643 605.638 460.047 605.667 461.438 606.563C462.829 607.458 463.628 608.706 463.873 608.574C464.117 608.442 463.602 606.666 461.889 605.638C460.176 604.61 458.566 605.051 458.643 605.33Z" fill="#263238"/>
<path d="M452.964 608.53C452.964 608.838 454.123 609.279 455.128 610.512C456.132 611.745 456.416 613.125 456.751 613.096C457.086 613.066 457.086 611.29 455.81 609.778C454.535 608.266 452.951 608.236 452.964 608.53Z" fill="#263238"/>
<path d="M450.105 616.765C450.362 616.765 450.646 615.297 449.847 613.594C449.048 611.892 447.735 611.363 447.632 611.627C447.529 611.892 448.379 612.743 449.01 614.108C449.641 615.474 449.834 616.765 450.105 616.765Z" fill="#263238"/>
<path d="M458.695 597.799C458.824 598.063 460.047 597.549 461.593 597.549C463.139 597.549 464.375 598.004 464.491 597.726C464.607 597.447 463.409 596.434 461.58 596.463C459.751 596.492 458.54 597.564 458.695 597.799Z" fill="#263238"/>
<path d="M458.193 591.208C459.126 591.42 460.093 591.339 460.988 590.973C461.983 590.694 462.944 590.274 463.848 589.725C464.384 589.404 464.901 589.041 465.393 588.639C465.697 588.416 465.966 588.138 466.192 587.817C466.356 587.58 466.445 587.288 466.445 586.987C466.445 586.686 466.356 586.394 466.192 586.158C466.045 585.953 465.857 585.79 465.645 585.683C465.432 585.576 465.2 585.527 464.968 585.541C464.611 585.561 464.259 585.645 463.925 585.791C463.339 586.003 462.77 586.274 462.225 586.598C461.313 587.158 460.483 587.876 459.765 588.727C458.554 590.195 458.18 591.384 458.283 591.442C458.387 591.501 458.979 590.518 460.228 589.285C460.955 588.571 461.761 587.969 462.624 587.494C463.132 587.22 463.657 586.989 464.195 586.804C464.775 586.583 465.277 586.539 465.483 586.804C465.689 587.068 465.561 586.965 465.483 587.171C465.311 587.396 465.116 587.598 464.904 587.772C464.427 588.169 463.951 588.521 463.474 588.844C462.655 589.394 461.792 589.856 460.898 590.224C459.977 590.478 459.073 590.807 458.193 591.208Z" fill="#263238"/>
<path d="M458.58 591.619C459.052 590.665 459.245 589.565 459.133 588.477C459.11 587.297 458.91 586.13 458.541 585.027C458.326 584.369 458.05 583.739 457.717 583.148C457.542 582.739 457.276 582.388 456.947 582.131C456.617 581.873 456.234 581.718 455.836 581.68C455.589 581.703 455.354 581.807 455.157 581.979C454.961 582.151 454.812 582.383 454.728 582.649C454.614 583.034 454.54 583.433 454.509 583.838C454.374 585.779 454.921 587.701 456.029 589.182C457.214 590.752 458.373 591.031 458.386 590.929C458.399 590.826 457.485 590.239 456.557 588.712C456.017 587.834 455.652 586.832 455.488 585.776C455.417 585.167 455.417 584.55 455.488 583.941C455.488 583.251 455.72 582.693 455.952 582.737C456.184 582.781 456.725 583.192 456.995 583.706C457.297 584.238 457.56 584.798 457.781 585.38C458.159 586.38 458.406 587.439 458.515 588.521C458.644 590.385 458.425 591.574 458.58 591.619Z" fill="#263238"/>
<path d="M451.753 333.867C451.753 333.867 427.049 461.701 426.289 473.122C425.529 484.543 456.918 583.075 456.918 583.075L483.966 577.203C483.966 577.203 482.253 431.68 481.39 428.832C480.527 425.984 488.28 354.449 488.28 354.449L451.753 333.867Z" fill="#263238"/>
<path d="M469.012 574.443L469.309 607.267C469.309 607.267 440.122 618.644 439.685 624.722L495.558 625.382L496.936 575.162L469.012 574.443Z" fill="#455A64"/>
<g opacity="0.6">
<path d="M486.632 605.021C487.153 605.22 487.594 605.626 487.873 606.166C488.152 606.705 488.251 607.341 488.152 607.957C487.992 608.563 487.639 609.077 487.161 609.398C486.684 609.719 486.117 609.824 485.576 609.69C485.011 609.474 484.537 609.027 484.244 608.436C483.952 607.845 483.862 607.152 483.991 606.489C484.21 605.865 484.634 605.362 485.173 605.088C485.711 604.814 486.323 604.79 486.877 605.021" fill="white"/>
</g>
<g opacity="0.6">
<path d="M495.532 625.383V621.184L441.964 621.551C441.964 621.551 439.452 622.711 439.684 624.722L495.532 625.383Z" fill="white"/>
</g>
<path d="M468.406 606.93C468.406 607.238 469.772 607.414 471.098 608.398C472.425 609.381 473.095 610.761 473.352 610.644C473.61 610.526 473.236 608.721 471.626 607.502C470.016 606.284 468.355 606.636 468.406 606.93Z" fill="#263238"/>
<path d="M462.482 609.513C462.418 609.822 463.59 610.38 464.478 611.715C465.367 613.051 465.625 614.461 465.895 614.461C466.166 614.461 466.372 612.699 465.238 611.055C464.105 609.411 462.495 609.22 462.482 609.513Z" fill="#263238"/>
<path d="M458.978 617.411C459.223 617.411 459.635 615.943 458.978 614.226C458.321 612.508 457.059 611.789 456.93 612.038C456.801 612.288 457.574 613.227 458.102 614.651C458.63 616.075 458.708 617.382 458.978 617.411Z" fill="#263238"/>
<path d="M469.076 599.428C469.179 599.722 470.441 599.325 471.974 599.428C473.507 599.531 474.705 600.192 474.859 599.927C475.014 599.663 473.88 598.459 472.064 598.357C470.248 598.254 468.947 599.179 469.076 599.428Z" fill="#263238"/>
<g opacity="0.3">
<path d="M469.076 580.946L469.115 586.789L496.588 587.303L496.742 582.033L469.076 580.946Z" fill="black"/>
</g>
<path d="M469.115 592.808C470.029 593.101 470.996 593.101 471.91 592.808C472.928 592.635 473.923 592.319 474.873 591.868C475.432 591.604 475.975 591.295 476.495 590.943C476.815 590.757 477.106 590.514 477.358 590.224C477.542 590.006 477.657 589.726 477.687 589.427C477.718 589.127 477.661 588.825 477.526 588.565C477.393 588.345 477.216 588.165 477.01 588.037C476.804 587.91 476.575 587.839 476.341 587.831C475.985 587.81 475.628 587.855 475.285 587.963C474.684 588.107 474.097 588.319 473.533 588.594C472.595 589.054 471.726 589.678 470.957 590.444C469.669 591.78 469.167 592.925 469.257 592.984C469.347 593.043 470.03 592.132 471.369 591.046C472.168 590.431 473.034 589.938 473.945 589.578C474.472 589.35 475.015 589.173 475.568 589.05C476.161 588.903 476.663 588.903 476.856 589.211C477.049 589.519 476.921 589.373 476.792 589.563C476.605 589.774 476.393 589.952 476.161 590.092C475.675 590.434 475.172 590.743 474.654 591.017C473.777 591.484 472.862 591.852 471.923 592.118C470.973 592.267 470.035 592.497 469.115 592.808Z" fill="#263238"/>
<path d="M469.463 593.263C470.007 592.367 470.291 591.299 470.274 590.209C470.345 589.028 470.24 587.842 469.965 586.701C469.804 586.024 469.579 585.37 469.295 584.748C469.155 584.321 468.92 583.942 468.613 583.648C468.306 583.355 467.937 583.157 467.544 583.075C467.294 583.073 467.048 583.153 466.838 583.307C466.628 583.461 466.461 583.681 466.359 583.941C466.204 584.307 466.1 584.698 466.049 585.101C465.947 585.81 465.947 586.534 466.049 587.244C466.177 588.443 466.562 589.587 467.17 590.576C468.226 592.25 469.36 592.661 469.372 592.558C469.385 592.455 468.535 591.78 467.737 590.165C467.274 589.237 466.993 588.205 466.912 587.141C466.871 586.527 466.905 585.909 467.015 585.306C467.118 584.631 467.35 584.088 467.569 584.161C467.788 584.235 468.303 584.69 468.522 585.233C468.782 585.794 469.002 586.378 469.179 586.98C469.465 588.017 469.625 589.093 469.656 590.18C469.63 592.059 469.321 593.204 469.463 593.263Z" fill="#263238"/>
<path d="M514.543 331.9L451.753 333.867L460.769 461.201L466.359 583.941L498.932 585.233C500.594 561.539 500.71 477.819 500.71 477.819L507.24 427.261C508.76 413.623 513.564 399.296 515.882 387.053C517.235 379.874 519.218 370.552 519.643 367.499C520.944 358.5 514.543 331.9 514.543 331.9Z" fill="#263238"/>
<path d="M455.411 363.168C455.425 363.359 455.425 363.55 455.411 363.741C455.411 364.152 455.411 364.71 455.411 365.414C455.411 366.882 455.282 369.085 455.192 371.844C455.102 374.604 454.96 378.054 454.857 382.018C454.754 385.981 454.573 390.503 454.496 395.494C454.251 405.476 454.123 417.367 454.174 430.579C454.226 443.791 454.535 458.295 455.192 473.518C455.849 488.741 456.879 503.23 458.038 516.369C458.669 522.931 459.223 529.17 459.919 534.998C460.254 537.934 460.537 540.723 460.872 543.424C461.207 546.125 461.554 548.709 461.876 551.175C462.469 556.122 463.164 560.57 463.718 564.49C464.272 568.41 464.8 571.83 465.264 574.516L466.256 580.844C466.359 581.548 466.449 582.091 466.5 582.488C466.514 582.678 466.514 582.87 466.5 583.06C466.445 582.878 466.402 582.692 466.372 582.502C466.307 582.106 466.204 581.563 466.075 580.873C465.805 579.405 465.431 577.276 464.955 574.56C464.478 571.845 463.886 568.468 463.306 564.549C462.727 560.629 462.018 556.196 461.361 551.249C461.026 548.782 460.679 546.199 460.318 543.498C459.97 540.796 459.674 537.978 459.326 535.071C458.605 529.199 458.038 523.004 457.381 516.428C456.196 503.289 455.166 488.8 454.483 473.562C453.801 458.324 453.569 443.791 453.517 430.579C453.466 417.367 453.685 405.462 453.981 395.479C454.084 390.488 454.29 385.966 454.432 382.003C454.573 378.039 454.728 374.663 454.87 371.83C455.011 368.996 455.14 366.912 455.217 365.4C455.217 364.695 455.295 364.152 455.32 363.741C455.336 363.548 455.366 363.356 455.411 363.168Z" fill="#455A64"/>
<path d="M419.669 192.88L403.595 173.312L390.921 183.427L403.595 204.801L419.669 192.88Z" fill="#FFD3C1"/>
<path d="M521.33 200.103L520.558 187.698L484.249 187.111L483.94 202.687C483.94 202.687 466.114 224.707 459.635 249.296C448.765 290.723 444.823 343.453 444.823 343.453H519.128C518.355 328.861 513.074 296.213 513.074 296.213L529.587 240.062C533.695 219.877 521.33 200.103 521.33 200.103Z" fill="#FFB700"/>
<path d="M431.429 256.166C431.429 256.166 431.635 256.401 432.047 256.797C432.639 257.41 433.272 257.969 433.94 258.471C436.382 260.346 439.165 261.566 442.08 262.038C444.09 262.365 446.131 262.34 448.134 261.964C450.285 261.686 452.591 261.348 455.012 260.981C459.868 260.232 465.187 259.293 470.751 258.221L499.216 252.54L507.859 250.925L510.216 250.499L511.027 250.323L510.203 250.441L507.846 250.808C505.798 251.131 502.835 251.644 499.177 252.276C491.875 253.612 481.828 255.725 470.7 257.883C465.136 258.955 459.829 259.895 454.986 260.658C452.565 261.025 450.259 261.377 448.095 261.671C443.194 262.609 438.162 261.42 433.992 258.339C433.331 257.841 432.694 257.302 432.086 256.724C431.661 256.357 431.429 256.166 431.429 256.166Z" fill="#263238"/>
<path d="M523.623 236.157C523.664 236.05 523.69 235.936 523.701 235.819C523.701 235.526 523.817 235.203 523.881 234.865C524.023 234.028 524.203 232.825 524.396 231.313C524.959 227.389 524.867 223.38 524.126 219.495C523.296 215.579 521.239 212.144 518.343 209.836C517.462 209.17 516.492 208.674 515.47 208.368C515.1 208.246 514.721 208.163 514.337 208.118C515.714 208.494 517.023 209.145 518.201 210.041C521.009 212.36 523 215.743 523.817 219.583C524.552 223.442 524.665 227.422 524.151 231.327C523.997 232.795 523.842 234.043 523.726 234.88C523.726 235.232 523.688 235.555 523.61 235.849C523.604 235.952 523.608 236.055 523.623 236.157Z" fill="#263238"/>
<path d="M446.331 246.228C446.351 245.92 446.351 245.611 446.331 245.303L446.125 242.778C445.926 240.009 445.853 237.231 445.906 234.454C445.975 231.675 446.168 228.902 446.485 226.145C446.601 225.25 446.704 224.428 446.807 223.65C446.858 223.345 446.889 223.035 446.898 222.725C446.812 223.018 446.743 223.317 446.691 223.62C446.576 224.208 446.434 225.088 446.292 226.116C445.524 231.637 445.399 237.249 445.919 242.807C446.022 243.864 446.125 244.73 446.215 245.317C446.227 245.624 446.266 245.929 446.331 246.228Z" fill="#263238"/>
<path d="M484.365 202.452C485.275 199.572 486.618 196.895 488.332 194.539C490.908 190.532 493.742 186.333 497.799 184.44C500.555 183.162 507.678 183.867 509.584 181.254C515.509 173.063 506.828 168.042 509.97 156.724C513.435 144.407 511.645 146.301 511.915 136.597L525.066 130.124C527.139 131.885 532.884 138.242 532.253 141.104C531.64 144.237 531.814 147.503 532.755 150.529C534.777 157.766 541.771 162.023 545.068 168.614C548.366 175.206 544.63 184.307 544.54 192.103C544.45 199.898 547.026 209.219 553.685 210.908C551.167 216.647 547.068 221.287 542.016 224.12L537.843 217.646C538.176 220.604 537.584 223.602 536.171 226.112C534.758 228.622 532.613 230.484 530.115 231.371C528.711 224.545 527.242 217.528 523.61 211.862C519.978 206.195 513.68 202.188 507.742 204.008C503.762 205.212 500.697 208.706 497.142 211.069C493.587 213.433 488.564 214.445 485.73 211.069C484.87 209.889 484.292 208.475 484.053 206.965C483.814 205.455 483.921 203.9 484.365 202.452Z" fill="#263238"/>
<g opacity="0.3">
<path d="M459.584 259.998C476.714 256.445 499.512 252.188 516.642 248.621C517.274 248.415 517.943 248.415 518.574 248.621C519.11 248.956 519.509 249.517 519.687 250.183C519.865 250.85 519.808 251.569 519.528 252.188C518.919 253.406 517.978 254.364 516.848 254.918C511.22 258.265 504.638 258.544 498.301 258.735L459.584 259.983V259.998Z" fill="black"/>
</g>
<path d="M447.129 261.95C452.461 262.067 513.77 249.296 513.77 249.296L447.129 261.95Z" fill="#FF725E"/>
<path d="M512.727 205.667C517.222 206.298 520.145 207.135 525.4 213.594C526.008 214.355 526.531 215.198 526.959 216.104C532.806 227.848 528.582 243.996 517.376 248.474L506.531 251.013L447.129 261.95C447.129 261.95 434.481 265.18 423.61 245.963C419.63 238.902 392.183 192.249 392.183 192.249L410.215 178.494L446.562 222.813L512.727 205.667Z" fill="#FFB700"/>
<path d="M431.429 256.166C431.429 256.166 431.635 256.401 432.047 256.797C432.639 257.41 433.272 257.969 433.94 258.471C436.382 260.346 439.165 261.566 442.08 262.038C444.09 262.365 446.131 262.34 448.134 261.964C450.285 261.686 452.591 261.348 455.012 260.981C459.868 260.232 465.187 259.293 470.751 258.221L499.216 252.54L507.859 250.925L510.216 250.499L511.027 250.323L510.203 250.441L507.846 250.808C505.798 251.131 502.835 251.644 499.177 252.276C491.875 253.612 481.828 255.725 470.7 257.883C465.136 258.955 459.829 259.895 454.986 260.658C452.565 261.025 450.259 261.377 448.095 261.671C443.194 262.609 438.162 261.42 433.992 258.339C433.331 257.841 432.694 257.302 432.086 256.724C431.661 256.357 431.429 256.166 431.429 256.166Z" fill="#263238"/>
<path d="M523.623 236.157C523.664 236.05 523.69 235.936 523.701 235.819C523.701 235.526 523.817 235.203 523.881 234.865C524.023 234.028 524.203 232.825 524.396 231.313C524.959 227.389 524.867 223.38 524.126 219.495C523.296 215.579 521.239 212.144 518.343 209.836C517.462 209.17 516.492 208.674 515.47 208.368C515.1 208.246 514.721 208.163 514.337 208.118C515.714 208.494 517.023 209.145 518.201 210.041C521.009 212.36 523 215.743 523.817 219.583C524.552 223.442 524.665 227.422 524.151 231.327C523.997 232.795 523.842 234.043 523.726 234.88C523.726 235.232 523.688 235.555 523.61 235.849C523.604 235.952 523.608 236.055 523.623 236.157Z" fill="#263238"/>
<path d="M446.331 246.228C446.351 245.92 446.351 245.611 446.331 245.303L446.125 242.778C445.926 240.009 445.853 237.231 445.906 234.454C445.975 231.675 446.168 228.902 446.485 226.145C446.601 225.25 446.704 224.428 446.807 223.65C446.858 223.345 446.889 223.035 446.898 222.725C446.812 223.018 446.743 223.317 446.691 223.62C446.576 224.208 446.434 225.088 446.292 226.116C445.524 231.637 445.399 237.249 445.919 242.807C446.022 243.864 446.125 244.73 446.215 245.317C446.227 245.624 446.266 245.929 446.331 246.228Z" fill="#263238"/>
<path d="M403.517 158.148C403.159 155.359 403.046 152.536 403.182 149.721C403.195 149.578 403.179 149.434 403.136 149.299C403.093 149.164 403.024 149.041 402.933 148.941C402.843 148.841 402.734 148.765 402.614 148.72C402.494 148.675 402.367 148.661 402.242 148.679C401.468 148.795 400.74 149.169 400.152 149.754C399.563 150.339 399.138 151.109 398.932 151.967C398.535 153.504 398.408 155.116 398.559 156.709C398.559 159.322 398.559 161.392 398.559 161.392C398.559 161.392 387.121 145.787 384.803 145.082C384.61 144.976 384.401 144.914 384.187 144.901C383.974 144.888 383.76 144.923 383.559 145.005C383.357 145.087 383.172 145.214 383.014 145.379C382.856 145.543 382.729 145.742 382.639 145.963C382.214 146.741 383.064 148.562 383.064 148.562L389.504 159.072C389.504 159.072 379.754 146.007 377.989 146.037C376.225 146.066 375.413 147.505 376.559 149.927C377.397 151.703 385.91 163.139 385.91 163.139C385.91 163.139 376.804 153.127 374.988 153.2C373.172 153.274 373.481 155.476 374.434 156.386C375.387 157.296 382.162 166.236 382.162 166.236C382.162 166.236 375.581 159.894 374.254 160.364C372.927 160.834 373.494 162.537 374.19 163.902C374.885 165.267 391.397 184.072 391.397 184.072L405.72 175.881C406.092 173.591 406.017 171.235 405.501 168.981C404.636 165.423 403.973 161.804 403.517 158.148Z" fill="#FFD3C1"/>
<path d="M193.214 343.571C189.728 343.555 186.39 341.966 183.93 339.151C181.47 336.337 180.089 332.526 180.089 328.553V197.989C180.19 194.693 181.432 191.578 183.545 189.324C185.657 187.071 188.467 185.863 191.359 185.966H202.127C204.245 186.014 206.333 185.385 208.154 184.15C209.976 182.915 211.457 181.124 212.431 178.979L214.736 173.62C215.705 171.487 217.176 169.702 218.985 168.468C220.793 167.234 222.868 166.598 224.976 166.633H276.096C278.017 166.604 279.914 167.127 281.611 168.153C283.308 169.18 284.751 170.676 285.808 172.505L288.32 177.041C289.374 178.868 290.815 180.364 292.51 181.39C294.205 182.416 296.099 182.94 298.018 182.913H363.191C366.086 182.806 368.9 184.014 371.013 186.272C373.127 188.529 374.367 191.651 374.461 194.95V328.538C374.461 332.521 373.073 336.341 370.602 339.157C368.131 341.974 364.779 343.556 361.285 343.556L193.214 343.571Z" fill="#666666"/>
<g opacity="0.3">
<path d="M193.214 343.571C189.728 343.555 186.39 341.966 183.93 339.151C181.47 336.337 180.089 332.526 180.089 328.553V197.989C180.19 194.693 181.432 191.578 183.545 189.324C185.657 187.071 188.467 185.863 191.359 185.966H202.127C204.245 186.014 206.333 185.385 208.154 184.15C209.976 182.915 211.457 181.124 212.431 178.979L214.736 173.62C215.705 171.487 217.176 169.702 218.985 168.468C220.793 167.234 222.868 166.598 224.976 166.633H276.096C278.017 166.604 279.914 167.127 281.611 168.153C283.308 169.18 284.751 170.676 285.808 172.505L288.32 177.041C289.374 178.868 290.815 180.364 292.51 181.39C294.205 182.416 296.099 182.94 298.018 182.913H363.191C366.086 182.806 368.9 184.014 371.013 186.272C373.127 188.529 374.367 191.651 374.461 194.95V328.538C374.461 332.521 373.073 336.341 370.602 339.157C368.131 341.974 364.779 343.556 361.285 343.556L193.214 343.571Z" fill="black"/>
</g>
<path d="M291.475 182.986L250.001 182.883L246.305 174.986C245.048 172.422 243.207 170.292 240.976 168.822C238.745 167.352 236.207 166.595 233.631 166.633H193.097C185.885 166.633 180.037 172.872 180.037 180.579V327.731C180.037 336.539 186.683 343.571 194.875 343.571H359.507C367.712 343.571 374.345 336.48 374.345 327.731V193.805C374.345 190.936 373.345 188.184 371.564 186.155C369.784 184.126 367.37 182.986 364.852 182.986H291.475Z" fill="#666666"/>
<path d="M312.379 294.496H294.025C293.683 294.496 293.356 294.341 293.114 294.066C292.873 293.79 292.737 293.417 292.737 293.028C292.737 292.638 292.873 292.265 293.114 291.989C293.356 291.714 293.683 291.56 294.025 291.56H312.379C317.139 291.57 321.714 289.461 325.129 285.682C328.543 281.903 330.528 276.753 330.659 271.331C330.79 265.908 329.057 260.641 325.83 256.654C322.603 252.666 318.137 250.274 313.384 249.986C313.109 249.971 312.846 249.855 312.632 249.657C312.419 249.459 312.267 249.188 312.199 248.885C310.843 242.917 308.057 237.496 304.154 233.229C300.25 228.962 295.382 226.017 290.094 224.722C284.805 223.427 279.306 223.835 274.209 225.898C269.112 227.961 264.619 231.6 261.233 236.407C261.095 236.605 260.914 236.759 260.709 236.854C260.504 236.949 260.28 236.982 260.06 236.95C259.138 236.814 258.209 236.745 257.278 236.744C250.999 236.91 245.025 239.87 240.635 244.99C236.246 250.111 233.788 256.986 233.788 264.145C233.788 271.304 236.246 278.179 240.635 283.299C245.025 288.42 250.999 291.379 257.278 291.545H272.155C272.496 291.545 272.824 291.699 273.066 291.975C273.307 292.25 273.443 292.623 273.443 293.013C273.443 293.402 273.307 293.776 273.066 294.051C272.824 294.326 272.496 294.481 272.155 294.481H257.214C250.15 294.481 243.375 291.282 238.38 285.589C233.384 279.896 230.578 272.174 230.578 264.123C230.578 256.071 233.384 248.349 238.38 242.656C243.375 236.963 250.15 233.764 257.214 233.764C258.006 233.765 258.797 233.814 259.584 233.911C263.283 228.872 268.115 225.076 273.563 222.929C279.01 220.781 284.868 220.364 290.508 221.722C296.148 223.08 301.357 226.161 305.577 230.636C309.798 235.11 312.87 240.81 314.466 247.123C319.816 247.69 324.767 250.591 328.286 255.22C331.804 259.848 333.618 265.847 333.349 271.963C333.08 278.08 330.748 283.842 326.841 288.046C322.933 292.25 317.752 294.571 312.379 294.525V294.496Z" fill="white"/>
<path d="M282.704 307.884C282.362 307.884 282.035 307.729 281.793 307.454C281.552 307.178 281.416 306.805 281.416 306.416V268.248C281.416 267.858 281.552 267.485 281.793 267.21C282.035 266.934 282.362 266.78 282.704 266.78C283.046 266.78 283.373 266.934 283.615 267.21C283.856 267.485 283.992 267.858 283.992 268.248V306.416C283.992 306.805 283.856 307.178 283.615 307.454C283.373 307.729 283.046 307.884 282.704 307.884Z" fill="white"/>
<path d="M292.492 283.441C292.29 283.444 292.091 283.392 291.909 283.29C291.728 283.188 291.57 283.039 291.449 282.854L282.923 269.818C282.891 269.776 282.852 269.741 282.807 269.718C282.763 269.696 282.714 269.685 282.665 269.686C282.618 269.688 282.573 269.7 282.53 269.723C282.488 269.746 282.451 269.778 282.42 269.818L273.404 282.487C273.187 282.793 272.873 282.988 272.53 283.029C272.187 283.07 271.844 282.955 271.575 282.707C271.307 282.46 271.136 282.102 271.1 281.711C271.064 281.32 271.165 280.929 271.382 280.623L280.398 267.954C280.682 267.567 281.036 267.256 281.437 267.043C281.838 266.83 282.274 266.72 282.717 266.721C283.157 266.728 283.59 266.85 283.982 267.076C284.375 267.302 284.717 267.628 284.983 268.027L293.536 281.078C293.639 281.234 293.713 281.411 293.755 281.6C293.797 281.788 293.806 281.985 293.781 282.177C293.756 282.37 293.697 282.555 293.609 282.722C293.52 282.888 293.403 283.033 293.265 283.148C293.042 283.338 292.771 283.441 292.492 283.441Z" fill="white"/>
</svg>
