<svg width="80" height="80" viewBox="0 0 80 80" fill="none" xmlns="http://www.w3.org/2000/svg">
<path d="M71.86 26.084C71.952 25.388 72 24.692 72 24C72 14.484 63.428 6.848 53.916 8.14C51.144 3.208 45.864 0 40 0C34.136 0 28.856 3.208 26.084 8.14C16.552 6.848 8 14.484 8 24C8 24.692 8.048 25.388 8.14 26.084C3.208 28.86 0 34.14 0 40C0 45.86 3.208 51.14 8.14 53.916C8.04772 54.6068 8.00095 55.303 8 56C8 65.516 16.552 73.132 26.084 71.86C28.856 76.792 34.136 80 40 80C45.864 80 51.144 76.792 53.916 71.86C63.428 73.132 72 65.516 72 56C72 55.308 71.952 54.612 71.86 53.916C76.792 51.14 80 45.86 80 40C80 34.14 76.792 28.86 71.86 26.084Z" fill="black"/>
</svg>
