<svg width="40" height="40" viewBox="0 0 40 40" fill="none" xmlns="http://www.w3.org/2000/svg">
<g clip-path="url(#clip0_549_8188)">
<path d="M36.3913 2.07588C35.8313 3.41998 35.1141 4.69302 34.2547 5.86838C30.4903 2.10619 25.3862 -0.00749798 20.0641 -0.00817871C9.0575 -0.00817871 2.6944e-09 9.05682 2.6944e-09 20.0756C-4.4547e-05 22.7965 0.552356 25.4891 1.62373 27.9903C2.6951 30.4914 4.26313 32.749 6.23281 34.6262L6.97281 35.2824C10.5894 38.3316 15.1668 40.0053 19.8972 40.0081C30.3619 40.0081 39.1587 31.8081 39.9038 21.3571C40.4509 16.2412 38.9503 9.77057 36.3913 2.07588ZM9.08344 34.7406C8.92234 34.9391 8.71899 35.0991 8.4882 35.2091C8.25742 35.319 8.00502 35.3761 7.74938 35.3762C6.80625 35.3762 6.03469 34.5999 6.03469 33.6568C6.03469 32.7137 6.81125 31.9378 7.74938 31.9378C8.14 31.9378 8.52594 32.0731 8.82812 32.3234C9.56281 32.9171 9.6775 34.0059 9.08344 34.7406ZM36.3081 28.7287C31.3572 35.3293 20.7831 33.1046 14.0031 33.4224C14.0031 33.4224 12.7994 33.4956 11.5903 33.6934C11.5903 33.6934 12.0434 33.5006 12.6325 33.2765C17.3906 31.6199 19.6419 31.2968 22.5341 29.8121C27.98 27.0406 33.3634 20.9765 34.4841 14.6674C32.41 20.7368 26.1247 25.9518 20.3975 28.0721C16.4734 29.5206 9.38562 30.9271 9.38562 30.9271L9.09906 30.7759C4.27344 28.4265 4.12719 17.9706 12.8981 14.5946C16.7391 13.1149 20.4131 13.9278 24.5616 12.9378C28.9913 11.8856 34.1141 8.56151 36.1984 4.22713C38.5331 11.1615 41.3425 22.0184 36.3081 28.7287Z" fill="#77BC1F"/>
</g>
<defs>
<clipPath id="clip0_549_8188">
<rect width="40" height="40" fill="white"/>
</clipPath>
</defs>
</svg>
